{
.appVersion = "983";
DisplayStrings = (
"/Adblgrave \U00C0/Edblgrave \U00C8/Idblgrave \U00CC/Odblgrave \U00D2/Rdblgrave/Udblgrave \U00D9/Wgrave/Ygrave \012\012/adblgrave  \U00E0 /edblgrave  \U00E8 /idblgrave  \U00EC \U00F2 /rdblgrave  /udblgrave  \U00F9 /wgrave  /ygrave  /odblgrave \012\012/gravecomb  /dblgravecomb  /gravecomb.case   /dblgravecomb  /dblgravecomb.case  `"
);
classes = (
{
automatic = 1;

glyphs = (
{
glyphname = A;
layers = (
{
anchors = (
{
name = bottom;
position = "{545, 0}";
},
{
name = ogonek;
position = "{981, 0}";
},
{
name = top;
position = "{554, 1284}";
},
{
name = top_case;
position = "{554, 1284}";
}
);
layerId = "1D628CB9-BBF5-410A-9D74-9E6094BFE839";
paths = (
{
closed = 1;
nodes = (
"197 0 LINE",
"313 367 LINE",
"254 320 LINE",
"847 320 LINE",
"789 367 LINE",
"901 0 LINE",
"1029 0 LINE",
"647 1284 LINE",
"460 1284 LINE",
"60 0 LINE"
);
},
{
closed = 1;
nodes = (
"554 1174 LINE",
"786 377 LINE",
"818 421 LINE",
"282 421 LINE",
"314 377 LINE"
);
}
);
width = 1089;
},
{
anchors = (
{
name = bottom;
position = "{601, -50}";
},
{
name = top;
position = "{570, 1334}";
},
{
name = top_case;
position = "{609, 1284}";
}
);
guideLines = (
{
angle = 252.1913;
position = "{1986, 1465}";
},
{
angle = -72.1913;
position = "{1650, 1502}";
},
{
angle = 270;
position = "{601, 698}";
}
);
layerId = "D42B5605-DB46-4B3B-8EA0-4CE7066523CE";
paths = (
{
closed = 1;
nodes = (
"304 0 LINE",
"409 325 LINE",
"271 209 LINE",
"924 209 LINE",
"788 334 LINE",
"894 0 LINE",
"1191 0 LINE",
"795 1284 LINE",
"407 1284 LINE",
"7 0 LINE"
);
},
{
closed = 1;
nodes = (
"601 964 LINE",
"776 367 LINE",
"875 479 LINE",
"319 479 LINE",
"421 367 LINE"
);
}
);
width = 1198;
}
);
unicode = 0041;
},
{
glyphname = AE;
layers = (
{
anchors = (
{
name = bottom;
position = "{695, 0}";
},
{
name = top_case;
position = "{959, 1284}";
}
);
layerId = "1D628CB9-BBF5-410A-9D74-9E6094BFE839";
paths = (
{
closed = 1;
nodes = (
"118 0 LINE",
"282 328 LINE",
"693 328 LINE",
"693 0 LINE",
"1302 0 LINE",
"1286 100 LINE",
"821 100 LINE",
"821 626 LINE",
"1242 626 LINE",
"1242 722 LINE",
"821 722 LINE",
"821 1184 LINE",
"1276 1184 LINE",
"1298 1284 LINE",
"620 1284 LINE",
"-22 0 LINE"
);
},
{
closed = 1;
nodes = (
"693 1194 LINE",
"693 420 LINE",
"320 420 LINE"
);
}
);
width = 1389;
},
{
layerId = "D42B5605-DB46-4B3B-8EA0-4CE7066523CE";
width = 600;
}
);
unicode = 00C6;
},
{
glyphname = B;
layers = (
{
anchors = (
{
name = bottom;
position = "{487, 0}";
},
{
name = top_case;
position = "{487, 1284}";
}
);
layerId = "1D628CB9-BBF5-410A-9D74-9E6094BFE839";
paths = (
{
closed = 1;
nodes = (
"470 0 LINE SMOOTH",
"783 0 OFFCURVE",
"952 65 OFFCURVE",
"952 377 CURVE SMOOTH",
"952 556 OFFCURVE",
"855 650 OFFCURVE",
"712 683 CURVE",
"855 718 OFFCURVE",
"906 810 OFFCURVE",
"906 971 CURVE SMOOTH",
"906 1217 OFFCURVE",
"767 1284 OFFCURVE",
"473 1284 CURVE SMOOTH",
"152 1284 LINE",
"152 0 LINE"
);
},
{
closed = 1;
nodes = (
"280 665 LINE",
"225 626 LINE",
"514 626 LINE SMOOTH",
"715 626 OFFCURVE",
"824 555 OFFCURVE",
"824 375 CURVE SMOOTH",
"824 139 OFFCURVE",
"697 101 OFFCURVE",
"477 101 CURVE SMOOTH",
"225 101 LINE",
"280 46 LINE"
);
},
{
closed = 1;
nodes = (
"280 1238 LINE",
"225 1183 LINE",
"497 1183 LINE SMOOTH",
"701 1183 OFFCURVE",
"778 1127 OFFCURVE",
"778 971 CURVE SMOOTH",
"778 781 OFFCURVE",
"703 727 OFFCURVE",
"513 727 CURVE SMOOTH",
"225 727 LINE",
"280 687 LINE"
);
}
);
width = 1047;
},
{
anchors = (
{
name = bottom;
position = "{527, 0}";
},
{
name = top_case;
position = "{527, 1334}";
}
);
layerId = "D42B5605-DB46-4B3B-8EA0-4CE7066523CE";
paths = (
{
closed = 1;
nodes = (
"530 0 LINE SMOOTH",
"864 0 OFFCURVE",
"1052 91 OFFCURVE",
"1052 357 CURVE SMOOTH",
"1052 536 OFFCURVE",
"955 621 OFFCURVE",
"812 668 CURVE",
"955 720 OFFCURVE",
"1005 807 OFFCURVE",
"1005 955 CURVE SMOOTH",
"1005 1201 OFFCURVE",
"830 1284 OFFCURVE",
"501 1284 CURVE SMOOTH",
"92 1284 LINE",
"92 0 LINE"
);
},
{
closed = 1;
nodes = (
"420 648 LINE",
"275 532 LINE",
"577 532 LINE SMOOTH",
"669 532 OFFCURVE",
"724 494 OFFCURVE",
"724 391 CURVE SMOOTH",
"724 289 OFFCURVE",
"650 260 OFFCURVE",
"537 260 CURVE SMOOTH",
"275 260 LINE",
"420 46 LINE"
);
},
{
closed = 1;
nodes = (
"420 1238 LINE",
"275 1024 LINE",
"527 1024 LINE SMOOTH",
"616 1024 OFFCURVE",
"677 995 OFFCURVE",
"677 908 CURVE SMOOTH",
"677 821 OFFCURVE",
"626 792 OFFCURVE",
"557 792 CURVE SMOOTH",
"275 792 LINE",
"420 694 LINE"
);
}
);
width = 1107;
}
);
unicode = 0042;
},
{
glyphname = C;
layers = (
{
anchors = (
{
name = bottom;
position = "{511, 0}";
},
{
name = cedilla;
position = "{582, 0}";
},
{
name = top;
position = "{590, 1284}";
},
{
name = top_case;
position = "{596, 1284}";
}
);
guideLines = (
{
angle = 270;
position = "{579, 639}";
}
);
layerId = "1D628CB9-BBF5-410A-9D74-9E6094BFE839";
paths = (
{
closed = 1;
nodes = (
"706 -10 OFFCURVE",
"810 8 OFFCURVE",
"927 64 CURVE",
"887 161 LINE",
"784 112 OFFCURVE",
"697 96 OFFCURVE",
"610 96 CURVE SMOOTH",
"395 96 OFFCURVE",
"250 242 OFFCURVE",
"250 638 CURVE SMOOTH",
"250 1092 OFFCURVE",
"375 1195 OFFCURVE",
"601 1195 CURVE SMOOTH",
"683 1195 OFFCURVE",
"760 1175 OFFCURVE",
"814 1146 CURVE",
"791 1202 LINE",
"791 949 LINE",
"900 959 LINE",
"900 1226 LINE",
"790 1280 OFFCURVE",
"689 1301 OFFCURVE",
"590 1301 CURVE SMOOTH",
"274 1301 OFFCURVE",
"122 1114 OFFCURVE",
"122 641 CURVE SMOOTH",
"122 179 OFFCURVE",
"323 -10 OFFCURVE",
"602 -10 CURVE SMOOTH"
);
}
);
width = 1022;
},
{
anchors = (
{
name = bottom;
position = "{615, 0}";
},
{
name = cedilla;
position = "{686, 0}";
},
{
name = top;
position = "{694, 1334}";
},
{
name = top_case;
position = "{610, 1334}";
}
);
guideLines = (
{
angle = 270;
position = "{609, 639}";
}
);
layerId = "D42B5605-DB46-4B3B-8EA0-4CE7066523CE";
paths = (
{
closed = 1;
nodes = (
"807 -10 OFFCURVE",
"948 40 OFFCURVE",
"1113 117 CURVE",
"1012 368 LINE",
"856 302 OFFCURVE",
"756 275 OFFCURVE",
"664 275 CURVE SMOOTH",
"490 275 OFFCURVE",
"384 367 OFFCURVE",
"384 638 CURVE SMOOTH",
"384 952 OFFCURVE",
"462 1016 OFFCURVE",
"605 1016 CURVE SMOOTH",
"739 1016 OFFCURVE",
"801 976 OFFCURVE",
"868 936 CURVE",
"754 1202 LINE",
"754 784 LINE",
"1054 814 LINE",
"1054 1196 LINE",
"874 1280 OFFCURVE",
"746 1301 OFFCURVE",
"574 1301 CURVE SMOOTH",
"258 1301 OFFCURVE",
"56 1144 OFFCURVE",
"56 641 CURVE SMOOTH",
"56 149 OFFCURVE",
"298 -10 OFFCURVE",
"626 -10 CURVE SMOOTH"
);
}
);
width = 1165;
}
);
unicode = 0043;
},
{
glyphname = D;
layers = (
{
anchors = (
{
name = bottom;
position = "{544, 0}";
},
{
name = center;
position = "{554, 642}";
},
{
name = top_case;
position = "{524, 1284}";
}
);
layerId = "1D628CB9-BBF5-410A-9D74-9E6094BFE839";
paths = (
{
closed = 1;
nodes = (
"437 0 LINE SMOOTH",
"909 0 OFFCURVE",
"985 229 OFFCURVE",
"985 636 CURVE SMOOTH",
"985 1101 OFFCURVE",
"880 1284 OFFCURVE",
"426 1284 CURVE SMOOTH",
"153 1284 LINE",
"153 0 LINE"
);
},
{
closed = 1;
nodes = (
"281 1228 LINE",
"236 1183 LINE",
"426 1183 LINE SMOOTH",
"801 1183 OFFCURVE",
"857 1030 OFFCURVE",
"857 636 CURVE SMOOTH",
"857 266 OFFCURVE",
"821 101 OFFCURVE",
"437 101 CURVE SMOOTH",
"236 101 LINE",
"281 56 LINE"
);
}
);
width = 1107;
},
{
anchors = (
{
name = bottom;
position = "{543, -50}";
},
{
name = center;
position = "{573, 642}";
},
{
name = top_case;
position = "{523, 1334}";
}
);
layerId = "D42B5605-DB46-4B3B-8EA0-4CE7066523CE";
paths = (
{
closed = 1;
nodes = (
"476 0 LINE SMOOTH",
"939 0 OFFCURVE",
"1084 191 OFFCURVE",
"1084 646 CURVE SMOOTH",
"1084 1101 OFFCURVE",
"939 1284 OFFCURVE",
"465 1284 CURVE SMOOTH",
"92 1284 LINE",
"92 0 LINE"
);
},
{
closed = 1;
nodes = (
"420 1228 LINE",
"175 999 LINE",
"465 999 LINE SMOOTH",
"706 999 OFFCURVE",
"756 933 OFFCURVE",
"756 646 CURVE SMOOTH",
"756 359 OFFCURVE",
"707 285 OFFCURVE",
"476 285 CURVE SMOOTH",
"175 285 LINE",
"420 56 LINE"
);
}
);
width = 1140;
}
);
unicode = 0044;
},
{
glyphname = Eth;
layers = (
{
layerId = "1D628CB9-BBF5-410A-9D74-9E6094BFE839";
paths = (
{
closed = 1;
nodes = (
"437 0 LINE SMOOTH",
"909 0 OFFCURVE",
"985 229 OFFCURVE",
"985 636 CURVE SMOOTH",
"985 1101 OFFCURVE",
"880 1284 OFFCURVE",
"426 1284 CURVE SMOOTH",
"153 1284 LINE",
"153 712 LINE",
"4 712 LINE",
"4 609 LINE",
"153 609 LINE",
"153 0 LINE"
);
},
{
closed = 1;
nodes = (
"281 609 LINE",
"484 609 LINE",
"484 712 LINE",
"281 712 LINE",
"281 1184 LINE",
"426 1184 LINE SMOOTH",
"801 1184 OFFCURVE",
"857 1030 OFFCURVE",
"857 636 CURVE SMOOTH",
"857 269 OFFCURVE",
"821 104 OFFCURVE",
"437 104 CURVE SMOOTH",
"281 104 LINE"
);
}
);
width = 1107;
},
{
layerId = "D42B5605-DB46-4B3B-8EA0-4CE7066523CE";
width = 600;
}
);
unicode = 00D0;
},
{
glyphname = Dcroat;
layers = (
{
layerId = "1D628CB9-BBF5-410A-9D74-9E6094BFE839";
paths = (
{
closed = 1;
nodes = (
"437 0 LINE SMOOTH",
"909 0 OFFCURVE",
"985 229 OFFCURVE",
"985 636 CURVE SMOOTH",
"985 1101 OFFCURVE",
"880 1284 OFFCURVE",
"426 1284 CURVE SMOOTH",
"153 1284 LINE",
"153 712 LINE",
"4 712 LINE",
"4 609 LINE",
"153 609 LINE",
"153 0 LINE"
);
},
{
closed = 1;
nodes = (
"281 609 LINE",
"484 609 LINE",
"484 712 LINE",
"281 712 LINE",
"281 1184 LINE",
"426 1184 LINE SMOOTH",
"801 1184 OFFCURVE",
"857 1030 OFFCURVE",
"857 636 CURVE SMOOTH",
"857 269 OFFCURVE",
"821 104 OFFCURVE",
"437 104 CURVE SMOOTH",
"281 104 LINE"
);
}
);
width = 1107;
},
{
layerId = "D42B5605-DB46-4B3B-8EA0-4CE7066523CE";
width = 600;
}
);
unicode = 0110;
},
{
glyphname = E;
layers = (
{
anchors = (
{
name = bottom;
position = "{498, 0}";
},
{
name = ogonek;
position = "{792, 0}";
},
{
name = top;
position = "{507, 1284}";
},
{
name = top_case;
position = "{506, 1284}";
}
);
layerId = "1D628CB9-BBF5-410A-9D74-9E6094BFE839";
paths = (
{
closed = 1;
nodes = (
"842 0 LINE",
"826 101 LINE",
"236 101 LINE",
"281 56 LINE",
"281 671 LINE",
"236 622 LINE",
"782 622 LINE",
"782 723 LINE",
"236 723 LINE",
"281 677 LINE",
"281 1228 LINE",
"236 1183 LINE",
"816 1183 LINE",
"838 1284 LINE",
"153 1284 LINE",
"153 0 LINE"
);
}
);
width = 929;
},
{
anchors = (
{
name = bottom;
position = "{536, -50}";
},
{
name = ogonek;
position = "{830, 0}";
},
{
name = top_case;
position = "{505, 1334}";
}
);
guideLines = (
{
angle = 77.7751;
position = "{2574, 1172}";
},
{
angle = 99.0161;
position = "{2619, -107}";
},
{
angle = 263.2847;
position = "{922, 1319}";
}
);
layerId = "D42B5605-DB46-4B3B-8EA0-4CE7066523CE";
paths = (
{
closed = 1;
nodes = (
"920 0 LINE",
"897 295 LINE",
"264 295 LINE",
"409 56 LINE",
"409 638 LINE",
"264 521 LINE",
"860 521 LINE",
"860 796 LINE",
"264 796 LINE",
"409 684 LINE",
"409 1228 LINE",
"264 989 LINE",
"881 989 LINE",
"916 1284 LINE",
"81 1284 LINE",
"81 0 LINE"
);
}
);
width = 995;
}
);
unicode = 0045;
},
{
glyphname = F;
layers = (
{
anchors = (
{
name = bottom;
position = "{423, 0}";
},
{
name = top_case;
position = "{503, 1284}";
}
);
guideLines = (
{
angle = 77.7751;
position = "{822, 1172}";
}
);
layerId = "1D628CB9-BBF5-410A-9D74-9E6094BFE839";
paths = (
{
closed = 1;
nodes = (
"281 0 LINE",
"281 648 LINE",
"236 603 LINE",
"737 603 LINE",
"737 699 LINE",
"236 699 LINE",
"281 654 LINE",
"281 1228 LINE",
"236 1183 LINE",
"801 1183 LINE",
"823 1284 LINE",
"153 1284 LINE",
"153 0 LINE"
);
}
);
width = 860;
},
{
anchors = (
{
name = bottom;
position = "{628, 0}";
},
{
name = top_case;
position = "{529, 1334}";
}
);
guideLines = (
{
angle = 263.2847;
position = "{932, 1319}";
}
);
layerId = "D42B5605-DB46-4B3B-8EA0-4CE7066523CE";
paths = (
{
closed = 1;
nodes = (
"409 0 LINE",
"409 612 LINE",
"264 478 LINE",
"842 478 LINE",
"842 753 LINE",
"264 753 LINE",
"409 618 LINE",
"409 1228 LINE",
"264 989 LINE",
"893 989 LINE",
"928 1284 LINE",
"81 1284 LINE",
"81 0 LINE"
);
},
{
closed = 0;
nodes = (
"342 1228 LINE"
);
}
);
width = 1003;
}
);
unicode = 0046;
},
{
glyphname = G;
layers = (
{
anchors = (
{
name = bottom;
position = "{583, 0}";
},
{
name = top_case;
position = "{597, 1284}";
}
);
guideLines = (
{
angle = 270;
position = "{579, 639}";
}
);
layerId = "1D628CB9-BBF5-410A-9D74-9E6094BFE839";
paths = (
{
closed = 1;
nodes = (
"782 -10 OFFCURVE",
"905 41 OFFCURVE",
"968 75 CURVE",
"968 665 LINE",
"616 665 LINE",
"616 569 LINE",
"897 569 LINE",
"852 614 LINE",
"852 100 LINE",
"874 157 LINE",
"806 116 OFFCURVE",
"692 96 OFFCURVE",
"594 96 CURVE SMOOTH",
"386 96 OFFCURVE",
"242 242 OFFCURVE",
"242 659 CURVE SMOOTH",
"242 1103 OFFCURVE",
"390 1195 OFFCURVE",
"614 1195 CURVE SMOOTH",
"695 1195 OFFCURVE",
"797 1176 OFFCURVE",
"844 1147 CURVE",
"824 1202 LINE",
"824 944 LINE",
"933 954 LINE",
"933 1226 LINE",
"823 1280 OFFCURVE",
"702 1301 OFFCURVE",
"603 1301 CURVE SMOOTH",
"287 1301 OFFCURVE",
"114 1123 OFFCURVE",
"114 650 CURVE SMOOTH",
"114 178 OFFCURVE",
"315 -10 OFFCURVE",
"588 -10 CURVE SMOOTH"
);
}
);
width = 1102;
},
{
anchors = (
{
name = bottom;
position = "{664, 0}";
},
{
name = top_case;
position = "{638, 1334}";
}
);
guideLines = (
{
angle = 270;
position = "{609, 1539}";
},
{
position = "{896, 665}";
}
);
layerId = "D42B5605-DB46-4B3B-8EA0-4CE7066523CE";
paths = (
{
closed = 1;
nodes = (
"818 -10 OFFCURVE",
"996 26 OFFCURVE",
"1139 92 CURVE",
"1139 695 LINE",
"642 695 LINE",
"642 430 LINE",
"968 430 LINE",
"831 544 LINE",
"831 95 LINE",
"1012 368 LINE",
"856 302 OFFCURVE",
"757 275 OFFCURVE",
"664 275 CURVE SMOOTH",
"490 275 OFFCURVE",
"384 367 OFFCURVE",
"384 638 CURVE SMOOTH",
"384 952 OFFCURVE",
"462 1016 OFFCURVE",
"605 1016 CURVE SMOOTH",
"739 1016 OFFCURVE",
"811 985 OFFCURVE",
"868 956 CURVE",
"804 1202 LINE",
"804 788 LINE",
"1104 818 LINE",
"1104 1196 LINE",
"924 1280 OFFCURVE",
"786 1301 OFFCURVE",
"614 1301 CURVE SMOOTH",
"258 1301 OFFCURVE",
"56 1144 OFFCURVE",
"56 641 CURVE SMOOTH",
"56 149 OFFCURVE",
"298 -10 OFFCURVE",
"626 -10 CURVE SMOOTH"
);
}
);
width = 1231;
}
);
unicode = 0047;
},
{
glyphname = H;
layers = (
{
anchors = (
{
name = bottom;
position = "{571, 0}";
},
{
name = center;
position = "{571, 642}";
},
{
name = top_case;
position = "{571, 1284}";
}
);
layerId = "1D628CB9-BBF5-410A-9D74-9E6094BFE839";
paths = (
{
closed = 1;
nodes = (
"281 0 LINE",
"281 647 LINE",
"236 602 LINE",
"906 602 LINE",
"861 647 LINE",
"861 0 LINE",
"989 0 LINE",
"989 1284 LINE",
"861 1284 LINE",
"861 658 LINE",
"906 703 LINE",
"236 703 LINE",
"281 658 LINE",
"281 1284 LINE",
"153 1284 LINE",
"153 0 LINE"
);
}
);
width = 1142;
},
{
anchors = (
{
name = bottom;
position = "{610, -50}";
},
{
name = center;
position = "{610, 642}";
},
{
name = top_case;
position = "{610, 1334}";
}
);
layerId = "D42B5605-DB46-4B3B-8EA0-4CE7066523CE";
paths = (
{
closed = 1;
nodes = (
"420 0 LINE",
"420 637 LINE",
"275 510 LINE",
"965 510 LINE",
"820 637 LINE",
"820 0 LINE",
"1148 0 LINE",
"1148 1284 LINE",
"820 1284 LINE",
"820 668 LINE",
"965 795 LINE",
"275 795 LINE",
"420 668 LINE",
"420 1284 LINE",
"92 1284 LINE",
"92 0 LINE"
);
}
);
width = 1240;
}
);
unicode = 0048;
userData = {
com.fontlab.hintData = {
hhints = (
{
position = 0;
width = 21;
},
{
position = 602;
width = 101;
},
{
position = 1264;
width = 20;
}
);
vhints = (
{
position = 149;
width = 128;
},
{
position = 857;
width = 128;
}
);
};
};
},
{
glyphname = Hbar;
layers = (
{
layerId = "1D628CB9-BBF5-410A-9D74-9E6094BFE839";
paths = (
{
closed = 1;
nodes = (
"281 0 LINE",
"281 647 LINE",
"236 602 LINE",
"906 602 LINE",
"861 647 LINE",
"861 0 LINE",
"989 0 LINE",
"989 941 LINE",
"944 896 LINE",
"1101 896 LINE",
"1101 984 LINE",
"944 984 LINE",
"989 939 LINE",
"989 1284 LINE",
"861 1284 LINE",
"861 939 LINE",
"906 984 LINE",
"236 984 LINE",
"281 939 LINE",
"281 1284 LINE",
"153 1284 LINE",
"153 939 LINE",
"198 984 LINE",
"45 984 LINE",
"45 896 LINE",
"198 896 LINE",
"153 941 LINE",
"153 0 LINE"
);
},
{
closed = 1;
nodes = (
"281 941 LINE",
"236 896 LINE",
"906 896 LINE",
"861 941 LINE",
"861 658 LINE",
"906 703 LINE",
"236 703 LINE",
"281 658 LINE"
);
}
);
width = 1142;
},
{
guideLines = (
{
position = "{687, 799}";
},
{
position = "{656, 514}";
}
);
layerId = "D42B5605-DB46-4B3B-8EA0-4CE7066523CE";
paths = (
{
closed = 1;
nodes = (
"517 1 LINE",
"517 648 LINE",
"372 514 LINE",
"1002 514 LINE",
"857 648 LINE",
"857 1 LINE",
"1185 1 LINE",
"1185 1035 LINE",
"1140 910 LINE",
"1347 910 LINE",
"1347 1155 LINE",
"1140 1155 LINE",
"1185 1033 LINE",
"1185 1285 LINE",
"857 1285 LINE",
"857 1033 LINE",
"902 1155 LINE",
"472 1155 LINE",
"517 1033 LINE",
"517 1285 LINE",
"189 1285 LINE",
"189 1033 LINE",
"234 1155 LINE",
"31 1155 LINE",
"31 910 LINE",
"234 910 LINE",
"189 1035 LINE",
"189 1 LINE"
);
},
{
closed = 1;
nodes = (
"517 1035 LINE",
"472 910 LINE",
"902 910 LINE",
"857 1035 LINE",
"857 659 LINE",
"1002 799 LINE",
"372 799 LINE",
"517 659 LINE"
);
}
);
width = 1394;
}
);
unicode = 0126;
},
{
glyphname = I;
layers = (
{
anchors = (
{
name = bottom;
position = "{369, 0}";
},
{
name = ogonek;
position = "{378, 0}";
},
{
name = top_case;
position = "{372, 1284}";
}
);
layerId = "1D628CB9-BBF5-410A-9D74-9E6094BFE839";
paths = (
{
closed = 1;
nodes = (
"624 0 LINE",
"624 106 LINE",
"391 106 LINE",
"436 61 LINE",
"436 1223 LINE",
"391 1178 LINE",
"620 1178 LINE",
"620 1284 LINE",
"114 1284 LINE",
"114 1178 LINE",
"353 1178 LINE",
"308 1223 LINE",
"308 61 LINE",
"353 106 LINE",
"114 106 LINE",
"114 0 LINE"
);
}
);
width = 738;
},
{
anchors = (
{
name = bottom;
position = "{428, -50}";
},
{
name = ogonek;
position = "{437, 0}";
},
{
name = top;
position = "{402, 1333}";
},
{
name = top_case;
position = "{431, 1334}";
}
);
layerId = "D42B5605-DB46-4B3B-8EA0-4CE7066523CE";
paths = (
{
closed = 1;
nodes = (
"813 0 LINE",
"813 285 LINE",
"450 285 LINE",
"595 61 LINE",
"595 1223 LINE",
"450 999 LINE",
"809 999 LINE",
"809 1284 LINE",
"43 1284 LINE",
"43 999 LINE",
"412 999 LINE",
"267 1223 LINE",
"267 61 LINE",
"412 285 LINE",
"43 285 LINE",
"43 0 LINE"
);
}
);
width = 856;
}
);
unicode = 0049;
},
{
glyphname = J;
layers = (
{
anchors = (
{
name = bottom;
position = "{326, 0}";
},
{
name = top_case;
position = "{326, 1284}";
}
);
guideLines = (
{
angle = 270;
position = "{109, 727}";
}
);
layerId = "1D628CB9-BBF5-410A-9D74-9E6094BFE839";
paths = (
{
closed = 1;
nodes = (
"399 -232 OFFCURVE",
"498 -155 OFFCURVE",
"498 91 CURVE SMOOTH",
"498 1284 LINE",
"109 1284 LINE",
"109 1183 LINE",
"415 1183 LINE",
"370 1228 LINE",
"370 91 LINE SMOOTH",
"370 -62 OFFCURVE",
"331 -126 OFFCURVE",
"218 -126 CURVE SMOOTH",
"171 -126 OFFCURVE",
"114 -115 OFFCURVE",
"66 -98 CURVE",
"51 -200 LINE",
"106 -221 OFFCURVE",
"170 -232 OFFCURVE",
"227 -232 CURVE SMOOTH"
);
}
);
width = 651;
},
{
anchors = (
{
name = bottom;
position = "{218, 0}";
},
{
name = top_case;
position = "{218, 1284}";
}
);
guideLines = (
{
angle = 261.6663;
position = "{45, 49}";
},
{
angle = 270;
position = "{61, 727}";
}
);
layerId = "D42B5605-DB46-4B3B-8EA0-4CE7066523CE";
paths = (
{
closed = 1;
nodes = (
"451 -340 OFFCURVE",
"679 -248 OFFCURVE",
"679 111 CURVE SMOOTH",
"679 1284 LINE",
"61 1284 LINE",
"61 999 LINE",
"496 999 LINE",
"351 1228 LINE",
"351 107 LINE SMOOTH",
"351 4 OFFCURVE",
"310 -55 OFFCURVE",
"217 -55 CURVE SMOOTH",
"174 -55 OFFCURVE",
"103 -46 OFFCURVE",
"30 -26 CURVE",
"-10 -303 LINE",
"84 -334 OFFCURVE",
"191 -340 OFFCURVE",
"271 -340 CURVE SMOOTH"
);
}
);
width = 771;
}
);
unicode = 004A;
},
{
glyphname = K;
layers = (
{
anchors = (
{
name = bottom;
position = "{520, 0}";
},
{
name = top;
position = "{520, 1284}";
}
);
guideLines = (
{
position = "{817, -25}";
},
{
position = "{775, 43}";
}
);
layerId = "1D628CB9-BBF5-410A-9D74-9E6094BFE839";
paths = (
{
closed = 1;
nodes = (
"281 0 LINE",
"281 525 LINE",
"249 449 LINE",
"489 683 LINE",
"443 676 LINE",
"568 453 OFFCURVE",
"722 200 OFFCURVE",
"874 -25 CURVE",
"974 43 LINE",
"812 282 OFFCURVE",
"680 497 OFFCURVE",
"539 748 CURVE",
"527 685 LINE",
"926 1214 LINE",
"829 1284 LINE",
"436 778 LINE",
"251 576 LINE",
"281 564 LINE",
"281 1284 LINE",
"153 1284 LINE",
"153 0 LINE"
);
}
);
width = 1040;
},
{
anchors = (
{
name = bottom;
position = "{596, 0}";
},
{
name = top;
position = "{609, 1286}";
}
);
guideLines = (
{
angle = 270;
position = "{1135, 802}";
}
);
layerId = "D42B5605-DB46-4B3B-8EA0-4CE7066523CE";
paths = (
{
closed = 1;
nodes = (
"420 0 LINE",
"420 505 LINE",
"333 347 LINE",
"568 541 LINE",
"492 564 LINE",
"605 372 OFFCURVE",
"719 201 OFFCURVE",
"883 -25 CURVE",
"1143 171 LINE",
"928 453 OFFCURVE",
"881 521 OFFCURVE",
"728 776 CURVE",
"717 642 LINE",
"1087 1132 LINE",
"840 1312 LINE",
"521 858 LINE",
"304 633 LINE",
"420 634 LINE",
"420 1284 LINE",
"92 1284 LINE",
"92 0 LINE"
);
}
);
width = 1158;
}
);
unicode = 004B;
userData = {
com.fontlab.hintData = {
hhints = (
{
position = 0;
width = 21;
},
{
position = 1264;
width = 20;
}
);
vhints = (
{
position = 149;
width = 128;
}
);
};
};
},
{
glyphname = L;
layers = (
{
anchors = (
{
name = bottom;
position = "{472, 0}";
},
{
name = center;
position = "{610, 675}";
},
{
name = top_case;
position = "{397, 1284}";
},
{
name = topright;
position = "{561, 1284}";
}
);
guideLines = (
{
angle = -80.5924;
position = "{786, 162}";
}
);
layerId = "1D628CB9-BBF5-410A-9D74-9E6094BFE839";
paths = (
{
closed = 1;
nodes = (
"790 0 LINE",
"773 101 LINE",
"236 101 LINE",
"281 56 LINE",
"281 1284 LINE",
"153 1284 LINE",
"153 0 LINE"
);
}
);
width = 833;
},
{
anchors = (
{
name = bottom;
position = "{513, -50}";
},
{
name = center;
position = "{759, 675}";
},
{
name = top_case;
position = "{566, 1284}";
},
{
name = topright;
position = "{730, 1284}";
}
);
guideLines = (
{
angle = -83.2847;
position = "{786, 1319}";
}
);
layerId = "D42B5605-DB46-4B3B-8EA0-4CE7066523CE";
paths = (
{
closed = 1;
nodes = (
"941 0 LINE",
"906 285 LINE",
"275 285 LINE",
"420 56 LINE",
"420 1284 LINE",
"92 1284 LINE",
"92 0 LINE"
);
}
);
width = 956;
}
);
unicode = 004C;
},
{
glyphname = Lslash;
layers = (
{
layerId = "1D628CB9-BBF5-410A-9D74-9E6094BFE839";
paths = (
{
closed = 1;
nodes = (
"790 0 LINE",
"773 101 LINE",
"281 101 LINE",
"281 623 LINE",
"662 920 LINE",
"610 1000 LINE",
"281 744 LINE",
"281 1284 LINE",
"153 1284 LINE",
"153 645 LINE",
"-36 498 LINE",
"17 418 LINE",
"153 523 LINE",
"153 0 LINE"
);
}
);
width = 833;
},
{
layerId = "D42B5605-DB46-4B3B-8EA0-4CE7066523CE";
width = 600;
}
);
unicode = 0141;
},
{
glyphname = M;
layers = (
{
anchors = (
{
name = bottom;
position = "{685, 0}";
},
{
name = top_case;
position = "{681, 1284}";
}
);
guideLines = (
{
angle = 270;
position = "{685, 1133}";
}
);
layerId = "1D628CB9-BBF5-410A-9D74-9E6094BFE839";
paths = (
{
closed = 1;
nodes = (
"263 0 LINE",
"358 1131 LINE",
"336 1127 LINE",
"628 438 LINE",
"743 438 LINE",
"1035 1131 LINE",
"1014 1134 LINE",
"1108 0 LINE",
"1229 0 LINE",
"1125 1284 LINE",
"984 1284 LINE",
"668 540 LINE",
"703 541 LINE",
"388 1284 LINE",
"246 1284 LINE",
"141 0 LINE"
);
}
);
width = 1370;
},
{
anchors = (
{
name = bottom;
position = "{772, 0}";
},
{
name = top_case;
position = "{768, 1334}";
}
);
guideLines = (
{
angle = 265.6286;
position = "{163, 443}";
},
{
angle = -85.6286;
position = "{1390, 443}";
},
{
angle = 270;
position = "{779, 876}";
}
);
layerId = "D42B5605-DB46-4B3B-8EA0-4CE7066523CE";
paths = (
{
closed = 1;
nodes = (
"410 0 LINE",
"489 1144 LINE",
"339 1141 LINE",
"642 308 LINE",
"917 308 LINE",
"1220 1143 LINE",
"1071 1146 LINE",
"1150 0 LINE",
"1478 0 LINE",
"1359 1284 LINE",
"997 1284 LINE",
"712 566 LINE",
"847 566 LINE",
"561 1284 LINE",
"200 1284 LINE",
"82 0 LINE"
);
}
);
width = 1560;
}
);
unicode = 004D;
},
{
glyphname = N;
layers = (
{
anchors = (
{
name = bottom;
position = "{605, 0}";
},
{
name = top_case;
position = "{600, 1284}";
}
);
layerId = "1D628CB9-BBF5-410A-9D74-9E6094BFE839";
paths = (
{
closed = 1;
nodes = (
"281 0 LINE",
"281 1126 LINE",
"259 1120 LINE",
"896 0 LINE",
"1036 0 LINE",
"1036 1284 LINE",
"908 1284 LINE",
"908 174 LINE",
"931 180 LINE",
"293 1284 LINE",
"153 1284 LINE",
"153 0 LINE"
);
}
);
width = 1189;
},
{
anchors = (
{
name = bottom;
position = "{649, -50}";
},
{
name = top_case;
position = "{647, 1334}";
}
);
guideLines = (
{
angle = 120.0349;
position = "{202, 1681}";
}
);
layerId = "D42B5605-DB46-4B3B-8EA0-4CE7066523CE";
paths = (
{
closed = 1;
nodes = (
"415 0 LINE",
"415 1026 LINE",
"260 1020 LINE",
"865 0 LINE",
"1195 0 LINE",
"1195 1284 LINE",
"872 1284 LINE",
"872 274 LINE",
"1028 280 LINE",
"422 1284 LINE",
"92 1284 LINE",
"92 0 LINE"
);
}
);
width = 1287;
}
);
unicode = 004E;
},
{
glyphname = Eng;
layers = (
{
layerId = "1D628CB9-BBF5-410A-9D74-9E6094BFE839";
paths = (
{
closed = 1;
nodes = (
"836 -250 OFFCURVE",
"1048 -211 OFFCURVE",
"1048 100 CURVE SMOOTH",
"1048 1284 LINE",
"932 1284 LINE",
"932 317 LINE",
"289 1284 LINE",
"153 1284 LINE",
"153 0 LINE",
"275 0 LINE",
"275 1081 LINE",
"916 122 LINE",
"916 -121 OFFCURVE",
"815 -143 OFFCURVE",
"614 -143 CURVE",
"616 -250 LINE"
);
}
);
width = 1201;
},
{
layerId = "D42B5605-DB46-4B3B-8EA0-4CE7066523CE";
width = 600;
}
);
unicode = 014A;
},
{
glyphname = O;
layers = (
{
anchors = (
{
name = bottom;
position = "{568, -20}";
},
{
name = ogonek;
position = "{729, 10}";
},
{
name = top;
position = "{568, 1284}";
},
{
name = top_case;
position = "{568, 1284}";
},
{
name = topright;
position = "{894, 954}";
}
);
layerId = "1D628CB9-BBF5-410A-9D74-9E6094BFE839";
paths = (
{
closed = 1;
nodes = (
"929 -10 OFFCURVE",
"1016 232 OFFCURVE",
"1016 648 CURVE SMOOTH",
"1016 1065 OFFCURVE",
"917 1301 OFFCURVE",
"568 1301 CURVE SMOOTH",
"219 1301 OFFCURVE",
"120 1065 OFFCURVE",
"120 648 CURVE SMOOTH",
"120 232 OFFCURVE",
"207 -10 OFFCURVE",
"568 -10 CURVE SMOOTH"
);
},
{
closed = 1;
nodes = (
"318 96 OFFCURVE",
"248 264 OFFCURVE",
"248 645 CURVE SMOOTH",
"248 1030 OFFCURVE",
"321 1195 OFFCURVE",
"568 1195 CURVE SMOOTH",
"815 1195 OFFCURVE",
"888 1030 OFFCURVE",
"888 645 CURVE SMOOTH",
"888 264 OFFCURVE",
"818 96 OFFCURVE",
"568 96 CURVE SMOOTH"
);
}
);
width = 1136;
},
{
anchors = (
{
name = bottom;
position = "{589, -50}";
},
{
name = ogonek;
position = "{750, 30}";
},
{
name = top;
position = "{569, 1284}";
},
{
name = top_case;
position = "{589, 1284}";
},
{
name = topright;
position = "{915, 974}";
}
);
layerId = "D42B5605-DB46-4B3B-8EA0-4CE7066523CE";
paths = (
{
closed = 1;
nodes = (
"940 -10 OFFCURVE",
"1122 162 OFFCURVE",
"1122 648 CURVE SMOOTH",
"1122 1135 OFFCURVE",
"928 1301 OFFCURVE",
"589 1301 CURVE SMOOTH",
"250 1301 OFFCURVE",
"56 1135 OFFCURVE",
"56 648 CURVE SMOOTH",
"56 162 OFFCURVE",
"238 -10 OFFCURVE",
"589 -10 CURVE SMOOTH"
);
},
{
closed = 1;
nodes = (
"439 275 OFFCURVE",
"384 364 OFFCURVE",
"384 645 CURVE SMOOTH",
"384 931 OFFCURVE",
"442 1016 OFFCURVE",
"589 1016 CURVE SMOOTH",
"736 1016 OFFCURVE",
"794 931 OFFCURVE",
"794 645 CURVE SMOOTH",
"794 364 OFFCURVE",
"739 275 OFFCURVE",
"589 275 CURVE SMOOTH"
);
}
);
width = 1178;
}
);
unicode = 004F;
userData = {
com.fontlab.hintData = {
hhints = (
{
position = -10;
width = 106;
},
{
position = 1195;
width = 106;
}
);
vhints = (
{
position = 116;
width = 128;
},
{
position = 884;
width = 128;
}
);
};
};
},
{
glyphname = Ohorn;
layers = (
{
anchors = (
{
name = _topright;
position = "{894, 974}";
},
{
name = bottom;
position = "{568, 0}";
},
{
name = ogonek;
position = "{729, 30}";
},
{
name = top;
position = "{568, 1284}";
},
{
name = top_case;
position = "{568, 1284}";
},
{
name = topright;
position = "{894, 974}";
}
);
layerId = "1D628CB9-BBF5-410A-9D74-9E6094BFE839";
paths = (
{
closed = 1;
nodes = (
"120 232 OFFCURVE",
"207 -10 OFFCURVE",
"568 -10 CURVE SMOOTH",
"929 -10 OFFCURVE",
"1016 232 OFFCURVE",
"1016 648 CURVE SMOOTH",
"1016 840 OFFCURVE",
"995 994 OFFCURVE",
"938 1104 CURVE",
"918 1070 LINE",
"1033 1111 OFFCURVE",
"1132 1170 OFFCURVE",
"1132 1291 CURVE SMOOTH",
"1132 1331 OFFCURVE",
"1125 1363 OFFCURVE",
"1115 1389 CURVE",
"983 1389 LINE",
"996 1361 OFFCURVE",
"1004 1330 OFFCURVE",
"1004 1299 CURVE SMOOTH",
"1004 1216 OFFCURVE",
"958 1173 OFFCURVE",
"874 1141 CURVE",
"923 1132 LINE",
"854 1242 OFFCURVE",
"742 1301 OFFCURVE",
"568 1301 CURVE SMOOTH",
"219 1301 OFFCURVE",
"120 1065 OFFCURVE",
"120 648 CURVE SMOOTH"
);
},
{
closed = 1;
nodes = (
"248 1030 OFFCURVE",
"321 1195 OFFCURVE",
"568 1195 CURVE SMOOTH",
"815 1195 OFFCURVE",
"888 1030 OFFCURVE",
"888 645 CURVE SMOOTH",
"888 264 OFFCURVE",
"818 96 OFFCURVE",
"568 96 CURVE SMOOTH",
"318 96 OFFCURVE",
"248 264 OFFCURVE",
"248 645 CURVE SMOOTH"
);
}
);
width = 1136;
},
{
anchors = (
{
name = _topright;
position = "{890, 974}";
},
{
name = bottom;
position = "{564, 0}";
},
{
name = ogonek;
position = "{725, 30}";
},
{
name = top;
position = "{564, 1284}";
},
{
name = top_case;
position = "{564, 1284}";
},
{
name = topright;
position = "{890, 974}";
}
);
associatedMasterId = "1D628CB9-BBF5-410A-9D74-9E6094BFE839";
layerId = "14DD0084-6660-4B70-A99D-CC78A7D99BE3";
name = "Regular Jul 25 16, 11:36";
paths = (
{
closed = 1;
nodes = (
"925 -10 OFFCURVE",
"1012 232 OFFCURVE",
"1012 648 CURVE SMOOTH",
"1012 1065 OFFCURVE",
"913 1301 OFFCURVE",
"564 1301 CURVE SMOOTH",
"215 1301 OFFCURVE",
"116 1065 OFFCURVE",
"116 648 CURVE SMOOTH",
"116 232 OFFCURVE",
"203 -10 OFFCURVE",
"564 -10 CURVE SMOOTH"
);
},
{
closed = 1;
nodes = (
"314 96 OFFCURVE",
"244 264 OFFCURVE",
"244 645 CURVE SMOOTH",
"244 1030 OFFCURVE",
"317 1195 OFFCURVE",
"564 1195 CURVE SMOOTH",
"811 1195 OFFCURVE",
"884 1030 OFFCURVE",
"884 645 CURVE SMOOTH",
"884 264 OFFCURVE",
"814 96 OFFCURVE",
"564 96 CURVE SMOOTH"
);
},
{
closed = 1;
nodes = (
"900 1066 LINE SMOOTH",
"1022 1107 OFFCURVE",
"1128 1166 OFFCURVE",
"1128 1291 CURVE SMOOTH",
"1128 1331 OFFCURVE",
"1121 1363 OFFCURVE",
"1111 1389 CURVE",
"979 1389 LINE",
"992 1361 OFFCURVE",
"1000 1330 OFFCURVE",
"1000 1299 CURVE SMOOTH",
"1000 1223 OFFCURVE",
"961 1180 OFFCURVE",
"890 1149 CURVE SMOOTH",
"855 1134 LINE",
"855 1051 LINE"
);
}
);
width = 1128;
},
{
layerId = "D42B5605-DB46-4B3B-8EA0-4CE7066523CE";
width = 600;
}
);
unicode = 01A0;
userData = {
com.schriftgestaltung.Glyphs.ColorIndex = 7;
};
},
{
glyphname = OE;
layers = (
{
anchors = (
{
name = bottom;
position = "{952, 0}";
},
{
name = top_case;
position = "{957, 1284}";
}
);
layerId = "1D628CB9-BBF5-410A-9D74-9E6094BFE839";
paths = (
{
closed = 1;
nodes = (
"1577 0 LINE",
"1561 104 LINE",
"1016 104 LINE",
"1016 626 LINE",
"1517 626 LINE",
"1517 722 LINE",
"1016 722 LINE",
"1016 1184 LINE",
"1551 1184 LINE",
"1573 1284 LINE",
"568 1284 LINE SMOOTH",
"219 1284 OFFCURVE",
"120 1065 OFFCURVE",
"120 648 CURVE SMOOTH",
"120 232 OFFCURVE",
"207 0 OFFCURVE",
"568 0 CURVE SMOOTH"
);
},
{
closed = 1;
nodes = (
"318 104 OFFCURVE",
"248 264 OFFCURVE",
"248 645 CURVE SMOOTH",
"248 1030 OFFCURVE",
"321 1184 OFFCURVE",
"568 1184 CURVE SMOOTH",
"889 1185 LINE",
"888 105 LINE",
"568 104 LINE SMOOTH"
);
}
);
width = 1664;
},
{
layerId = "D42B5605-DB46-4B3B-8EA0-4CE7066523CE";
width = 600;
}
);
unicode = 0152;
},
{
glyphname = P;
layers = (
{
anchors = (
{
name = bottom;
position = "{494, 0}";
},
{
name = top_case;
position = "{494, 1284}";
}
);
layerId = "1D628CB9-BBF5-410A-9D74-9E6094BFE839";
paths = (
{
closed = 1;
nodes = (
"280 0 LINE",
"280 536 LINE",
"457 536 LINE SMOOTH",
"722 536 OFFCURVE",
"920 597 OFFCURVE",
"920 905 CURVE SMOOTH",
"920 1200 OFFCURVE",
"760 1284 OFFCURVE",
"501 1284 CURVE SMOOTH",
"152 1284 LINE",
"152 0 LINE"
);
},
{
closed = 1;
nodes = (
"280 1228 LINE",
"235 1183 LINE",
"509 1183 LINE SMOOTH",
"697 1183 OFFCURVE",
"792 1127 OFFCURVE",
"792 903 CURVE SMOOTH",
"792 665 OFFCURVE",
"646 637 OFFCURVE",
"434 637 CURVE SMOOTH",
"235 637 LINE",
"280 592 LINE"
);
}
);
width = 987;
},
{
anchors = (
{
name = bottom;
position = "{716, 0}";
},
{
name = top_case;
position = "{536, 1334}";
}
);
layerId = "D42B5605-DB46-4B3B-8EA0-4CE7066523CE";
paths = (
{
closed = 1;
nodes = (
"420 0 LINE",
"420 426 LINE",
"537 426 LINE SMOOTH",
"850 426 OFFCURVE",
"1042 507 OFFCURVE",
"1042 855 CURVE SMOOTH",
"1042 1170 OFFCURVE",
"878 1284 OFFCURVE",
"618 1284 CURVE SMOOTH",
"92 1284 LINE",
"92 0 LINE"
);
},
{
closed = 1;
nodes = (
"420 1223 LINE",
"375 999 LINE",
"566 999 LINE SMOOTH",
"648 999 OFFCURVE",
"714 969 OFFCURVE",
"714 861 CURVE SMOOTH",
"714 726 OFFCURVE",
"645 711 OFFCURVE",
"509 711 CURVE SMOOTH",
"375 711 LINE",
"420 487 LINE"
);
}
);
width = 1098;
}
);
unicode = 0050;
},
{
glyphname = Thorn;
layers = (
{
layerId = "1D628CB9-BBF5-410A-9D74-9E6094BFE839";
paths = (
{
closed = 1;
nodes = (
"281 0 LINE",
"281 372 LINE",
"236 327 LINE",
"373 327 LINE SMOOTH",
"718 327 OFFCURVE",
"921 389 OFFCURVE",
"921 697 CURVE SMOOTH",
"921 992 OFFCURVE",
"730 1052 OFFCURVE",
"471 1052 CURVE SMOOTH",
"237 1052 LINE",
"282 1007 LINE",
"282 1284 LINE",
"153 1284 LINE",
"153 0 LINE"
);
},
{
closed = 1;
nodes = (
"281 997 LINE",
"236 952 LINE",
"479 952 LINE SMOOTH",
"667 952 OFFCURVE",
"793 919 OFFCURVE",
"793 695 CURVE SMOOTH",
"793 447 OFFCURVE",
"660 431 OFFCURVE",
"370 431 CURVE SMOOTH",
"236 431 LINE",
"281 386 LINE"
);
}
);
width = 989;
},
{
layerId = "D42B5605-DB46-4B3B-8EA0-4CE7066523CE";
width = 600;
}
);
unicode = 00DE;
},
{
glyphname = Q;
layers = (
{
anchors = (
{
name = bottom;
position = "{570, 0}";
},
{
name = top;
position = "{570, 1284}";
}
);
layerId = "1D628CB9-BBF5-410A-9D74-9E6094BFE839";
paths = (
{
closed = 1;
nodes = (
"929 -5 OFFCURVE",
"1016 237 OFFCURVE",
"1016 653 CURVE SMOOTH",
"1016 1070 OFFCURVE",
"917 1306 OFFCURVE",
"568 1306 CURVE SMOOTH",
"219 1306 OFFCURVE",
"120 1070 OFFCURVE",
"120 653 CURVE SMOOTH",
"120 237 OFFCURVE",
"207 -5 OFFCURVE",
"568 -5 CURVE SMOOTH"
);
},
{
closed = 1;
nodes = (
"1010 -94 LINE",
"888 55 OFFCURVE",
"780 206 OFFCURVE",
"684 361 CURVE",
"600 295 LINE",
"696 141 OFFCURVE",
"804 -11 OFFCURVE",
"926 -159 CURVE"
);
},
{
closed = 1;
nodes = (
"318 101 OFFCURVE",
"248 269 OFFCURVE",
"248 650 CURVE SMOOTH",
"248 1035 OFFCURVE",
"321 1200 OFFCURVE",
"568 1200 CURVE SMOOTH",
"815 1200 OFFCURVE",
"888 1035 OFFCURVE",
"888 650 CURVE SMOOTH",
"888 269 OFFCURVE",
"818 101 OFFCURVE",
"568 101 CURVE SMOOTH"
);
}
);
width = 1140;
},
{
anchors = (
{
name = bottom;
position = "{575, 0}";
},
{
name = top;
position = "{575, 1284}";
}
);
layerId = "D42B5605-DB46-4B3B-8EA0-4CE7066523CE";
paths = (
{
closed = 1;
nodes = (
"940 -10 OFFCURVE",
"1122 162 OFFCURVE",
"1122 648 CURVE SMOOTH",
"1122 1135 OFFCURVE",
"928 1301 OFFCURVE",
"589 1301 CURVE SMOOTH",
"250 1301 OFFCURVE",
"56 1135 OFFCURVE",
"56 648 CURVE SMOOTH",
"56 162 OFFCURVE",
"238 -10 OFFCURVE",
"589 -10 CURVE SMOOTH"
);
},
{
closed = 1;
nodes = (
"439 275 OFFCURVE",
"384 364 OFFCURVE",
"384 645 CURVE SMOOTH",
"384 931 OFFCURVE",
"442 1016 OFFCURVE",
"589 1016 CURVE SMOOTH",
"736 1016 OFFCURVE",
"794 931 OFFCURVE",
"794 645 CURVE SMOOTH",
"794 364 OFFCURVE",
"739 275 OFFCURVE",
"589 275 CURVE SMOOTH"
);
},
{
closed = 1;
nodes = (
"940 178 OFFCURVE",
"835 336 OFFCURVE",
"704 529 CURVE",
"506 384 LINE",
"620 220 OFFCURVE",
"758 18 OFFCURVE",
"908 -156 CURVE",
"1099 3 LINE"
);
}
);
width = 1178;
}
);
unicode = 0051;
},
{
glyphname = R;
layers = (
{
anchors = (
{
name = bottom;
position = "{501, 0}";
},
{
name = top_case;
position = "{501, 1284}";
}
);
guideLines = (
{
position = "{817, -25}";
},
{
position = "{775, 43}";
}
);
layerId = "1D628CB9-BBF5-410A-9D74-9E6094BFE839";
paths = (
{
closed = 1;
nodes = (
"978 43 LINE",
"862 235 OFFCURVE",
"756 425 OFFCURVE",
"660 617 CURVE",
"639 584 LINE",
"827 617 OFFCURVE",
"921 709 OFFCURVE",
"921 922 CURVE SMOOTH",
"921 1238 OFFCURVE",
"747 1284 OFFCURVE",
"406 1284 CURVE SMOOTH",
"153 1284 LINE",
"153 0 LINE",
"281 0 LINE",
"281 612 LINE",
"236 567 LINE",
"474 567 LINE SMOOTH",
"496 567 OFFCURVE",
"560 570 OFFCURVE",
"611 578 CURVE",
"545 597 LINE",
"624 408 OFFCURVE",
"782 128 OFFCURVE",
"875 -25 CURVE"
);
},
{
closed = 1;
nodes = (
"281 1223 LINE",
"236 1178 LINE",
"400 1178 LINE SMOOTH",
"660 1178 OFFCURVE",
"793 1166 OFFCURVE",
"793 920 CURVE SMOOTH",
"793 751 OFFCURVE",
"726 673 OFFCURVE",
"465 673 CURVE SMOOTH",
"236 673 LINE",
"281 628 LINE"
);
}
);
width = 1061;
},
{
anchors = (
{
name = bottom;
position = "{546, 0}";
},
{
name = top_case;
position = "{546, 1284}";
}
);
layerId = "D42B5605-DB46-4B3B-8EA0-4CE7066523CE";
paths = (
{
closed = 1;
nodes = (
"998 294 OFFCURVE",
"900 447 OFFCURVE",
"857 546 CURVE",
"814 499 LINE",
"963 559 OFFCURVE",
"1042 661 OFFCURVE",
"1042 870 CURVE SMOOTH",
"1042 1170 OFFCURVE",
"878 1284 OFFCURVE",
"618 1284 CURVE SMOOTH",
"92 1284 LINE",
"92 0 LINE",
"420 0 LINE",
"420 551 LINE",
"325 456 LINE",
"635 456 LINE",
"530 479 LINE",
"592 336 OFFCURVE",
"727 73 OFFCURVE",
"793 -39 CURVE",
"1090 138 LINE"
);
},
{
closed = 1;
nodes = (
"325 741 LINE",
"420 646 LINE",
"420 1094 LINE",
"325 999 LINE",
"566 999 LINE SMOOTH",
"648 999 OFFCURVE",
"714 969 OFFCURVE",
"714 876 CURVE SMOOTH",
"714 756 OFFCURVE",
"645 741 OFFCURVE",
"509 741 CURVE SMOOTH"
);
}
);
width = 1106;
}
);
unicode = 0052;
},
{
glyphname = S;
layers = (
{
anchors = (
{
name = bottom;
position = "{478, 0}";
},
{
name = cedilla;
position = "{453, 0}";
},
{
name = top_case;
position = "{500, 1284}";
}
);
layerId = "1D628CB9-BBF5-410A-9D74-9E6094BFE839";
paths = (
{
closed = 1;
nodes = (
"717 -10 OFFCURVE",
"877 117 OFFCURVE",
"877 353 CURVE SMOOTH",
"877 603 OFFCURVE",
"698 661 OFFCURVE",
"535 720 CURVE SMOOTH",
"421 761 LINE SMOOTH",
"279 812 OFFCURVE",
"237 867 OFFCURVE",
"237 972 CURVE SMOOTH",
"237 1143 OFFCURVE",
"338 1195 OFFCURVE",
"518 1195 CURVE SMOOTH",
"645 1195 OFFCURVE",
"763 1158 OFFCURVE",
"822 1136 CURVE",
"846 1239 LINE",
"737 1284 OFFCURVE",
"619 1301 OFFCURVE",
"501 1301 CURVE SMOOTH",
"286 1301 OFFCURVE",
"109 1213 OFFCURVE",
"109 969 CURVE SMOOTH",
"109 786 OFFCURVE",
"213 700 OFFCURVE",
"380 644 CURVE SMOOTH",
"503 603 LINE SMOOTH",
"664 549 OFFCURVE",
"749 495 OFFCURVE",
"749 355 CURVE SMOOTH",
"749 175 OFFCURVE",
"634 96 OFFCURVE",
"475 96 CURVE SMOOTH",
"314 96 OFFCURVE",
"213 140 OFFCURVE",
"137 173 CURVE",
"109 68 LINE",
"220 18 OFFCURVE",
"349 -10 OFFCURVE",
"475 -10 CURVE SMOOTH"
);
}
);
width = 955;
},
{
anchors = (
{
name = bottom;
position = "{488, -50}";
},
{
name = cedilla;
position = "{463, 0}";
},
{
name = top_case;
position = "{510, 1334}";
}
);
guideLines = (
{
angle = 251.7901;
position = "{2937, 1360}";
}
);
layerId = "D42B5605-DB46-4B3B-8EA0-4CE7066523CE";
paths = (
{
closed = 1;
nodes = (
"778 -10 OFFCURVE",
"950 93 OFFCURVE",
"950 389 CURVE SMOOTH",
"950 599 OFFCURVE",
"861 702 OFFCURVE",
"621 788 CURVE SMOOTH",
"507 829 LINE SMOOTH",
"422 860 OFFCURVE",
"387 881 OFFCURVE",
"387 924 CURVE SMOOTH",
"387 989 OFFCURVE",
"413 1016 OFFCURVE",
"542 1016 CURVE SMOOTH",
"624 1016 OFFCURVE",
"732 1001 OFFCURVE",
"849 961 CURVE",
"916 1236 LINE",
"764 1296 OFFCURVE",
"584 1301 OFFCURVE",
"500 1301 CURVE SMOOTH",
"225 1301 OFFCURVE",
"59 1184 OFFCURVE",
"59 929 CURVE SMOOTH",
"59 740 OFFCURVE",
"112 633 OFFCURVE",
"355 551 CURVE SMOOTH",
"456 517 LINE SMOOTH",
"564 481 OFFCURVE",
"622 447 OFFCURVE",
"622 384 CURVE SMOOTH",
"622 319 OFFCURVE",
"592 275 OFFCURVE",
"485 275 CURVE SMOOTH",
"355 275 OFFCURVE",
"216 318 OFFCURVE",
"122 360 CURVE",
"49 88 LINE",
"172 34 OFFCURVE",
"314 -10 OFFCURVE",
"518 -10 CURVE SMOOTH"
);
}
);
width = 994;
}
);
unicode = 0053;
},
{
glyphname = Germandbls;
layers = (
{
layerId = "1D628CB9-BBF5-410A-9D74-9E6094BFE839";
paths = (
{
closed = 1;
nodes = (
"895 -10 OFFCURVE",
"1050 130 OFFCURVE",
"1050 347 CURVE SMOOTH",
"1050 592 OFFCURVE",
"849 735 OFFCURVE",
"549 735 CURVE",
"557 680 LINE",
"960 1080 LINE",
"960 1182 LINE",
"861 1253 OFFCURVE",
"727 1301 OFFCURVE",
"591 1301 CURVE SMOOTH",
"294 1301 OFFCURVE",
"153 1142 OFFCURVE",
"153 822 CURVE SMOOTH",
"153 0 LINE",
"281 0 LINE",
"281 811 LINE SMOOTH",
"281 1071 OFFCURVE",
"367 1195 OFFCURVE",
"587 1195 CURVE SMOOTH",
"702 1195 OFFCURVE",
"798 1161 OFFCURVE",
"881 1109 CURVE",
"881 1161 LINE",
"461 735 LINE",
"461 624 LINE",
"540 624 LINE SMOOTH",
"781 624 OFFCURVE",
"922 531 OFFCURVE",
"922 347 CURVE SMOOTH",
"922 189 OFFCURVE",
"828 95 OFFCURVE",
"671 95 CURVE SMOOTH",
"591 95 OFFCURVE",
"506 122 OFFCURVE",
"438 156 CURVE",
"400 66 LINE",
"485 18 OFFCURVE",
"584 -10 OFFCURVE",
"683 -10 CURVE SMOOTH"
);
}
);
width = 1114;
},
{
layerId = "D42B5605-DB46-4B3B-8EA0-4CE7066523CE";
paths = (
{
closed = 1;
nodes = (
"1252 -10 OFFCURVE",
"1396 130 OFFCURVE",
"1396 347 CURVE SMOOTH",
"1396 644 OFFCURVE",
"1198 735 OFFCURVE",
"745 735 CURVE",
"841 569 LINE",
"1306 880 LINE",
"1306 1182 LINE",
"1099 1253 OFFCURVE",
"945 1301 OFFCURVE",
"677 1301 CURVE SMOOTH",
"380 1301 OFFCURVE",
"179 1175 OFFCURVE",
"179 822 CURVE SMOOTH",
"179 0 LINE",
"507 0 LINE",
"507 811 LINE SMOOTH",
"507 937 OFFCURVE",
"573 995 OFFCURVE",
"759 995 CURVE SMOOTH",
"874 995 OFFCURVE",
"944 961 OFFCURVE",
"1027 909 CURVE",
"1027 1061 LINE",
"657 735 LINE",
"657 454 LINE",
"781 444 LINE SMOOTH",
"954 430 OFFCURVE",
"1068 441 OFFCURVE",
"1068 357 CURVE SMOOTH",
"1068 289 OFFCURVE",
"971 295 OFFCURVE",
"914 295 CURVE SMOOTH",
"799 295 OFFCURVE",
"702 322 OFFCURVE",
"634 356 CURVE",
"596 66 LINE",
"681 18 OFFCURVE",
"868 -10 OFFCURVE",
"967 -10 CURVE SMOOTH"
);
}
);
width = 1506;
}
);
unicode = 1E9E;
},
{
glyphname = Schwa;
layers = (
{
layerId = "1D628CB9-BBF5-410A-9D74-9E6094BFE839";
paths = (
{
closed = 1;
nodes = (
"399 1308 OFFCURVE",
"255 1274 OFFCURVE",
"140 1197 CURVE",
"190 1096 LINE",
"301 1172 OFFCURVE",
"404 1202 OFFCURVE",
"522 1202 CURVE SMOOTH",
"758 1202 OFFCURVE",
"880 1029 OFFCURVE",
"891 684 CURVE",
"130 684 LINE",
"124 629 OFFCURVE",
"120 557 OFFCURVE",
"120 507 CURVE SMOOTH",
"120 165 OFFCURVE",
"272 -10 OFFCURVE",
"562 -10 CURVE SMOOTH",
"862 -10 OFFCURVE",
"1020 201 OFFCURVE",
"1020 632 CURVE SMOOTH",
"1020 1086 OFFCURVE",
"853 1308 OFFCURVE",
"513 1308 CURVE SMOOTH"
);
},
{
closed = 1;
nodes = (
"323 96 OFFCURVE",
"244 234 OFFCURVE",
"244 583 CURVE",
"891 583 LINE",
"883 256 OFFCURVE",
"777 96 OFFCURVE",
"562 96 CURVE SMOOTH"
);
}
);
width = 1140;
},
{
associatedMasterId = "1D628CB9-BBF5-410A-9D74-9E6094BFE839";
layerId = "43E52C2D-3EEE-49AE-BEA2-65001AC44158";
name = "Regular Jul 6 16, 10:41";
paths = (
{
closed = 1;
nodes = (
"542 1200 CURVE SMOOTH",
"412 1200 OFFCURVE",
"298 1173 OFFCURVE",
"176 1096 CURVE",
"126 1197 LINE",
"251 1274 OFFCURVE",
"409 1308 OFFCURVE",
"533 1308 CURVE SMOOTH",
"869 1308 OFFCURVE",
"1087 1120 OFFCURVE",
"1087 649 CURVE SMOOTH",
"1087 195 OFFCURVE",
"870 -10 OFFCURVE",
"566 -10 CURVE SMOOTH",
"276 -10 OFFCURVE",
"102 198 OFFCURVE",
"102 507 CURVE SMOOTH",
"102 547 OFFCURVE",
"106 607 OFFCURVE",
"112 684 CURVE",
"920 684 LINE",
"915 1109 OFFCURVE",
"733 1200 OFFCURVE"
);
},
{
closed = 1;
nodes = (
"565 127 CURVE SMOOTH",
"791 127 OFFCURVE",
"900 296 OFFCURVE",
"920 566 CURVE",
"258 566 LINE",
"258 501 LINE SMOOTH",
"258 274 OFFCURVE",
"375 127 OFFCURVE"
);
}
);
width = 1203;
},
{
layerId = "D42B5605-DB46-4B3B-8EA0-4CE7066523CE";
width = 600;
}
);
unicode = 018F;
userData = {
com.schriftgestaltung.Glyphs.leftMetricsKey = "=O";
com.schriftgestaltung.Glyphs.rightMetricsKey = "=O";
com.typemytype.robofont.layerData = {
"Regular Jul 6 16, 10:41" = {
anchors = (
);
components = (
);
contours = (
{
points = (
{
segmentType = curve;
smooth = 1;
x = 542;
y = 1200;
},
{
smooth = 0;
x = 412;
y = 1200;
},
{
smooth = 0;
x = 298;
y = 1173;
},
{
segmentType = curve;
smooth = 0;
x = 176;
y = 1096;
},
{
segmentType = line;
smooth = 0;
x = 126;
y = 1197;
},
{
smooth = 0;
x = 251;
y = 1274;
},
{
smooth = 0;
x = 409;
y = 1308;
},
{
segmentType = curve;
smooth = 1;
x = 533;
y = 1308;
},
{
smooth = 0;
x = 869;
y = 1308;
},
{
smooth = 0;
x = 1087;
y = 1120;
},
{
segmentType = curve;
smooth = 1;
x = 1087;
y = 649;
},
{
smooth = 0;
x = 1087;
y = 195;
},
{
smooth = 0;
x = 870;
y = -10;
},
{
segmentType = curve;
smooth = 1;
x = 566;
y = -10;
},
{
smooth = 0;
x = 276;
y = -10;
},
{
smooth = 0;
x = 102;
y = 198;
},
{
segmentType = curve;
smooth = 1;
x = 102;
y = 507;
},
{
smooth = 0;
x = 102;
y = 547;
},
{
smooth = 0;
x = 106;
y = 607;
},
{
segmentType = curve;
smooth = 0;
x = 112;
y = 684;
},
{
segmentType = line;
smooth = 0;
x = 920;
y = 684;
},
{
smooth = 0;
x = 915;
y = 1109;
},
{
smooth = 0;
x = 733;
y = 1200;
}
);
},
{
points = (
{
segmentType = curve;
smooth = 1;
x = 565;
y = 127;
},
{
smooth = 0;
x = 791;
y = 127;
},
{
smooth = 0;
x = 900;
y = 296;
},
{
segmentType = curve;
smooth = 0;
x = 920;
y = 566;
},
{
segmentType = line;
smooth = 0;
x = 258;
y = 566;
},
{
segmentType = line;
smooth = 1;
x = 258;
y = 501;
},
{
smooth = 0;
x = 258;
y = 274;
},
{
smooth = 0;
x = 375;
y = 127;
}
);
}
);
lib = {
};
name = Schwa;
unicodes = (
);
width = 1203;
};
};
};
},
{
glyphname = T;
layers = (
{
anchors = (
{
name = " cedilla";
position = "{447, 0}";
},
{
name = bottom;
position = "{447, 0}";
},
{
name = top_case;
position = "{460, 1284}";
}
);
layerId = "1D628CB9-BBF5-410A-9D74-9E6094BFE839";
paths = (
{
closed = 1;
nodes = (
"511 0 LINE",
"511 1223 LINE",
"466 1178 LINE",
"860 1178 LINE",
"860 1284 LINE",
"39 1284 LINE",
"39 1178 LINE",
"428 1178 LINE",
"383 1223 LINE",
"383 0 LINE"
);
}
);
width = 899;
},
{
anchors = (
{
name = " cedilla";
position = "{535, 0}";
},
{
name = bottom;
position = "{533, -50}";
},
{
name = top_case;
position = "{538, 1334}";
}
);
layerId = "D42B5605-DB46-4B3B-8EA0-4CE7066523CE";
paths = (
{
closed = 1;
nodes = (
"699 0 LINE",
"699 1223 LINE",
"554 999 LINE",
"1033 999 LINE",
"1033 1284 LINE",
"37 1284 LINE",
"37 999 LINE",
"516 999 LINE",
"371 1223 LINE",
"371 0 LINE"
);
}
);
width = 1070;
}
);
unicode = 0054;
},
{
glyphname = Tbar;
layers = (
{
layerId = "1D628CB9-BBF5-410A-9D74-9E6094BFE839";
paths = (
{
closed = 1;
nodes = (
"511 0 LINE",
"511 609 LINE",
"720 609 LINE",
"720 715 LINE",
"511 715 LINE",
"511 1178 LINE",
"860 1178 LINE",
"860 1284 LINE",
"39 1284 LINE",
"39 1178 LINE",
"383 1178 LINE",
"383 715 LINE",
"170 715 LINE",
"170 609 LINE",
"383 609 LINE",
"383 0 LINE"
);
}
);
width = 899;
},
{
layerId = "D42B5605-DB46-4B3B-8EA0-4CE7066523CE";
width = 600;
}
);
unicode = 0166;
},
{
glyphname = U;
layers = (
{
anchors = (
{
name = bottom;
position = "{544, 0}";
},
{
name = ogonek;
position = "{725, 30}";
},
{
name = top;
position = "{544, 1284}";
},
{
name = top_case;
position = "{544, 1284}";
},
{
name = topright;
position = "{960, 974}";
}
);
layerId = "1D628CB9-BBF5-410A-9D74-9E6094BFE839";
paths = (
{
closed = 1;
nodes = (
"930 -16 OFFCURVE",
"960 224 OFFCURVE",
"960 635 CURVE SMOOTH",
"960 1284 LINE",
"832 1284 LINE",
"832 540 LINE SMOOTH",
"832 263 OFFCURVE",
"817 90 OFFCURVE",
"544 90 CURVE SMOOTH",
"271 90 OFFCURVE",
"256 263 OFFCURVE",
"256 540 CURVE SMOOTH",
"256 1284 LINE",
"128 1284 LINE",
"128 635 LINE SMOOTH",
"128 224 OFFCURVE",
"158 -16 OFFCURVE",
"544 -16 CURVE SMOOTH"
);
}
);
width = 1088;
},
{
anchors = (
{
name = bottom;
position = "{611, -50}";
},
{
name = ogonek;
position = "{792, 30}";
},
{
name = top;
position = "{599, 1334}";
},
{
name = top_case;
position = "{609, 1284}";
}
);
guideLines = (
{
angle = 270;
position = "{609, 645}";
}
);
layerId = "D42B5605-DB46-4B3B-8EA0-4CE7066523CE";
paths = (
{
closed = 1;
nodes = (
"992 -10 OFFCURVE",
"1139 172 OFFCURVE",
"1139 588 CURVE SMOOTH",
"1139 1284 LINE",
"811 1284 LINE",
"811 585 LINE SMOOTH",
"811 364 OFFCURVE",
"781 275 OFFCURVE",
"611 275 CURVE SMOOTH",
"441 275 OFFCURVE",
"411 364 OFFCURVE",
"411 585 CURVE SMOOTH",
"411 1284 LINE",
"83 1284 LINE",
"83 588 LINE SMOOTH",
"83 172 OFFCURVE",
"230 -10 OFFCURVE",
"611 -10 CURVE SMOOTH"
);
}
);
width = 1222;
}
);
unicode = 0055;
},
{
glyphname = Uhorn;
layers = (
{
anchors = (
{
name = bottom;
position = "{544, 0}";
},
{
name = ogonek;
position = "{725, 30}";
},
{
name = top;
position = "{544, 1284}";
},
{
name = top_case;
position = "{544, 1284}";
}
);
layerId = "1D628CB9-BBF5-410A-9D74-9E6094BFE839";
paths = (
{
closed = 1;
nodes = (
"128 224 OFFCURVE",
"158 -16 OFFCURVE",
"544 -16 CURVE SMOOTH",
"930 -16 OFFCURVE",
"960 224 OFFCURVE",
"960 635 CURVE SMOOTH",
"960 1093 LINE",
"917 1048 LINE",
"970 1066 LINE SMOOTH",
"1092 1107 OFFCURVE",
"1198 1166 OFFCURVE",
"1198 1291 CURVE SMOOTH",
"1198 1331 OFFCURVE",
"1191 1363 OFFCURVE",
"1181 1389 CURVE",
"1049 1389 LINE",
"1062 1361 OFFCURVE",
"1070 1330 OFFCURVE",
"1070 1299 CURVE SMOOTH",
"1070 1212 OFFCURVE",
"1018 1168 OFFCURVE",
"926 1136 CURVE",
"960 1121 LINE",
"960 1284 LINE",
"832 1284 LINE",
"832 540 LINE SMOOTH",
"832 263 OFFCURVE",
"817 96 OFFCURVE",
"544 96 CURVE SMOOTH",
"271 96 OFFCURVE",
"256 263 OFFCURVE",
"256 540 CURVE SMOOTH",
"256 1284 LINE",
"128 1284 LINE",
"128 635 LINE SMOOTH"
);
}
);
width = 1152;
},
{
anchors = (
{
name = _topright;
position = "{956, 974}";
},
{
name = bottom;
position = "{540, 0}";
},
{
name = ogonek;
position = "{721, 30}";
},
{
name = top_case;
position = "{540, 1284}";
},
{
name = topright;
position = "{956, 974}";
}
);
associatedMasterId = "1D628CB9-BBF5-410A-9D74-9E6094BFE839";
layerId = "F9DD0791-68B1-45D6-AA01-62C5055AAAB5";
name = "Regular Jul 25 16, 11:38";
paths = (
{
closed = 1;
nodes = (
"926 -16 OFFCURVE",
"956 224 OFFCURVE",
"956 635 CURVE SMOOTH",
"956 1284 LINE",
"828 1284 LINE",
"828 540 LINE SMOOTH",
"828 263 OFFCURVE",
"813 96 OFFCURVE",
"540 96 CURVE SMOOTH",
"267 96 OFFCURVE",
"252 263 OFFCURVE",
"252 540 CURVE SMOOTH",
"252 1284 LINE",
"124 1284 LINE",
"124 635 LINE SMOOTH",
"124 224 OFFCURVE",
"154 -16 OFFCURVE",
"540 -16 CURVE SMOOTH"
);
},
{
closed = 1;
nodes = (
"966 1066 LINE SMOOTH",
"1088 1107 OFFCURVE",
"1194 1166 OFFCURVE",
"1194 1291 CURVE SMOOTH",
"1194 1331 OFFCURVE",
"1187 1363 OFFCURVE",
"1177 1389 CURVE",
"1045 1389 LINE",
"1058 1361 OFFCURVE",
"1066 1330 OFFCURVE",
"1066 1299 CURVE SMOOTH",
"1066 1223 OFFCURVE",
"1027 1180 OFFCURVE",
"956 1149 CURVE SMOOTH",
"921 1134 LINE",
"921 1051 LINE"
);
}
);
width = 1080;
},
{
layerId = "D42B5605-DB46-4B3B-8EA0-4CE7066523CE";
width = 600;
}
);
unicode = 01AF;
userData = {
com.schriftgestaltung.Glyphs.ColorIndex = 7;
};
},
{
glyphname = V;
layers = (
{
anchors = (
{
name = bottom;
position = "{508, 0}";
},
{
name = top;
position = "{508, 1284}";
}
);
layerId = "1D628CB9-BBF5-410A-9D74-9E6094BFE839";
paths = (
{
closed = 1;
nodes = (
"587 0 LINE",
"956 1285 LINE",
"824 1285 LINE",
"501 109 LINE",
"515 109 LINE",
"192 1285 LINE",
"60 1285 LINE",
"429 0 LINE"
);
}
);
width = 1016;
},
{
anchors = (
{
name = bottom;
position = "{611, 0}";
},
{
name = top;
position = "{611, 1284}";
}
);
layerId = "D42B5605-DB46-4B3B-8EA0-4CE7066523CE";
paths = (
{
closed = 1;
nodes = (
"803 0 LINE",
"1199 1284 LINE",
"857 1284 LINE",
"531 115 LINE",
"688 115 LINE",
"357 1285 LINE",
"15 1284 LINE",
"415 0 LINE"
);
}
);
width = 1214;
}
);
unicode = 0056;
},
{
glyphname = W;
layers = (
{
anchors = (
{
name = bottom;
position = "{673, 0}";
},
{
name = top_case;
position = "{673, 1284}";
}
);
layerId = "1D628CB9-BBF5-410A-9D74-9E6094BFE839";
paths = (
{
closed = 1;
nodes = (
"431 0 LINE",
"700 744 LINE",
"669 744 LINE",
"947 0 LINE",
"1089 0 LINE",
"1209 1284 LINE",
"1091 1284 LINE",
"981 138 LINE",
"1000 141 LINE",
"742 846 LINE",
"627 846 LINE",
"379 143 LINE",
"399 140 LINE",
"279 1284 LINE",
"161 1284 LINE",
"290 0 LINE"
);
}
);
width = 1345;
},
{
anchors = (
{
name = bottom;
position = "{754, 0}";
},
{
name = top_case;
position = "{784, 1284}";
}
);
layerId = "D42B5605-DB46-4B3B-8EA0-4CE7066523CE";
paths = (
{
closed = 1;
nodes = (
"200 0 LINE",
"561 0 LINE",
"847 718 LINE",
"712 718 LINE",
"997 0 LINE",
"1359 0 LINE",
"1478 1284 LINE",
"1150 1284 LINE",
"1071 138 LINE",
"1220 141 LINE",
"917 976 LINE",
"642 976 LINE",
"339 143 LINE",
"489 140 LINE",
"410 1284 LINE",
"82 1284 LINE"
);
}
);
width = 1560;
}
);
unicode = 0057;
},
{
glyphname = X;
layers = (
{
anchors = (
{
name = bottom;
position = "{474, 0}";
},
{
name = top;
position = "{474, 1284}";
}
);
guideLines = (
{
angle = 270;
position = "{476, 837}";
}
);
layerId = "1D628CB9-BBF5-410A-9D74-9E6094BFE839";
paths = (
{
closed = 1;
nodes = (
"186 0 LINE",
"497 609 LINE",
"456 609 LINE",
"761 0 LINE",
"899 0 LINE",
"538 697 LINE",
"539 617 LINE",
"873 1284 LINE",
"735 1284 LINE",
"456 705 LINE",
"496 705 LINE",
"211 1284 LINE",
"73 1284 LINE",
"406 618 LINE",
"407 698 LINE",
"48 0 LINE"
);
}
);
width = 947;
},
{
anchors = (
{
name = bottom;
position = "{561, 0}";
},
{
name = top;
position = "{561, 1284}";
}
);
guideLines = (
{
angle = 243.332;
position = "{904, 951}";
},
{
angle = -62.1423;
position = "{217, 951}";
},
{
angle = -61.3377;
position = "{936, 349}";
},
{
angle = 242.1367;
position = "{200, 349}";
}
);
layerId = "D42B5605-DB46-4B3B-8EA0-4CE7066523CE";
paths = (
{
closed = 1;
nodes = (
"355 0 LINE",
"667 609 LINE",
"470 609 LINE",
"786 0 LINE",
"1126 0 LINE",
"745 697 LINE",
"736 617 LINE",
"1071 1284 LINE",
"731 1284 LINE",
"460 705 LINE",
"676 705 LINE",
"381 1284 LINE",
"41 1284 LINE",
"393 618 LINE",
"384 698 LINE",
"15 0 LINE"
);
}
);
width = 1141;
}
);
unicode = 0058;
},
{
glyphname = Y;
layers = (
{
anchors = (
{
name = bottom;
position = "{457, 0}";
},
{
name = top;
position = "{455, 1284}";
},
{
name = top_case;
position = "{455, 1284}";
},
{
name = topleft;
position = "{14, 1284}";
}
);
layerId = "1D628CB9-BBF5-410A-9D74-9E6094BFE839";
paths = (
{
closed = 1;
nodes = (
"521 0 LINE",
"521 588 LINE",
"895 1284 LINE",
"749 1284 LINE",
"437 664 LINE",
"477 664 LINE",
"161 1284 LINE",
"19 1284 LINE",
"393 586 LINE",
"393 0 LINE"
);
}
);
width = 914;
},
{
anchors = (
{
name = bottom;
position = "{554, -50}";
},
{
name = top;
position = "{552, 1334}";
},
{
name = top_case;
position = "{551, 1284}";
},
{
name = topleft;
position = "{10, 1284}";
}
);
layerId = "D42B5605-DB46-4B3B-8EA0-4CE7066523CE";
paths = (
{
closed = 1;
nodes = (
"717 0 LINE",
"717 513 LINE",
"1091 1284 LINE",
"759 1284 LINE",
"510 690 LINE",
"597 690 LINE",
"345 1284 LINE",
"15 1284 LINE",
"389 511 LINE",
"389 0 LINE"
);
}
);
width = 1106;
}
);
unicode = 0059;
},
{
glyphname = Z;
layers = (
{
anchors = (
{
name = bottom;
position = "{468, 0}";
},
{
name = top_case;
position = "{468, 1284}";
}
);
guideLines = (
{
angle = 270;
position = "{845, 598}";
},
{
angle = 270;
position = "{108, 633}";
}
);
layerId = "1D628CB9-BBF5-410A-9D74-9E6094BFE839";
paths = (
{
closed = 1;
nodes = (
"845 0 LINE",
"845 101 LINE",
"201 101 LINE",
"229 60 LINE",
"824 1176 LINE",
"808 1284 LINE",
"139 1284 LINE",
"139 1183 LINE",
"732 1183 LINE",
"704 1224 LINE",
"108 98 LINE",
"129 0 LINE"
);
}
);
width = 935;
},
{
anchors = (
{
name = bottom;
position = "{508, -50}";
},
{
name = top_case;
position = "{508, 1334}";
}
);
guideLines = (
{
angle = -83.9217;
position = "{922, 1475}";
},
{
angle = -83.9217;
position = "{-28, 912}";
},
{
angle = 270;
position = "{985, 598}";
},
{
angle = 270;
position = "{48, 487}";
},
{
angle = 180;
position = "{421, 999}";
}
);
layerId = "D42B5605-DB46-4B3B-8EA0-4CE7066523CE";
paths = (
{
closed = 1;
nodes = (
"985 0 LINE",
"985 285 LINE",
"251 285 LINE",
"414 179 LINE",
"968 1046 LINE",
"942 1284 LINE",
"79 1284 LINE",
"79 999 LINE",
"762 999 LINE",
"603 1110 LINE",
"45 228 LINE",
"69 0 LINE"
);
}
);
width = 1023;
}
);
unicode = 005A;
},
{
glyphname = K.001;
layers = (
{
anchors = (
{
name = bottom;
position = "{520, 0}";
},
{
name = top;
position = "{520, 1284}";
}
);
guideLines = (
{
angle = 270;
position = "{1005, 637}";
}
);
layerId = "1D628CB9-BBF5-410A-9D74-9E6094BFE839";
paths = (
{
closed = 1;
nodes = (
"281 0 LINE",
"281 480 LINE",
"457 652 LINE",
"864 0 LINE",
"1005 0 LINE",
"554 721 LINE",
"979 1284 LINE",
"829 1284 LINE",
"436 778 LINE",
"281 609 LINE",
"281 1284 LINE",
"153 1284 LINE",
"153 0 LINE"
);
}
);
width = 1040;
},
{
guideLines = (
{
angle = 270;
position = "{1199, 520}";
},
{
angle = 121.1332;
position = "{1356, -182}";
}
);
layerId = "D42B5605-DB46-4B3B-8EA0-4CE7066523CE";
paths = (
{
closed = 1;
nodes = (
"420 0 LINE",
"420 505 LINE",
"333 347 LINE",
"608 561 LINE",
"522 584 LINE",
"795 0 LINE",
"1199 0 LINE",
"768 796 LINE",
"757 662 LINE",
"1172 1284 LINE",
"800 1284 LINE",
"517 855 LINE",
"304 633 LINE",
"420 624 LINE",
"420 1284 LINE",
"92 1284 LINE",
"92 0 LINE"
);
}
);
width = 1304;
}
);
userData = {
com.fontlab.hintData = {
hhints = (
{
position = 0;
width = 21;
},
{
position = 1264;
width = 20;
}
);
vhints = (
{
position = 149;
width = 128;
}
);
};
};
},
{
glyphname = Q.001;
layers = (
{
anchors = (
{
name = bottom;
position = "{570, 0}";
},
{
name = top;
position = "{570, 1284}";
}
);
layerId = "1D628CB9-BBF5-410A-9D74-9E6094BFE839";
paths = (
{
closed = 1;
nodes = (
"929 -5 OFFCURVE",
"1016 237 OFFCURVE",
"1016 653 CURVE SMOOTH",
"1016 1070 OFFCURVE",
"917 1306 OFFCURVE",
"568 1306 CURVE SMOOTH",
"219 1306 OFFCURVE",
"120 1070 OFFCURVE",
"120 653 CURVE SMOOTH",
"120 237 OFFCURVE",
"207 -5 OFFCURVE",
"568 -5 CURVE SMOOTH"
);
},
{
closed = 1;
nodes = (
"980 -94 LINE",
"684 361 LINE",
"600 295 LINE",
"896 -159 LINE"
);
},
{
closed = 1;
nodes = (
"318 101 OFFCURVE",
"248 269 OFFCURVE",
"248 650 CURVE SMOOTH",
"248 1035 OFFCURVE",
"321 1200 OFFCURVE",
"568 1200 CURVE SMOOTH",
"815 1200 OFFCURVE",
"888 1035 OFFCURVE",
"888 650 CURVE SMOOTH",
"888 269 OFFCURVE",
"818 101 OFFCURVE",
"568 101 CURVE SMOOTH"
);
}
);
width = 1140;
},
{
layerId = "D42B5605-DB46-4B3B-8EA0-4CE7066523CE";
paths = (
{
closed = 1;
nodes = (
"940 -10 OFFCURVE",
"1122 162 OFFCURVE",
"1122 648 CURVE SMOOTH",
"1122 1135 OFFCURVE",
"928 1301 OFFCURVE",
"589 1301 CURVE SMOOTH",
"250 1301 OFFCURVE",
"56 1135 OFFCURVE",
"56 648 CURVE SMOOTH",
"56 162 OFFCURVE",
"238 -10 OFFCURVE",
"589 -10 CURVE SMOOTH"
);
},
{
closed = 1;
nodes = (
"439 275 OFFCURVE",
"384 364 OFFCURVE",
"384 645 CURVE SMOOTH",
"384 931 OFFCURVE",
"442 1016 OFFCURVE",
"589 1016 CURVE SMOOTH",
"736 1016 OFFCURVE",
"794 931 OFFCURVE",
"794 645 CURVE SMOOTH",
"794 364 OFFCURVE",
"739 275 OFFCURVE",
"589 275 CURVE SMOOTH"
);
},
{
closed = 1;
nodes = (
"698 538 LINE",
"500 393 LINE",
"881 -166 LINE",
"1072 -7 LINE"
);
}
);
width = 1178;
}
);
},
{
glyphname = R.001;
layers = (
{
anchors = (
{
name = bottom;
position = "{531, 0}";
},
{
name = top_case;
position = "{531, 1284}";
}
);
guideLines = (
{
position = "{817, -25}";
},
{
position = "{775, 43}";
},
{
angle = 270;
position = "{1016, 535}";
}
);
layerId = "1D628CB9-BBF5-410A-9D74-9E6094BFE839";
paths = (
{
closed = 1;
nodes = (
"1006 -25 LINE",
"673 591 LINE",
"838 629 OFFCURVE",
"921 722 OFFCURVE",
"921 922 CURVE SMOOTH",
"921 1238 OFFCURVE",
"747 1284 OFFCURVE",
"406 1284 CURVE SMOOTH",
"153 1284 LINE",
"153 0 LINE",
"281 0 LINE",
"281 567 LINE",
"391 567 LINE SMOOTH",
"448 567 OFFCURVE",
"506 569 OFFCURVE",
"554 573 CURVE",
"864 -25 LINE"
);
},
{
closed = 1;
nodes = (
"281 1184 LINE",
"400 1184 LINE SMOOTH",
"660 1184 OFFCURVE",
"793 1166 OFFCURVE",
"793 920 CURVE SMOOTH",
"793 697 OFFCURVE",
"693 662 OFFCURVE",
"368 662 CURVE SMOOTH",
"281 662 LINE"
);
}
);
width = 1061;
},
{
guideLines = (
{
angle = 121.1332;
position = "{1234, -182}";
},
{
angle = 270;
position = "{1174, 535}";
}
);
layerId = "D42B5605-DB46-4B3B-8EA0-4CE7066523CE";
paths = (
{
closed = 1;
nodes = (
"832 546 LINE",
"762 485 LINE",
"934 544 OFFCURVE",
"1042 641 OFFCURVE",
"1042 870 CURVE SMOOTH",
"1042 1170 OFFCURVE",
"878 1284 OFFCURVE",
"618 1284 CURVE SMOOTH",
"92 1284 LINE",
"92 0 LINE",
"420 0 LINE",
"420 551 LINE",
"325 456 LINE",
"615 456 LINE",
"515 479 LINE",
"732 0 LINE",
"1119 0 LINE"
);
},
{
closed = 1;
nodes = (
"325 741 LINE",
"420 646 LINE",
"420 1094 LINE",
"325 999 LINE",
"566 999 LINE SMOOTH",
"648 999 OFFCURVE",
"714 969 OFFCURVE",
"714 876 CURVE SMOOTH",
"714 756 OFFCURVE",
"645 741 OFFCURVE",
"509 741 CURVE SMOOTH"
);
}
);
width = 1189;
}
);
},
{
glyphname = a;
layers = (
{
anchors = (
{
name = bottom;
position = "{481, 0}";
},
{
name = ogonek;
position = "{764, 0}";
},
{
name = top;
position = "{478, 985}";
}
);
guideLines = (
{
position = "{260, 137}";
},
{
position = "{240, 50}";
}
);
layerId = "1D628CB9-BBF5-410A-9D74-9E6094BFE839";
paths = (
{
closed = 1;
nodes = (
"547 -10 OFFCURVE",
"672 45 OFFCURVE",
"711 77 CURVE",
"687 113 LINE",
"718 0 LINE",
"814 0 LINE",
"814 627 LINE SMOOTH",
"814 909 OFFCURVE",
"699 1000 OFFCURVE",
"485 1000 CURVE SMOOTH",
"388 1000 OFFCURVE",
"274 976 OFFCURVE",
"170 942 CURVE",
"195 843 LINE",
"293 875 OFFCURVE",
"397 895 OFFCURVE",
"479 895 CURVE SMOOTH",
"605 895 OFFCURVE",
"686 838 OFFCURVE",
"686 609 CURVE SMOOTH",
"686 508 LINE",
"738 540 LINE",
"638 572 OFFCURVE",
"540 578 OFFCURVE",
"483 577 CURVE SMOOTH",
"212 577 OFFCURVE",
"113 403 OFFCURVE",
"113 269 CURVE SMOOTH",
"113 83 OFFCURVE",
"245 -10 OFFCURVE",
"429 -10 CURVE SMOOTH"
);
},
{
closed = 1;
nodes = (
"317 92 OFFCURVE",
"241 145 OFFCURVE",
"241 278 CURVE SMOOTH",
"241 412 OFFCURVE",
"348 483 OFFCURVE",
"525 483 CURVE SMOOTH",
"578 483 OFFCURVE",
"643 476 OFFCURVE",
"722 444 CURVE",
"686 502 LINE",
"686 112 LINE",
"704 170 LINE",
"654 128 OFFCURVE",
"548 92 OFFCURVE",
"449 92 CURVE SMOOTH"
);
}
);
width = 961;
},
{
anchors = (
{
name = bottom;
position = "{518, -50}";
},
{
name = ogonek;
position = "{801, 0}";
},
{
name = top;
position = "{505, 1035}";
}
);
guideLines = (
{
angle = 109.3658;
position = "{-263, -33}";
}
);
layerId = "D42B5605-DB46-4B3B-8EA0-4CE7066523CE";
paths = (
{
closed = 1;
nodes = (
"517 -8 OFFCURVE",
"620 38 OFFCURVE",
"711 109 CURVE",
"629 130 LINE",
"675 0 LINE",
"961 0 LINE",
"961 607 LINE SMOOTH",
"961 889 OFFCURVE",
"751 1000 OFFCURVE",
"542 1000 CURVE SMOOTH",
"445 1000 OFFCURVE",
"314 996 OFFCURVE",
"110 938 CURVE",
"176 692 LINE",
"318 727 OFFCURVE",
"413 733 OFFCURVE",
"476 733 CURVE SMOOTH",
"608 733 OFFCURVE",
"633 682 OFFCURVE",
"633 606 CURVE SMOOTH",
"633 478 LINE",
"695 578 LINE",
"616 604 OFFCURVE",
"557 619 OFFCURVE",
"450 619 CURVE SMOOTH",
"179 619 OFFCURVE",
"45 442 OFFCURVE",
"45 291 CURVE SMOOTH",
"45 82 OFFCURVE",
"206 -8 OFFCURVE",
"405 -8 CURVE SMOOTH"
);
},
{
closed = 1;
nodes = (
"401 222 OFFCURVE",
"365 252 OFFCURVE",
"365 300 CURVE SMOOTH",
"365 346 OFFCURVE",
"407 394 OFFCURVE",
"491 394 CURVE SMOOTH",
"566 394 OFFCURVE",
"608 382 OFFCURVE",
"699 345 CURVE",
"633 472 LINE",
"633 162 LINE",
"691 309 LINE",
"642 265 OFFCURVE",
"540 222 OFFCURVE",
"465 222 CURVE SMOOTH"
);
}
);
width = 1044;
}
);
unicode = 0061;
},
{
glyphname = ae;
layers = (
{
anchors = (
{
name = bottom;
position = "{775, 0}";
},
{
name = ogonek;
position = "{764, 0}";
},
{
name = top;
position = "{775, 985}";
}
);
layerId = "1D628CB9-BBF5-410A-9D74-9E6094BFE839";
paths = (
{
closed = 1;
nodes = (
"607 -10 OFFCURVE",
"736 76 OFFCURVE",
"812 168 CURVE",
"755 234 LINE",
"697 159 OFFCURVE",
"575 92 OFFCURVE",
"449 92 CURVE SMOOTH",
"309 92 OFFCURVE",
"233 153 OFFCURVE",
"233 278 CURVE SMOOTH",
"233 451 OFFCURVE",
"466 469 OFFCURVE",
"633 469 CURVE SMOOTH",
"1435 469 LINE",
"1440 528 OFFCURVE",
"1443 574 OFFCURVE",
"1443 604 CURVE SMOOTH",
"1443 841 OFFCURVE",
"1310 1000 OFFCURVE",
"1088 1000 CURVE SMOOTH",
"920 1000 OFFCURVE",
"787 919 OFFCURVE",
"726 743 CURVE",
"796 771 LINE",
"751 939 OFFCURVE",
"628 1000 OFFCURVE",
"478 1000 CURVE SMOOTH",
"381 1000 OFFCURVE",
"274 976 OFFCURVE",
"170 942 CURVE",
"195 843 LINE",
"293 868 OFFCURVE",
"390 895 OFFCURVE",
"472 895 CURVE SMOOTH",
"598 895 OFFCURVE",
"689 831 OFFCURVE",
"689 599 CURVE SMOOTH",
"689 496 LINE SMOOTH",
"689 134 OFFCURVE",
"856 -10 OFFCURVE",
"1113 -10 CURVE SMOOTH",
"1208 -10 OFFCURVE",
"1329 16 OFFCURVE",
"1425 75 CURVE",
"1386 176 LINE",
"1293 117 OFFCURVE",
"1206 96 OFFCURVE",
"1106 96 CURVE SMOOTH",
"951 96 OFFCURVE",
"816 172 OFFCURVE",
"816 519 CURVE SMOOTH",
"816 750 OFFCURVE",
"906 895 OFFCURVE",
"1089 895 CURVE SMOOTH",
"1234 895 OFFCURVE",
"1324 783 OFFCURVE",
"1324 609 CURVE SMOOTH",
"1324 561 LINE",
"601 562 LINE SMOOTH",
"227 562 OFFCURVE",
"113 419 OFFCURVE",
"113 269 CURVE SMOOTH",
"113 83 OFFCURVE",
"245 -10 OFFCURVE",
"429 -10 CURVE SMOOTH"
);
}
);
width = 1549;
},
{
anchors = (
{
name = bottom;
position = "{771, 0}";
},
{
name = top;
position = "{771, 985}";
}
);
associatedMasterId = "1D628CB9-BBF5-410A-9D74-9E6094BFE839";
layerId = "5E165179-021E-4BCF-A508-2B1321AC368B";
name = "Regular Jul 6 16, 13:18";
paths = (
{
closed = 1;
nodes = (
"166 942 LINE",
"270 976 OFFCURVE",
"377 1000 OFFCURVE",
"474 1000 CURVE SMOOTH",
"599 1000 OFFCURVE",
"726 944 OFFCURVE",
"762 789 CURVE",
"829 941 OFFCURVE",
"950 1000 OFFCURVE",
"1087 1000 CURVE SMOOTH",
"1290 1000 OFFCURVE",
"1429 844 OFFCURVE",
"1429 707 CURVE SMOOTH",
"1429 581 OFFCURVE",
"1341 469 OFFCURVE",
"1128 469 CURVE SMOOTH",
"813 469 LINE",
"817 162 OFFCURVE",
"956 96 OFFCURVE",
"1102 96 CURVE SMOOTH",
"1202 96 OFFCURVE",
"1289 117 OFFCURVE",
"1382 176 CURVE",
"1421 75 LINE",
"1325 16 OFFCURVE",
"1204 -10 OFFCURVE",
"1109 -10 CURVE SMOOTH",
"960 -10 OFFCURVE",
"842 38 OFFCURVE",
"768 149 CURVE",
"710 64 OFFCURVE",
"625 -10 OFFCURVE",
"425 -10 CURVE SMOOTH",
"241 -10 OFFCURVE",
"109 85 OFFCURVE",
"109 284 CURVE SMOOTH",
"109 429 OFFCURVE",
"223 567 OFFCURVE",
"597 567 CURVE SMOOTH",
"685 567 LINE",
"685 599 LINE SMOOTH",
"684 831 OFFCURVE",
"594 895 OFFCURVE",
"468 895 CURVE SMOOTH",
"386 895 OFFCURVE",
"289 868 OFFCURVE",
"191 843 CURVE"
);
},
{
closed = 1;
nodes = (
"229 278 CURVE SMOOTH",
"229 153 OFFCURVE",
"305 92 OFFCURVE",
"445 92 CURVE SMOOTH",
"551 92 OFFCURVE",
"627 113 OFFCURVE",
"732 216 CURVE",
"703 284 OFFCURVE",
"687 369 OFFCURVE",
"685 472 CURVE",
"685 473 LINE",
"629 473 LINE SMOOTH",
"462 473 OFFCURVE",
"229 455 OFFCURVE"
);
},
{
closed = 1;
nodes = (
"813 559 CURVE",
"1126 559 LINE SMOOTH",
"1261 559 OFFCURVE",
"1321 630 OFFCURVE",
"1321 707 CURVE SMOOTH",
"1321 798 OFFCURVE",
"1238 896 OFFCURVE",
"1099 896 CURVE SMOOTH",
"917 896 OFFCURVE",
"829 767 OFFCURVE"
);
}
);
width = 1541;
},
{
layerId = "D42B5605-DB46-4B3B-8EA0-4CE7066523CE";
width = 600;
}
);
unicode = 00E6;
userData = {
com.typemytype.robofont.layerData = {
"Regular Jul 6 16, 13:18" = {
anchors = (
{
name = top;
x = 771;
y = 985;
},
{
name = bottom;
x = 771;
y = 0;
}
);
components = (
);
contours = (
{
points = (
{
segmentType = line;
smooth = 0;
x = 166;
y = 942;
},
{
smooth = 0;
x = 270;
y = 976;
},
{
smooth = 0;
x = 377;
y = 1000;
},
{
segmentType = curve;
smooth = 1;
x = 474;
y = 1000;
},
{
smooth = 0;
x = 599;
y = 1000;
},
{
smooth = 0;
x = 726;
y = 944;
},
{
segmentType = curve;
smooth = 0;
x = 762;
y = 789;
},
{
smooth = 0;
x = 829;
y = 941;
},
{
smooth = 0;
x = 950;
y = 1000;
},
{
segmentType = curve;
smooth = 1;
x = 1087;
y = 1000;
},
{
smooth = 0;
x = 1290;
y = 1000;
},
{
smooth = 0;
x = 1429;
y = 844;
},
{
segmentType = curve;
smooth = 1;
x = 1429;
y = 707;
},
{
smooth = 0;
x = 1429;
y = 581;
},
{
smooth = 0;
x = 1341;
y = 469;
},
{
segmentType = curve;
smooth = 1;
x = 1128;
y = 469;
},
{
segmentType = line;
smooth = 0;
x = 813;
y = 469;
},
{
smooth = 0;
x = 817;
y = 162;
},
{
smooth = 0;
x = 956;
y = 96;
},
{
segmentType = curve;
smooth = 1;
x = 1102;
y = 96;
},
{
smooth = 0;
x = 1202;
y = 96;
},
{
smooth = 0;
x = 1289;
y = 117;
},
{
segmentType = curve;
smooth = 0;
x = 1382;
y = 176;
},
{
segmentType = line;
smooth = 0;
x = 1421;
y = 75;
},
{
smooth = 0;
x = 1325;
y = 16;
},
{
smooth = 0;
x = 1204;
y = -10;
},
{
segmentType = curve;
smooth = 1;
x = 1109;
y = -10;
},
{
smooth = 0;
x = 960;
y = -10;
},
{
smooth = 0;
x = 842;
y = 38;
},
{
segmentType = curve;
smooth = 0;
x = 768;
y = 149;
},
{
smooth = 0;
x = 710;
y = 64;
},
{
smooth = 0;
x = 625;
y = -10;
},
{
segmentType = curve;
smooth = 1;
x = 425;
y = -10;
},
{
smooth = 0;
x = 241;
y = -10;
},
{
smooth = 0;
x = 109;
y = 85;
},
{
segmentType = curve;
smooth = 1;
x = 109;
y = 284;
},
{
smooth = 0;
x = 109;
y = 429;
},
{
smooth = 0;
x = 223;
y = 567;
},
{
segmentType = curve;
smooth = 1;
x = 597;
y = 567;
},
{
segmentType = line;
smooth = 0;
x = 685;
y = 567;
},
{
segmentType = line;
smooth = 1;
x = 685;
y = 599;
},
{
smooth = 0;
x = 684;
y = 831;
},
{
smooth = 0;
x = 594;
y = 895;
},
{
segmentType = curve;
smooth = 1;
x = 468;
y = 895;
},
{
smooth = 0;
x = 386;
y = 895;
},
{
smooth = 0;
x = 289;
y = 868;
},
{
segmentType = curve;
smooth = 0;
x = 191;
y = 843;
}
);
},
{
points = (
{
segmentType = curve;
smooth = 1;
x = 229;
y = 278;
},
{
smooth = 0;
x = 229;
y = 153;
},
{
smooth = 0;
x = 305;
y = 92;
},
{
segmentType = curve;
smooth = 1;
x = 445;
y = 92;
},
{
smooth = 0;
x = 551;
y = 92;
},
{
smooth = 0;
x = 627;
y = 113;
},
{
segmentType = curve;
smooth = 0;
x = 732;
y = 216;
},
{
smooth = 0;
x = 703;
y = 284;
},
{
smooth = 0;
x = 687;
y = 369;
},
{
segmentType = curve;
smooth = 0;
x = 685;
y = 472;
},
{
segmentType = line;
smooth = 0;
x = 685;
y = 473;
},
{
segmentType = line;
smooth = 1;
x = 629;
y = 473;
},
{
smooth = 0;
x = 462;
y = 473;
},
{
smooth = 0;
x = 229;
y = 455;
}
);
},
{
points = (
{
segmentType = curve;
smooth = 0;
x = 813;
y = 559;
},
{
segmentType = line;
smooth = 1;
x = 1126;
y = 559;
},
{
smooth = 0;
x = 1261;
y = 559;
},
{
smooth = 0;
x = 1321;
y = 630;
},
{
segmentType = curve;
smooth = 1;
x = 1321;
y = 707;
},
{
smooth = 0;
x = 1321;
y = 798;
},
{
smooth = 0;
x = 1238;
y = 896;
},
{
segmentType = curve;
smooth = 1;
x = 1099;
y = 896;
},
{
smooth = 0;
x = 917;
y = 896;
},
{
smooth = 0;
x = 829;
y = 767;
}
);
}
);
lib = {
};
name = ae;
unicodes = (
);
width = 1541;
};
};
};
},
{
glyphname = b;
layers = (
{
anchors = (
{
name = bottom;
position = "{496, 0}";
},
{
name = top_case;
position = "{208, 1358}";
}
);
guideLines = (
{
position = "{118, 144}";
},
{
position = "{240, 50}";
}
);
layerId = "1D628CB9-BBF5-410A-9D74-9E6094BFE839";
paths = (
{
closed = 1;
nodes = (
"751 -10 OFFCURVE",
"880 126 OFFCURVE",
"880 493 CURVE SMOOTH",
"880 852 OFFCURVE",
"744 1000 OFFCURVE",
"544 1000 CURVE SMOOTH",
"451 1000 OFFCURVE",
"356 978 OFFCURVE",
"239 897 CURVE",
"272 878 LINE",
"272 1358 LINE",
"144 1358 LINE",
"144 0 LINE",
"240 0 LINE",
"273 92 LINE",
"231 66 LINE",
"317 10 OFFCURVE",
"431 -10 OFFCURVE",
"514 -10 CURVE SMOOTH"
);
},
{
closed = 1;
nodes = (
"389 95 OFFCURVE",
"334 112 OFFCURVE",
"241 160 CURVE",
"272 92 LINE",
"272 854 LINE",
"235 787 LINE",
"364 867 OFFCURVE",
"453 895 OFFCURVE",
"528 895 CURVE SMOOTH",
"685 895 OFFCURVE",
"752 767 OFFCURVE",
"752 491 CURVE SMOOTH",
"752 201 OFFCURVE",
"676 95 OFFCURVE",
"496 95 CURVE SMOOTH"
);
}
);
width = 992;
},
{
anchors = (
{
name = bottom;
position = "{627, -10}";
},
{
name = top_case;
position = "{217, 1408}";
}
);
layerId = "D42B5605-DB46-4B3B-8EA0-4CE7066523CE";
paths = (
{
closed = 1;
nodes = (
"816 -10 OFFCURVE",
"1038 64 OFFCURVE",
"1038 493 CURVE SMOOTH",
"1038 917 OFFCURVE",
"829 1000 OFFCURVE",
"635 1000 CURVE SMOOTH",
"517 1000 OFFCURVE",
"448 973 OFFCURVE",
"384 946 CURVE",
"384 1358 LINE",
"56 1358 LINE",
"56 0 LINE",
"350 0 LINE",
"370 60 LINE",
"431 29 OFFCURVE",
"517 -10 OFFCURVE",
"631 -10 CURVE SMOOTH"
);
},
{
closed = 1;
nodes = (
"476 272 OFFCURVE",
"394 290 OFFCURVE",
"245 394 CURVE",
"384 142 LINE",
"384 854 LINE",
"244 560 LINE",
"397 691 OFFCURVE",
"482 715 OFFCURVE",
"550 715 CURVE SMOOTH",
"650 715 OFFCURVE",
"710 670 OFFCURVE",
"710 496 CURVE SMOOTH",
"710 327 OFFCURVE",
"656 272 OFFCURVE",
"550 272 CURVE SMOOTH"
);
}
);
width = 1121;
}
);
unicode = 0062;
userData = {
com.fontlab.hintData = {
hhints = (
{
position = -10;
width = 106;
},
{
position = 895;
width = 105;
},
{
position = 1338;
width = 20;
}
);
vhints = (
{
position = 140;
width = 128;
},
{
position = 140;
width = 104;
},
{
position = 748;
width = 128;
}
);
};
};
},
{
glyphname = c;
layers = (
{
anchors = (
{
name = bottom;
position = "{438, 0}";
},
{
name = cedilla;
position = "{504, 0}";
},
{
name = top;
position = "{502, 985}";
}
);
guideLines = (
{
angle = 270;
position = "{501, 516}";
}
);
layerId = "1D628CB9-BBF5-410A-9D74-9E6094BFE839";
paths = (
{
closed = 1;
nodes = (
"619 -10 OFFCURVE",
"711 20 OFFCURVE",
"804 70 CURVE",
"756 161 LINE",
"672 122 OFFCURVE",
"603 95 OFFCURVE",
"530 95 CURVE SMOOTH",
"329 95 OFFCURVE",
"242 215 OFFCURVE",
"242 493 CURVE SMOOTH",
"242 732 OFFCURVE",
"296 895 OFFCURVE",
"500 895 CURVE SMOOTH",
"567 895 OFFCURVE",
"632 887 OFFCURVE",
"690 857 CURVE",
"663 914 LINE",
"663 672 LINE",
"765 682 LINE",
"765 940 LINE",
"680 980 OFFCURVE",
"593 1000 OFFCURVE",
"502 1000 CURVE SMOOTH",
"241 1000 OFFCURVE",
"114 831 OFFCURVE",
"114 495 CURVE SMOOTH",
"114 140 OFFCURVE",
"263 -10 OFFCURVE",
"516 -10 CURVE SMOOTH"
);
}
);
width = 876;
},
{
anchors = (
{
name = bottom;
position = "{430, 0}";
},
{
name = cedilla;
position = "{496, 0}";
},
{
name = top;
position = "{494, 1035}";
}
);
guideLines = (
{
angle = 270;
position = "{514, 512}";
}
);
layerId = "D42B5605-DB46-4B3B-8EA0-4CE7066523CE";
paths = (
{
closed = 1;
nodes = (
"684 -10 OFFCURVE",
"804 31 OFFCURVE",
"959 110 CURVE",
"832 348 LINE",
"707 293 OFFCURVE",
"632 275 OFFCURVE",
"542 275 CURVE SMOOTH",
"424 275 OFFCURVE",
"364 332 OFFCURVE",
"364 493 CURVE SMOOTH",
"364 665 OFFCURVE",
"418 715 OFFCURVE",
"525 715 CURVE SMOOTH",
"592 715 OFFCURVE",
"684 675 OFFCURVE",
"742 647 CURVE",
"625 904 LINE",
"625 542 LINE",
"907 572 LINE",
"907 910 LINE",
"812 950 OFFCURVE",
"650 1000 OFFCURVE",
"525 1000 CURVE SMOOTH",
"186 1000 OFFCURVE",
"36 856 OFFCURVE",
"36 495 CURVE SMOOTH",
"36 142 OFFCURVE",
"188 -10 OFFCURVE",
"525 -10 CURVE SMOOTH"
);
}
);
width = 1001;
}
);
unicode = 0063;
},
{
glyphname = d;
layers = (
{
anchors = (
{
name = bottom;
position = "{509, 0}";
},
{
name = center;
position = "{509, 493}";
},
{
name = top_case;
position = "{810, 1358}";
},
{
name = topright;
position = "{971, 1358}";
}
);
layerId = "1D628CB9-BBF5-410A-9D74-9E6094BFE839";
paths = (
{
closed = 1;
nodes = (
"602 -10 OFFCURVE",
"698 10 OFFCURVE",
"789 67 CURVE",
"753 86 LINE",
"770 0 LINE",
"874 0 LINE",
"874 1358 LINE",
"746 1358 LINE",
"746 878 LINE",
"781 900 LINE",
"660 983 OFFCURVE",
"581 1000 OFFCURVE",
"488 1000 CURVE SMOOTH",
"288 1000 OFFCURVE",
"112 852 OFFCURVE",
"112 493 CURVE SMOOTH",
"112 126 OFFCURVE",
"281 -10 OFFCURVE",
"518 -10 CURVE SMOOTH"
);
},
{
closed = 1;
nodes = (
"356 95 OFFCURVE",
"240 186 OFFCURVE",
"240 491 CURVE SMOOTH",
"240 767 OFFCURVE",
"358 895 OFFCURVE",
"504 895 CURVE SMOOTH",
"580 895 OFFCURVE",
"652 878 OFFCURVE",
"786 786 CURVE",
"746 854 LINE",
"746 102 LINE",
"780 161 LINE",
"682 112 OFFCURVE",
"636 95 OFFCURVE",
"536 95 CURVE SMOOTH"
);
}
);
width = 1018;
},
{
anchors = (
{
name = bottom;
position = "{563, -50}";
},
{
name = center;
position = "{563, 493}";
},
{
name = top_case;
position = "{874, 1408}";
},
{
name = topright;
position = "{1185, 1358}";
}
);
guideLines = (
{
angle = -72.5632;
position = "{465, 0}";
},
{
position = "{-22, 262}";
},
{
position = "{495, 669}";
},
{
position = "{-30, 51}";
}
);
layerId = "D42B5605-DB46-4B3B-8EA0-4CE7066523CE";
paths = (
{
closed = 1;
nodes = (
"575 -10 OFFCURVE",
"662 24 OFFCURVE",
"723 55 CURVE",
"744 0 LINE",
"1038 0 LINE",
"1038 1358 LINE",
"710 1358 LINE",
"710 946 LINE",
"646 973 OFFCURVE",
"575 1000 OFFCURVE",
"457 1000 CURVE SMOOTH",
"263 1000 OFFCURVE",
"56 917 OFFCURVE",
"56 493 CURVE SMOOTH",
"56 64 OFFCURVE",
"286 -10 OFFCURVE",
"461 -10 CURVE SMOOTH"
);
},
{
closed = 1;
nodes = (
"444 272 OFFCURVE",
"384 327 OFFCURVE",
"384 496 CURVE SMOOTH",
"384 669 OFFCURVE",
"442 715 OFFCURVE",
"542 715 CURVE SMOOTH",
"610 715 OFFCURVE",
"697 691 OFFCURVE",
"850 560 CURVE",
"710 854 LINE",
"710 142 LINE",
"849 394 LINE",
"700 290 OFFCURVE",
"616 272 OFFCURVE",
"542 272 CURVE SMOOTH"
);
}
);
width = 1121;
}
);
unicode = 0064;
},
{
glyphname = eth;
layers = (
{
layerId = "1D628CB9-BBF5-410A-9D74-9E6094BFE839";
paths = (
{
closed = 1;
nodes = (
"761 -10 OFFCURVE",
"883 183 OFFCURVE",
"883 544 CURVE SMOOTH",
"883 836 OFFCURVE",
"811 1056 OFFCURVE",
"688 1175 CURVE",
"868 1319 LINE",
"816 1387 LINE",
"616 1229 LINE",
"515 1293 OFFCURVE",
"390 1328 OFFCURVE",
"249 1351 CURVE",
"228 1245 LINE",
"341 1235 OFFCURVE",
"438 1206 OFFCURVE",
"517 1161 CURVE",
"344 1025 LINE",
"396 957 LINE",
"592 1109 LINE",
"692 1033 OFFCURVE",
"759 812 OFFCURVE",
"765 672 CURVE",
"704 754 OFFCURVE",
"599 804 OFFCURVE",
"479 804 CURVE SMOOTH",
"276 804 OFFCURVE",
"92 671 OFFCURVE",
"92 394 CURVE SMOOTH",
"92 121 OFFCURVE",
"257 -10 OFFCURVE",
"489 -10 CURVE SMOOTH"
);
},
{
closed = 1;
nodes = (
"326 95 OFFCURVE",
"220 170 OFFCURVE",
"220 395 CURVE SMOOTH",
"220 601 OFFCURVE",
"330 699 OFFCURVE",
"473 699 CURVE SMOOTH",
"577 699 OFFCURVE",
"755 650 OFFCURVE",
"755 450 CURVE SMOOTH",
"755 203 OFFCURVE",
"674 95 OFFCURVE",
"494 95 CURVE SMOOTH"
);
}
);
width = 1006;
},
{
layerId = "D42B5605-DB46-4B3B-8EA0-4CE7066523CE";
width = 600;
}
);
unicode = 00F0;
},
{
glyphname = dcroat;
layers = (
{
layerId = "1D628CB9-BBF5-410A-9D74-9E6094BFE839";
paths = (
{
closed = 1;
nodes = (
"593 -10 OFFCURVE",
"678 6 OFFCURVE",
"760 50 CURVE",
"770 0 LINE",
"874 0 LINE",
"874 1107 LINE",
"1014 1107 LINE",
"1014 1195 LINE",
"874 1195 LINE",
"874 1358 LINE",
"746 1358 LINE",
"746 1195 LINE",
"534 1195 LINE",
"534 1107 LINE",
"746 1107 LINE",
"746 923 LINE",
"644 986 OFFCURVE",
"572 1000 OFFCURVE",
"488 1000 CURVE SMOOTH",
"288 1000 OFFCURVE",
"112 852 OFFCURVE",
"112 493 CURVE SMOOTH",
"112 126 OFFCURVE",
"281 -10 OFFCURVE",
"518 -10 CURVE SMOOTH"
);
},
{
closed = 1;
nodes = (
"356 96 OFFCURVE",
"240 206 OFFCURVE",
"240 491 CURVE SMOOTH",
"240 767 OFFCURVE",
"347 895 OFFCURVE",
"504 895 CURVE SMOOTH",
"572 895 OFFCURVE",
"637 872 OFFCURVE",
"746 809 CURVE",
"746 137 LINE",
"664 99 OFFCURVE",
"616 96 OFFCURVE",
"564 96 CURVE SMOOTH",
"536 96 LINE SMOOTH"
);
}
);
width = 1018;
},
{
layerId = "D42B5605-DB46-4B3B-8EA0-4CE7066523CE";
width = 600;
}
);
unicode = 0111;
},
{
glyphname = e;
layers = (
{
anchors = (
{
name = bottom;
position = "{507, 0}";
},
{
name = ogonek;
position = "{771, 60}";
},
{
name = top;
position = "{511, 985}";
}
);
layerId = "1D628CB9-BBF5-410A-9D74-9E6094BFE839";
paths = (
{
closed = 1;
nodes = (
"641 -10 OFFCURVE",
"762 23 OFFCURVE",
"858 80 CURVE",
"804 169 LINE",
"727 122 OFFCURVE",
"639 95 OFFCURVE",
"529 95 CURVE SMOOTH",
"372 95 OFFCURVE",
"229 169 OFFCURVE",
"241 523 CURVE",
"195 469 LINE",
"858 469 LINE",
"863 528 OFFCURVE",
"866 574 OFFCURVE",
"866 604 CURVE SMOOTH",
"866 841 OFFCURVE",
"733 1000 OFFCURVE",
"511 1000 CURVE SMOOTH",
"278 1000 OFFCURVE",
"112 843 OFFCURVE",
"112 496 CURVE SMOOTH",
"112 134 OFFCURVE",
"279 -10 OFFCURVE",
"536 -10 CURVE SMOOTH"
);
},
{
closed = 1;
nodes = (
"228 750 OFFCURVE",
"328 895 OFFCURVE",
"512 895 CURVE SMOOTH",
"672 895 OFFCURVE",
"757 767 OFFCURVE",
"746 570 CURVE",
"746 514 LINE",
"792 559 LINE",
"195 559 LINE",
"241 520 LINE"
);
}
);
width = 972;
},
{
anchors = (
{
name = bottom;
position = "{536, -50}";
},
{
name = ogonek;
position = "{800, 60}";
},
{
name = top;
position = "{530, 1035}";
}
);
guideLines = (
{
angle = -58.7439;
position = "{595, 28}";
}
);
layerId = "D42B5605-DB46-4B3B-8EA0-4CE7066523CE";
paths = (
{
closed = 1;
nodes = (
"720 -10 OFFCURVE",
"893 36 OFFCURVE",
"1009 104 CURVE",
"892 305 LINE",
"759 247 OFFCURVE",
"655 235 OFFCURVE",
"600 235 CURVE SMOOTH",
"478 235 OFFCURVE",
"363 280 OFFCURVE",
"384 460 CURVE",
"269 386 LINE",
"976 386 LINE",
"985 446 OFFCURVE",
"986 535 OFFCURVE",
"986 570 CURVE SMOOTH",
"986 849 OFFCURVE",
"807 1000 OFFCURVE",
"545 1000 CURVE SMOOTH",
"283 1000 OFFCURVE",
"56 877 OFFCURVE",
"56 496 CURVE SMOOTH",
"56 96 OFFCURVE",
"280 -10 OFFCURVE",
"545 -10 CURVE SMOOTH"
);
},
{
closed = 1;
nodes = (
"366 714 OFFCURVE",
"441 755 OFFCURVE",
"533 755 CURVE SMOOTH",
"620 755 OFFCURVE",
"682 700 OFFCURVE",
"667 555 CURVE",
"668 431 LINE",
"756 586 LINE",
"269 586 LINE",
"384 507 LINE"
);
}
);
width = 1057;
}
);
unicode = 0065;
userData = {
com.fontlab.hintData = {
hhints = (
{
position = -10;
width = 106;
},
{
position = 469;
width = 90;
},
{
position = 895;
width = 105;
}
);
vhints = (
{
position = 108;
width = 128;
},
{
position = 743;
width = 119;
}
);
};
};
},
{
glyphname = schwa;
layers = (
{
layerId = "1D628CB9-BBF5-410A-9D74-9E6094BFE839";
paths = (
{
closed = 1;
nodes = (
"694 -10 OFFCURVE",
"860 147 OFFCURVE",
"860 494 CURVE SMOOTH",
"860 856 OFFCURVE",
"693 1000 OFFCURVE",
"436 1000 CURVE SMOOTH",
"341 1000 OFFCURVE",
"220 974 OFFCURVE",
"124 915 CURVE",
"163 814 LINE",
"256 873 OFFCURVE",
"343 894 OFFCURVE",
"443 894 CURVE SMOOTH",
"589 894 OFFCURVE",
"728 828 OFFCURVE",
"732 521 CURVE",
"114 521 LINE",
"109 462 OFFCURVE",
"106 416 OFFCURVE",
"106 386 CURVE SMOOTH",
"106 149 OFFCURVE",
"239 -10 OFFCURVE",
"461 -10 CURVE SMOOTH"
);
},
{
closed = 1;
nodes = (
"315 95 OFFCURVE",
"225 207 OFFCURVE",
"225 381 CURVE SMOOTH",
"225 431 LINE",
"732 431 LINE",
"717 224 OFFCURVE",
"633 95 OFFCURVE",
"460 95 CURVE SMOOTH"
);
}
);
width = 972;
},
{
layerId = "D42B5605-DB46-4B3B-8EA0-4CE7066523CE";
width = 600;
}
);
unicode = 0259;
userData = {
com.schriftgestaltung.Glyphs.leftMetricsKey = "=|e";
com.schriftgestaltung.Glyphs.rightMetricsKey = "=|e";
};
},
{
glyphname = f;
layers = (
{
anchors = (
{
name = bottom;
position = "{347, 0}";
},
{
name = top_case;
position = "{487, 1358}";
}
);
layerId = "1D628CB9-BBF5-410A-9D74-9E6094BFE839";
paths = (
{
closed = 1;
nodes = (
"386 0 LINE",
"386 932 LINE",
"341 887 LINE",
"620 887 LINE",
"620 985 LINE",
"341 985 LINE",
"387 921 LINE",
"380 1244 OFFCURVE",
"420 1289 OFFCURVE",
"545 1289 CURVE SMOOTH",
"583 1289 OFFCURVE",
"664 1274 OFFCURVE",
"686 1268 CURVE",
"702 1368 LINE",
"635 1391 OFFCURVE",
"573 1394 OFFCURVE",
"517 1394 CURVE",
"293 1387 OFFCURVE",
"254 1258 OFFCURVE",
"258 937 CURVE",
"303 985 LINE",
"91 985 LINE",
"91 887 LINE",
"303 887 LINE",
"258 932 LINE",
"258 0 LINE"
);
}
);
width = 694;
},
{
anchors = (
{
name = bottom;
position = "{359, 0}";
},
{
name = top_case;
position = "{542, 1408}";
}
);
layerId = "D42B5605-DB46-4B3B-8EA0-4CE7066523CE";
paths = (
{
closed = 1;
nodes = (
"528 0 LINE",
"528 817 LINE",
"383 687 LINE",
"792 687 LINE",
"792 985 LINE",
"383 985 LINE",
"529 928 LINE",
"509 1073 OFFCURVE",
"552 1097 OFFCURVE",
"640 1097 CURVE SMOOTH",
"689 1097 OFFCURVE",
"778 1080 OFFCURVE",
"825 1069 CURVE",
"864 1337 LINE",
"805 1355 OFFCURVE",
"665 1377 OFFCURVE",
"599 1377 CURVE SMOOTH",
"310 1377 OFFCURVE",
"200 1256 OFFCURVE",
"200 918 CURVE",
"345 985 LINE",
"25 985 LINE",
"25 687 LINE",
"345 687 LINE",
"200 832 LINE",
"200 0 LINE"
);
}
);
width = 874;
}
);
unicode = 0066;
},
{
glyphname = g;
layers = (
{
anchors = (
{
name = bottom;
position = "{550, 0}";
},
{
name = top;
position = "{543, 985}";
}
);
guideLines = (
{
position = "{450, 685}";
},
{
position = "{461, 811}";
},
{
position = "{415, 554}";
},
{
position = "{478, 1476}";
}
);
layerId = "1D628CB9-BBF5-410A-9D74-9E6094BFE839";
paths = (
{
closed = 1;
nodes = (
"873 -320 OFFCURVE",
"959 -148 OFFCURVE",
"959 -21 CURVE SMOOTH",
"959 117 OFFCURVE",
"894 185 OFFCURVE",
"676 185 CURVE SMOOTH",
"352 185 LINE",
"304 185 OFFCURVE",
"276 230 OFFCURVE",
"276 284 CURVE SMOOTH",
"276 340 OFFCURVE",
"325 403 OFFCURVE",
"361 431 CURVE",
"312 420 LINE",
"359 397 OFFCURVE",
"427 376 OFFCURVE",
"532 376 CURVE SMOOTH",
"747 376 OFFCURVE",
"903 467 OFFCURVE",
"903 688 CURVE SMOOTH",
"903 772 OFFCURVE",
"881 841 OFFCURVE",
"835 893 CURVE",
"780 876 LINE",
"1033 876 LINE",
"1033 977 LINE",
"746 977 LINE SMOOTH",
"667 977 OFFCURVE",
"650 1000 OFFCURVE",
"532 1000 CURVE SMOOTH",
"318 1000 OFFCURVE",
"160 909 OFFCURVE",
"160 688 CURVE SMOOTH",
"160 560 OFFCURVE",
"208 488 OFFCURVE",
"282 437 CURVE",
"293 497 LINE",
"207 411 OFFCURVE",
"162 350 OFFCURVE",
"162 284 CURVE SMOOTH",
"162 235 OFFCURVE",
"170 177 OFFCURVE",
"233 121 CURVE",
"193 98 OFFCURVE",
"122 10 OFFCURVE",
"122 -73 CURVE SMOOTH",
"122 -174 OFFCURVE",
"186 -320 OFFCURVE",
"519 -320 CURVE SMOOTH"
);
},
{
closed = 1;
nodes = (
"262 -219 OFFCURVE",
"250 -125 OFFCURVE",
"250 -59 CURVE SMOOTH",
"250 13 OFFCURVE",
"297 63 OFFCURVE",
"345 103 CURVE",
"278 84 LINE",
"682 84 LINE SMOOTH",
"809 84 OFFCURVE",
"831 38 OFFCURVE",
"831 -29 CURVE SMOOTH",
"831 -119 OFFCURVE",
"757 -219 OFFCURVE",
"525 -219 CURVE SMOOTH"
);
},
{
closed = 1;
nodes = (
"393 477 OFFCURVE",
"288 539 OFFCURVE",
"288 688 CURVE SMOOTH",
"288 837 OFFCURVE",
"393 899 OFFCURVE",
"532 899 CURVE SMOOTH",
"671 899 OFFCURVE",
"775 837 OFFCURVE",
"775 688 CURVE SMOOTH",
"775 539 OFFCURVE",
"671 477 OFFCURVE",
"532 477 CURVE SMOOTH"
);
}
);
width = 1100;
},
{
anchors = (
{
name = bottom;
position = "{609, 0}";
},
{
name = top;
position = "{602, 1035}";
}
);
guideLines = (
{
angle = 270;
position = "{99, 1035}";
}
);
layerId = "D42B5605-DB46-4B3B-8EA0-4CE7066523CE";
paths = (
{
closed = 1;
nodes = (
"919 -402 OFFCURVE",
"1088 -248 OFFCURVE",
"1088 -36 CURVE SMOOTH",
"1088 131 OFFCURVE",
"966 198 OFFCURVE",
"725 198 CURVE SMOOTH",
"491 198 LINE SMOOTH",
"410 198 OFFCURVE",
"385 235 OFFCURVE",
"385 262 CURVE SMOOTH",
"385 279 OFFCURVE",
"401 355 OFFCURVE",
"484 450 CURVE",
"290 354 LINE",
"355 307 OFFCURVE",
"435 280 OFFCURVE",
"575 280 CURVE SMOOTH",
"877 280 OFFCURVE",
"1051 399 OFFCURVE",
"1051 649 CURVE SMOOTH",
"1051 780 OFFCURVE",
"946 908 OFFCURVE",
"889 956 CURVE",
"809 695 LINE",
"1232 695 LINE",
"1232 980 LINE",
"886 980 LINE SMOOTH",
"811 980 OFFCURVE",
"760 1017 OFFCURVE",
"575 1017 CURVE SMOOTH",
"302 1017 OFFCURVE",
"98 934 OFFCURVE",
"98 649 CURVE SMOOTH",
"98 480 OFFCURVE",
"228 395 OFFCURVE",
"267 371 CURVE",
"352 605 LINE",
"199 506 OFFCURVE",
"100 400 OFFCURVE",
"100 271 CURVE SMOOTH",
"100 221 OFFCURVE",
"116 180 OFFCURVE",
"167 120 CURVE",
"119 81 OFFCURVE",
"61 3 OFFCURVE",
"61 -91 CURVE SMOOTH",
"61 -291 OFFCURVE",
"222 -402 OFFCURVE",
"575 -402 CURVE SMOOTH"
);
},
{
closed = 1;
nodes = (
"415 -178 OFFCURVE",
"379 -140 OFFCURVE",
"379 -78 CURVE SMOOTH",
"379 -51 OFFCURVE",
"388 -9 OFFCURVE",
"469 107 CURVE",
"217 -22 LINE",
"669 -22 LINE SMOOTH",
"727 -22 OFFCURVE",
"760 -41 OFFCURVE",
"760 -88 CURVE SMOOTH",
"760 -138 OFFCURVE",
"706 -176 OFFCURVE",
"575 -177 CURVE SMOOTH"
);
},
{
closed = 1;
nodes = (
"464 540 OFFCURVE",
"416 588 OFFCURVE",
"416 649 CURVE SMOOTH",
"416 710 OFFCURVE",
"464 757 OFFCURVE",
"575 757 CURVE SMOOTH",
"686 757 OFFCURVE",
"733 710 OFFCURVE",
"733 649 CURVE SMOOTH",
"733 588 OFFCURVE",
"686 540 OFFCURVE",
"575 540 CURVE SMOOTH"
);
}
);
width = 1266;
}
);
unicode = 0067;
userData = {
com.fontlab.hintData = {
hhints = (
{
position = -309;
width = 105;
},
{
position = 96;
width = 100;
},
{
position = 363;
width = 98;
},
{
position = 883;
width = 94;
},
{
position = 905;
width = 95;
}
);
vhints = (
{
position = 118;
width = 128;
},
{
position = 158;
width = 114;
},
{
position = 797;
width = 117;
},
{
position = 837;
width = 128;
}
);
};
};
},
{
glyphname = h;
layers = (
{
anchors = (
{
name = bottom;
position = "{490, 0}";
},
{
name = center;
position = "{490, 493}";
},
{
name = top_case;
position = "{208, 1358}";
}
);
layerId = "1D628CB9-BBF5-410A-9D74-9E6094BFE839";
paths = (
{
closed = 1;
nodes = (
"272 0 LINE",
"272 864 LINE",
"235 800 LINE",
"373 887 OFFCURVE",
"477 895 OFFCURVE",
"557 895 CURVE SMOOTH",
"686 895 OFFCURVE",
"733 825 OFFCURVE",
"733 669 CURVE SMOOTH",
"733 0 LINE",
"861 0 LINE",
"861 663 LINE SMOOTH",
"861 891 OFFCURVE",
"767 1000 OFFCURVE",
"564 1000 CURVE SMOOTH",
"467 1000 OFFCURVE",
"386 985 OFFCURVE",
"232 912 CURVE",
"272 870 LINE",
"272 1358 LINE",
"144 1358 LINE",
"144 0 LINE"
);
}
);
width = 980;
},
{
anchors = (
{
name = bottom;
position = "{552, -50}";
},
{
name = center;
position = "{539, 493}";
},
{
name = top_case;
position = "{247, 1358}";
}
);
guideLines = (
{
angle = 29.9358;
position = "{1587, 649}";
}
);
layerId = "D42B5605-DB46-4B3B-8EA0-4CE7066523CE";
paths = (
{
closed = 1;
nodes = (
"411 0 LINE",
"411 835 LINE",
"274 575 LINE",
"425 691 OFFCURVE",
"499 715 OFFCURVE",
"572 715 CURVE SMOOTH",
"657 715 OFFCURVE",
"692 683 OFFCURVE",
"692 533 CURVE SMOOTH",
"692 0 LINE",
"1020 0 LINE",
"1020 663 LINE SMOOTH",
"1020 896 OFFCURVE",
"863 1000 OFFCURVE",
"709 1000 CURVE SMOOTH",
"593 1000 OFFCURVE",
"456 969 OFFCURVE",
"280 847 CURVE",
"411 866 LINE",
"411 1358 LINE",
"83 1358 LINE",
"83 0 LINE"
);
}
);
width = 1094;
}
);
unicode = 0068;
},
{
glyphname = hbar;
layers = (
{
layerId = "1D628CB9-BBF5-410A-9D74-9E6094BFE839";
paths = (
{
closed = 1;
nodes = (
"291 0 LINE",
"291 800 LINE",
"421 870 OFFCURVE",
"511 895 OFFCURVE",
"582 895 CURVE SMOOTH",
"701 895 OFFCURVE",
"739 826 OFFCURVE",
"739 669 CURVE SMOOTH",
"739 0 LINE",
"867 0 LINE",
"867 663 LINE SMOOTH",
"867 900 OFFCURVE",
"776 1000 OFFCURVE",
"590 1000 CURVE SMOOTH",
"495 1000 OFFCURVE",
"398 970 OFFCURVE",
"291 911 CURVE",
"291 1100 LINE",
"503 1100 LINE",
"503 1195 LINE",
"291 1195 LINE",
"291 1358 LINE",
"163 1358 LINE",
"163 1195 LINE",
"-27 1195 LINE",
"-27 1100 LINE",
"163 1100 LINE",
"163 0 LINE"
);
}
);
width = 999;
},
{
layerId = "D42B5605-DB46-4B3B-8EA0-4CE7066523CE";
width = 600;
}
);
unicode = 0127;
},
{
glyphname = i;
layers = (
{
anchors = (
{
name = bottom;
position = "{378, 0}";
},
{
name = ogonek;
position = "{389, 0}";
}
);
guideLines = (
{
angle = 270;
position = "{122, 641}";
},
{
position = "{480, 1356}";
},
{
position = "{498, 1176}";
},
{
angle = 270;
position = "{468, 1176}";
},
{
angle = 270;
position = "{287, 1186}";
}
);
layerId = "1D628CB9-BBF5-410A-9D74-9E6094BFE839";
paths = (
{
closed = 1;
nodes = (
"634 0 LINE",
"634 90 LINE",
"397 90 LINE",
"442 45 LINE",
"442 985 LINE",
"134 985 LINE",
"134 895 LINE",
"359 895 LINE",
"314 940 LINE",
"314 45 LINE",
"359 90 LINE",
"122 90 LINE",
"122 0 LINE"
);
},
{
closed = 1;
nodes = (
"428 1176 OFFCURVE",
"467 1215 OFFCURVE",
"467 1266 CURVE SMOOTH",
"467 1317 OFFCURVE",
"428 1356 OFFCURVE",
"377 1356 CURVE SMOOTH",
"326 1356 OFFCURVE",
"287 1317 OFFCURVE",
"287 1266 CURVE SMOOTH",
"287 1215 OFFCURVE",
"326 1176 OFFCURVE",
"377 1176 CURVE SMOOTH"
);
}
);
width = 687;
},
{
anchors = (
{
name = bottom;
position = "{470, -50}";
},
{
name = ogonek;
position = "{481, 0}";
}
);
guideLines = (
{
angle = 270;
position = "{76, 514}";
},
{
position = "{296, 1106}";
},
{
position = "{108, 1487}";
},
{
angle = 270;
position = "{256, 1062}";
},
{
angle = 270;
position = "{637, 1012}";
}
);
layerId = "D42B5605-DB46-4B3B-8EA0-4CE7066523CE";
paths = (
{
closed = 1;
nodes = (
"828 0 LINE",
"828 270 LINE",
"471 270 LINE",
"616 45 LINE",
"616 985 LINE",
"88 985 LINE",
"88 715 LINE",
"433 715 LINE",
"288 940 LINE",
"288 45 LINE",
"433 270 LINE",
"76 270 LINE",
"76 0 LINE"
);
},
{
closed = 1;
nodes = (
"551 1106 OFFCURVE",
"637 1192 OFFCURVE",
"637 1298 CURVE SMOOTH",
"637 1401 OFFCURVE",
"551 1487 OFFCURVE",
"446 1487 CURVE SMOOTH",
"341 1487 OFFCURVE",
"256 1401 OFFCURVE",
"256 1298 CURVE SMOOTH",
"256 1192 OFFCURVE",
"341 1106 OFFCURVE",
"446 1106 CURVE SMOOTH"
);
}
);
width = 863;
}
);
unicode = 0069;
},
{
glyphname = idotless;
layers = (
{
anchors = (
{
name = bottom;
position = "{341, 0}";
},
{
name = ogonek;
position = "{610, 10}";
},
{
name = top;
position = "{334, 1034}";
}
);
layerId = "1D628CB9-BBF5-410A-9D74-9E6094BFE839";
paths = (
{
closed = 1;
nodes = (
"627 0 LINE",
"627 90 LINE",
"435 90 LINE",
"435 985 LINE",
"115 985 LINE",
"115 895 LINE",
"307 895 LINE",
"307 90 LINE",
"115 90 LINE",
"115 0 LINE"
);
}
);
width = 681;
},
{
anchors = (
{
name = bottom;
position = "{484, 0}";
},
{
name = ogonek;
position = "{753, 10}";
},
{
name = top;
position = "{417, 1034}";
}
);
layerId = "D42B5605-DB46-4B3B-8EA0-4CE7066523CE";
paths = (
{
closed = 1;
nodes = (
"823 0 LINE",
"823 290 LINE",
"631 290 LINE",
"631 985 LINE",
"111 985 LINE",
"111 695 LINE",
"303 695 LINE",
"303 290 LINE",
"111 290 LINE",
"111 0 LINE"
);
}
);
width = 873;
}
);
unicode = 0131;
},
{
glyphname = j;
layers = (
{
layerId = "1D628CB9-BBF5-410A-9D74-9E6094BFE839";
paths = (
{
closed = 1;
nodes = (
"382 -295 OFFCURVE",
"471 -203 OFFCURVE",
"471 18 CURVE SMOOTH",
"471 985 LINE",
"119 985 LINE",
"119 895 LINE",
"388 895 LINE",
"343 940 LINE",
"343 28 LINE SMOOTH",
"343 -123 OFFCURVE",
"319 -190 OFFCURVE",
"206 -190 CURVE SMOOTH",
"143 -190 OFFCURVE",
"103 -185 OFFCURVE",
"58 -174 CURVE",
"42 -275 LINE",
"97 -291 OFFCURVE",
"153 -295 OFFCURVE",
"210 -295 CURVE SMOOTH"
);
},
{
closed = 1;
nodes = (
"451 1176 OFFCURVE",
"490 1215 OFFCURVE",
"490 1266 CURVE SMOOTH",
"490 1317 OFFCURVE",
"451 1356 OFFCURVE",
"400 1356 CURVE SMOOTH",
"349 1356 OFFCURVE",
"310 1317 OFFCURVE",
"310 1266 CURVE SMOOTH",
"310 1215 OFFCURVE",
"349 1176 OFFCURVE",
"400 1176 CURVE SMOOTH"
);
}
);
width = 634;
},
{
guideLines = (
{
angle = 261.6663;
position = "{54, 61}";
},
{
position = "{759, 1556}";
},
{
angle = 270;
position = "{84, 552}";
}
);
layerId = "D42B5605-DB46-4B3B-8EA0-4CE7066523CE";
paths = (
{
closed = 1;
nodes = (
"419 -385 OFFCURVE",
"653 -293 OFFCURVE",
"653 28 CURVE SMOOTH",
"653 985 LINE",
"81 985 LINE",
"81 715 LINE",
"370 715 LINE",
"325 940 LINE",
"325 55 LINE SMOOTH",
"325 -45 OFFCURVE",
"296 -100 OFFCURVE",
"188 -100 CURVE SMOOTH",
"157 -100 OFFCURVE",
"84 -96 OFFCURVE",
"33 -84 CURVE",
"-8 -359 LINE",
"83 -379 OFFCURVE",
"175 -385 OFFCURVE",
"242 -385 CURVE SMOOTH"
);
},
{
closed = 1;
nodes = (
"593 1108 OFFCURVE",
"679 1194 OFFCURVE",
"679 1300 CURVE SMOOTH",
"679 1403 OFFCURVE",
"593 1489 OFFCURVE",
"488 1489 CURVE SMOOTH",
"383 1489 OFFCURVE",
"298 1403 OFFCURVE",
"298 1300 CURVE SMOOTH",
"298 1194 OFFCURVE",
"383 1108 OFFCURVE",
"488 1108 CURVE SMOOTH"
);
}
);
width = 760;
}
);
unicode = 006A;
},
{
glyphname = jdotless;
layers = (
{
anchors = (
{
name = bottom;
position = "{273, -295}";
},
{
name = top;
position = "{314, 985}";
}
);
layerId = "1D628CB9-BBF5-410A-9D74-9E6094BFE839";
paths = (
{
closed = 1;
nodes = (
"382 -295 OFFCURVE",
"471 -203 OFFCURVE",
"471 18 CURVE SMOOTH",
"471 985 LINE",
"119 985 LINE",
"119 895 LINE",
"388 895 LINE",
"343 940 LINE",
"343 28 LINE SMOOTH",
"343 -123 OFFCURVE",
"319 -182 OFFCURVE",
"206 -182 CURVE SMOOTH",
"143 -182 OFFCURVE",
"103 -177 OFFCURVE",
"58 -166 CURVE",
"42 -275 LINE",
"97 -291 OFFCURVE",
"153 -295 OFFCURVE",
"210 -295 CURVE SMOOTH"
);
}
);
width = 628;
},
{
anchors = (
{
name = bottom;
position = "{269, -371}";
},
{
name = top;
position = "{310, 985}";
}
);
guideLines = (
{
position = "{1015, -62}";
}
);
layerId = "D42B5605-DB46-4B3B-8EA0-4CE7066523CE";
paths = (
{
closed = 1;
nodes = (
"423 -391 OFFCURVE",
"567 -188 OFFCURVE",
"567 33 CURVE SMOOTH",
"567 985 LINE",
"15 985 LINE",
"15 695 LINE",
"384 695 LINE",
"239 940 LINE",
"239 132 LINE SMOOTH",
"239 -19 OFFCURVE",
"215 -78 OFFCURVE",
"102 -78 CURVE SMOOTH",
"39 -78 OFFCURVE",
"-1 -73 OFFCURVE",
"-46 -62 CURVE",
"-62 -371 LINE",
"-7 -387 OFFCURVE",
"73 -391 OFFCURVE",
"130 -391 CURVE SMOOTH"
);
}
);
width = 600;
}
);
unicode = 0237;
},
{
glyphname = k;
layers = (
{
anchors = (
{
name = bottom;
position = "{503, 0}";
},
{
name = top;
position = "{473, 985}";
}
);
guideLines = (
{
angle = 270;
position = "{855, 543}";
}
);
layerId = "1D628CB9-BBF5-410A-9D74-9E6094BFE839";
paths = (
{
closed = 1;
nodes = (
"272 0 LINE",
"272 422 LINE",
"238 347 LINE",
"397 488 LINE",
"345 480 LINE",
"473 321 OFFCURVE",
"622 147 OFFCURVE",
"778 -13 CURVE",
"855 69 LINE",
"683 249 OFFCURVE",
"592 359 OFFCURVE",
"439 548 CURVE",
"430 489 LINE",
"810 911 LINE",
"723 985 LINE",
"515 750 OFFCURVE",
"361 589 OFFCURVE",
"259 480 CURVE",
"272 449 LINE",
"272 1358 LINE",
"144 1358 LINE",
"144 0 LINE"
);
}
);
width = 945;
},
{
anchors = (
{
name = bottom;
position = "{572, 0}";
},
{
name = top;
position = "{542, 985}";
}
);
guideLines = (
{
angle = 230.6224;
position = "{515, 824}";
},
{
angle = 270;
position = "{1030, 574}";
}
);
layerId = "D42B5605-DB46-4B3B-8EA0-4CE7066523CE";
paths = (
{
closed = 1;
nodes = (
"411 0 LINE",
"411 427 LINE",
"277 227 LINE",
"546 378 LINE",
"439 403 LINE",
"567 244 OFFCURVE",
"656 128 OFFCURVE",
"807 -43 CURVE",
"1055 190 LINE",
"881 379 OFFCURVE",
"791 473 OFFCURVE",
"672 636 CURVE",
"621 446 LINE",
"1000 875 LINE",
"752 1061 LINE",
"639 922 OFFCURVE",
"465 711 OFFCURVE",
"308 550 CURVE",
"411 564 LINE",
"411 1358 LINE",
"83 1358 LINE",
"83 0 LINE"
);
}
);
width = 1065;
}
);
unicode = 006B;
userData = {
com.fontlab.hintData = {
hhints = (
{
position = 0;
width = 21;
},
{
position = 965;
width = 20;
},
{
position = 1338;
width = 20;
}
);
vhints = (
{
position = 140;
width = 128;
}
);
};
};
},
{
glyphname = kgreenlandic;
layers = (
{
layerId = "1D628CB9-BBF5-410A-9D74-9E6094BFE839";
paths = (
{
closed = 1;
nodes = (
"272 0 LINE",
"272 364 LINE",
"363 445 LINE",
"389 416 LINE",
"389 416 OFFCURVE",
"571 209 OFFCURVE",
"764 0 CURVE",
"925 0 LINE",
"461 504 LINE",
"889 985 LINE",
"723 985 LINE",
"524 754 OFFCURVE",
"374 593 OFFCURVE",
"272 481 CURVE",
"272 985 LINE",
"144 985 LINE",
"144 0 LINE"
);
}
);
width = 961;
},
{
layerId = "D42B5605-DB46-4B3B-8EA0-4CE7066523CE";
width = 600;
}
);
unicode = 0138;
},
{
glyphname = l;
layers = (
{
anchors = (
{
name = bottom;
position = "{361, 0}";
},
{
name = center;
position = "{672, 714}";
},
{
name = top_case;
position = "{361, 1358}";
},
{
name = topright;
position = "{524, 1358}";
}
);
guideLines = (
{
angle = 270;
position = "{74, 514}";
}
);
layerId = "1D628CB9-BBF5-410A-9D74-9E6094BFE839";
paths = (
{
closed = 1;
nodes = (
"636 0 LINE",
"636 90 LINE",
"380 90 LINE",
"425 45 LINE",
"425 1358 LINE",
"86 1358 LINE",
"86 1267 LINE",
"342 1267 LINE",
"297 1312 LINE",
"297 45 LINE",
"342 90 LINE",
"74 90 LINE",
"74 0 LINE"
);
}
);
width = 690;
},
{
anchors = (
{
name = bottom;
position = "{483, -50}";
},
{
name = center;
position = "{794, 714}";
},
{
name = top_case;
position = "{483, 1358}";
},
{
name = topright;
position = "{646, 1358}";
}
);
layerId = "D42B5605-DB46-4B3B-8EA0-4CE7066523CE";
paths = (
{
closed = 1;
nodes = (
"878 0 LINE",
"878 270 LINE",
"502 270 LINE",
"647 45 LINE",
"647 1358 LINE",
"108 1358 LINE",
"108 1088 LINE",
"464 1088 LINE",
"319 1312 LINE",
"319 45 LINE",
"464 270 LINE",
"76 270 LINE",
"76 0 LINE"
);
}
);
width = 913;
}
);
unicode = 006C;
},
{
glyphname = lslash;
layers = (
{
layerId = "1D628CB9-BBF5-410A-9D74-9E6094BFE839";
paths = (
{
closed = 1;
nodes = (
"698 0 LINE",
"698 90 LINE",
"487 90 LINE",
"487 688 LINE",
"788 923 LINE",
"730 1000 LINE",
"487 810 LINE",
"487 1358 LINE",
"138 1358 LINE",
"138 1267 LINE",
"359 1267 LINE",
"359 711 LINE",
"85 498 LINE",
"143 420 LINE",
"359 589 LINE",
"359 90 LINE",
"136 90 LINE",
"136 0 LINE"
);
}
);
width = 812;
},
{
layerId = "D42B5605-DB46-4B3B-8EA0-4CE7066523CE";
paths = (
{
closed = 1;
nodes = (
"906 0 LINE",
"906 290 LINE",
"695 290 LINE",
"695 691 LINE",
"1017 897 LINE",
"893 1101 LINE",
"695 974 LINE",
"695 1358 LINE",
"146 1358 LINE",
"146 1067 LINE",
"367 1067 LINE",
"367 764 LINE",
"81 580 LINE",
"204 376 LINE",
"367 480 LINE",
"367 290 LINE",
"144 290 LINE",
"144 0 LINE"
);
}
);
width = 1037;
}
);
unicode = 0142;
},
{
glyphname = m;
layers = (
{
anchors = (
{
name = bottom;
position = "{755, 0}";
},
{
name = top;
position = "{765, 985}";
}
);
layerId = "1D628CB9-BBF5-410A-9D74-9E6094BFE839";
paths = (
{
closed = 1;
nodes = (
"272 0 LINE",
"272 868 LINE",
"248 809 LINE",
"329 861 OFFCURVE",
"452 895 OFFCURVE",
"547 895 CURVE SMOOTH",
"672 895 OFFCURVE",
"705 826 OFFCURVE",
"705 668 CURVE SMOOTH",
"705 0 LINE",
"833 0 LINE",
"833 664 LINE SMOOTH",
"833 740 OFFCURVE",
"814 894 OFFCURVE",
"816 867 CURVE",
"791 808 LINE",
"891 890 OFFCURVE",
"1034 895 OFFCURVE",
"1088 895 CURVE SMOOTH",
"1196 895 OFFCURVE",
"1249 827 OFFCURVE",
"1249 672 CURVE SMOOTH",
"1249 0 LINE",
"1377 0 LINE",
"1377 671 LINE SMOOTH",
"1377 894 OFFCURVE",
"1276 1000 OFFCURVE",
"1084 1000 CURVE SMOOTH",
"1003 1000 OFFCURVE",
"893 982 OFFCURVE",
"774 918 CURVE",
"734 978 OFFCURVE",
"651 1000 OFFCURVE",
"564 1000 CURVE SMOOTH",
"478 1000 OFFCURVE",
"359 977 OFFCURVE",
"258 921 CURVE",
"240 985 LINE",
"144 985 LINE",
"144 0 LINE"
);
}
);
width = 1509;
},
{
anchors = (
{
name = bottom;
position = "{887, 0}";
},
{
name = top;
position = "{877, 1035}";
}
);
guideLines = (
{
position = "{1067, 715}";
},
{
position = "{807, 550}";
}
);
layerId = "D42B5605-DB46-4B3B-8EA0-4CE7066523CE";
paths = (
{
closed = 1;
nodes = (
"411 0 LINE",
"411 868 LINE",
"287 569 LINE",
"378 641 OFFCURVE",
"437 715 OFFCURVE",
"569 715 CURVE SMOOTH",
"653 715 OFFCURVE",
"678 663 OFFCURVE",
"678 520 CURVE SMOOTH",
"677 0 LINE",
"1005 0 LINE",
"1005 568 LINE SMOOTH",
"1005 731 OFFCURVE",
"976 799 OFFCURVE",
"947 848 CURVE",
"863 568 LINE",
"966 652 OFFCURVE",
"1039 715 OFFCURVE",
"1143 715 CURVE SMOOTH",
"1237 715 OFFCURVE",
"1262 661 OFFCURVE",
"1262 520 CURVE SMOOTH",
"1261 0 LINE",
"1589 0 LINE",
"1589 641 LINE SMOOTH",
"1589 884 OFFCURVE",
"1439 1000 OFFCURVE",
"1236 1000 CURVE SMOOTH",
"1155 1000 OFFCURVE",
"1027 985 OFFCURVE",
"902 918 CURVE",
"833 979 OFFCURVE",
"774 1000 OFFCURVE",
"687 1000 CURVE SMOOTH",
"601 1000 OFFCURVE",
"487 975 OFFCURVE",
"407 921 CURVE",
"379 985 LINE",
"83 985 LINE",
"83 0 LINE"
);
}
);
width = 1663;
}
);
unicode = 006D;
},
{
glyphname = n;
layers = (
{
anchors = (
{
name = bottom;
position = "{503, 0}";
},
{
name = top;
position = "{497, 985}";
}
);
layerId = "1D628CB9-BBF5-410A-9D74-9E6094BFE839";
paths = (
{
closed = 1;
nodes = (
"272 0 LINE",
"272 867 LINE",
"235 800 LINE",
"373 887 OFFCURVE",
"476 895 OFFCURVE",
"557 895 CURVE SMOOTH",
"686 895 OFFCURVE",
"733 827 OFFCURVE",
"733 668 CURVE SMOOTH",
"733 0 LINE",
"861 0 LINE",
"861 663 LINE SMOOTH",
"861 891 OFFCURVE",
"767 1000 OFFCURVE",
"564 1000 CURVE SMOOTH",
"467 1000 OFFCURVE",
"393 985 OFFCURVE",
"258 921 CURVE",
"240 985 LINE",
"144 985 LINE",
"144 0 LINE"
);
}
);
width = 993;
},
{
anchors = (
{
name = bottom;
position = "{551, -50}";
},
{
name = top;
position = "{580, 1035}";
}
);
guideLines = (
{
angle = 270;
position = "{411, 958}";
}
);
layerId = "D42B5605-DB46-4B3B-8EA0-4CE7066523CE";
paths = (
{
closed = 1;
nodes = (
"411 0 LINE",
"411 835 LINE",
"274 575 LINE",
"425 691 OFFCURVE",
"499 715 OFFCURVE",
"573 715 CURVE SMOOTH",
"662 715 OFFCURVE",
"692 683 OFFCURVE",
"692 533 CURVE SMOOTH",
"692 0 LINE",
"1020 0 LINE",
"1020 663 LINE SMOOTH",
"1020 896 OFFCURVE",
"863 1000 OFFCURVE",
"709 1000 CURVE SMOOTH",
"612 1000 OFFCURVE",
"518 985 OFFCURVE",
"397 921 CURVE",
"369 985 LINE",
"83 985 LINE",
"83 0 LINE"
);
}
);
width = 1094;
}
);
unicode = 006E;
userData = {
com.fontlab.hintData = {
hhints = (
{
position = 0;
width = 21;
},
{
position = 895;
width = 105;
},
{
position = 965;
width = 20;
}
);
vhints = (
{
position = 140;
width = 128;
},
{
position = 140;
width = 105;
},
{
position = 729;
width = 128;
}
);
};
};
},
{
glyphname = eng;
layers = (
{
layerId = "1D628CB9-BBF5-410A-9D74-9E6094BFE839";
paths = (
{
closed = 1;
nodes = (
"689 -288 OFFCURVE",
"854 -206 OFFCURVE",
"854 128 CURVE SMOOTH",
"854 663 LINE SMOOTH",
"854 891 OFFCURVE",
"760 1000 OFFCURVE",
"557 1000 CURVE SMOOTH",
"460 1000 OFFCURVE",
"386 985 OFFCURVE",
"251 921 CURVE",
"242 985 LINE",
"137 985 LINE",
"137 0 LINE",
"265 0 LINE",
"265 822 LINE",
"385 888 OFFCURVE",
"476 895 OFFCURVE",
"550 895 CURVE SMOOTH",
"686 895 OFFCURVE",
"726 825 OFFCURVE",
"726 668 CURVE SMOOTH",
"726 108 LINE SMOOTH",
"726 -137 OFFCURVE",
"630 -184 OFFCURVE",
"430 -184 CURVE",
"429 -288 LINE"
);
}
);
width = 986;
},
{
layerId = "D42B5605-DB46-4B3B-8EA0-4CE7066523CE";
width = 600;
}
);
unicode = 014B;
},
{
glyphname = o;
layers = (
{
anchors = (
{
name = bottom;
position = "{496, 0}";
},
{
name = center;
position = "{496, 493}";
},
{
name = ogonek;
position = "{629, 30}";
},
{
name = top;
position = "{495, 985}";
},
{
name = topright;
position = "{790, 664}";
}
);
layerId = "1D628CB9-BBF5-410A-9D74-9E6094BFE839";
paths = (
{
closed = 1;
nodes = (
"765 -10 OFFCURVE",
"880 164 OFFCURVE",
"880 495 CURVE SMOOTH",
"880 826 OFFCURVE",
"765 1000 OFFCURVE",
"496 1000 CURVE SMOOTH",
"227 1000 OFFCURVE",
"112 826 OFFCURVE",
"112 495 CURVE SMOOTH",
"112 164 OFFCURVE",
"227 -10 OFFCURVE",
"496 -10 CURVE SMOOTH"
);
},
{
closed = 1;
nodes = (
"299 95 OFFCURVE",
"240 247 OFFCURVE",
"240 495 CURVE SMOOTH",
"240 743 OFFCURVE",
"299 895 OFFCURVE",
"496 895 CURVE SMOOTH",
"693 895 OFFCURVE",
"752 743 OFFCURVE",
"752 495 CURVE SMOOTH",
"752 247 OFFCURVE",
"693 95 OFFCURVE",
"496 95 CURVE SMOOTH"
);
}
);
width = 992;
},
{
anchors = (
{
name = bottom;
position = "{525, -50}";
},
{
name = center;
position = "{525, 493}";
},
{
name = ogonek;
position = "{658, 30}";
},
{
name = top;
position = "{535, 1035}";
},
{
name = topright;
position = "{819, 664}";
}
);
layerId = "D42B5605-DB46-4B3B-8EA0-4CE7066523CE";
paths = (
{
closed = 1;
nodes = (
"844 -10 OFFCURVE",
"994 134 OFFCURVE",
"994 495 CURVE SMOOTH",
"994 856 OFFCURVE",
"844 1000 OFFCURVE",
"525 1000 CURVE SMOOTH",
"206 1000 OFFCURVE",
"56 856 OFFCURVE",
"56 495 CURVE SMOOTH",
"56 134 OFFCURVE",
"206 -10 OFFCURVE",
"525 -10 CURVE SMOOTH"
);
},
{
closed = 1;
nodes = (
"425 260 OFFCURVE",
"384 312 OFFCURVE",
"384 495 CURVE SMOOTH",
"384 678 OFFCURVE",
"428 730 OFFCURVE",
"525 730 CURVE SMOOTH",
"622 730 OFFCURVE",
"666 678 OFFCURVE",
"666 495 CURVE SMOOTH",
"666 312 OFFCURVE",
"625 260 OFFCURVE",
"525 260 CURVE SMOOTH"
);
}
);
width = 1050;
}
);
unicode = 006F;
userData = {
com.fontlab.hintData = {
hhints = (
{
position = -10;
width = 106;
},
{
position = 895;
width = 105;
}
);
vhints = (
{
position = 108;
width = 128;
},
{
position = 748;
width = 128;
}
);
};
};
},
{
glyphname = ohorn;
layers = (
{
anchors = (
{
name = _topright;
position = "{790, 664}";
},
{
name = bottom;
position = "{496, 0}";
},
{
name = center;
position = "{496, 493}";
},
{
name = ogonek;
position = "{629, 30}";
},
{
name = top;
position = "{496, 985}";
},
{
name = topright;
position = "{790, 664}";
}
);
layerId = "1D628CB9-BBF5-410A-9D74-9E6094BFE839";
paths = (
{
closed = 1;
nodes = (
"112 182 OFFCURVE",
"229 -10 OFFCURVE",
"496 -10 CURVE SMOOTH",
"763 -10 OFFCURVE",
"880 182 OFFCURVE",
"880 495 CURVE SMOOTH",
"880 616 OFFCURVE",
"865 716 OFFCURVE",
"832 794 CURVE",
"809 759 LINE",
"927 800 OFFCURVE",
"1028 859 OFFCURVE",
"1028 981 CURVE SMOOTH",
"1028 1021 OFFCURVE",
"1021 1053 OFFCURVE",
"1011 1079 CURVE",
"879 1079 LINE",
"892 1051 OFFCURVE",
"900 1020 OFFCURVE",
"900 989 CURVE SMOOTH",
"900 907 OFFCURVE",
"855 864 OFFCURVE",
"773 832 CURVE",
"820 820 LINE",
"761 939 OFFCURVE",
"655 1000 OFFCURVE",
"496 1000 CURVE SMOOTH",
"227 1000 OFFCURVE",
"112 826 OFFCURVE",
"112 495 CURVE SMOOTH"
);
},
{
closed = 1;
nodes = (
"240 730 OFFCURVE",
"299 895 OFFCURVE",
"496 895 CURVE SMOOTH",
"693 895 OFFCURVE",
"752 730 OFFCURVE",
"752 495 CURVE SMOOTH",
"752 257 OFFCURVE",
"696 96 OFFCURVE",
"496 96 CURVE SMOOTH",
"296 96 OFFCURVE",
"240 257 OFFCURVE",
"240 495 CURVE SMOOTH"
);
}
);
width = 992;
},
{
anchors = (
{
name = _topright;
position = "{786, 664}";
},
{
name = bottom;
position = "{492, 0}";
},
{
name = center;
position = "{492, 493}";
},
{
name = ogonek;
position = "{625, 30}";
},
{
name = top;
position = "{492, 985}";
},
{
name = topright;
position = "{786, 664}";
}
);
associatedMasterId = "1D628CB9-BBF5-410A-9D74-9E6094BFE839";
layerId = "507808C2-100D-496F-AF8E-12FACB515944";
name = "Regular Jul 25 16, 11:48";
paths = (
{
closed = 1;
nodes = (
"759 -10 OFFCURVE",
"876 182 OFFCURVE",
"876 495 CURVE SMOOTH",
"876 826 OFFCURVE",
"761 1000 OFFCURVE",
"492 1000 CURVE SMOOTH",
"223 1000 OFFCURVE",
"108 826 OFFCURVE",
"108 495 CURVE SMOOTH",
"108 182 OFFCURVE",
"225 -10 OFFCURVE",
"492 -10 CURVE SMOOTH"
);
},
{
closed = 1;
nodes = (
"292 96 OFFCURVE",
"236 257 OFFCURVE",
"236 495 CURVE SMOOTH",
"236 730 OFFCURVE",
"295 895 OFFCURVE",
"492 895 CURVE SMOOTH",
"689 895 OFFCURVE",
"748 730 OFFCURVE",
"748 495 CURVE SMOOTH",
"748 257 OFFCURVE",
"692 96 OFFCURVE",
"492 96 CURVE SMOOTH"
);
},
{
closed = 1;
nodes = (
"796 756 LINE SMOOTH",
"918 797 OFFCURVE",
"1024 856 OFFCURVE",
"1024 981 CURVE SMOOTH",
"1024 1021 OFFCURVE",
"1017 1053 OFFCURVE",
"1007 1079 CURVE",
"875 1079 LINE",
"888 1051 OFFCURVE",
"896 1020 OFFCURVE",
"896 989 CURVE SMOOTH",
"896 913 OFFCURVE",
"857 870 OFFCURVE",
"786 839 CURVE SMOOTH",
"751 824 LINE",
"751 741 LINE"
);
}
);
width = 984;
},
{
layerId = "D42B5605-DB46-4B3B-8EA0-4CE7066523CE";
width = 600;
}
);
unicode = 01A1;
userData = {
com.schriftgestaltung.Glyphs.ColorIndex = 7;
};
},
{
glyphname = oslash;
layers = (
{
components = (
{
name = o;
}
);
layerId = "1D628CB9-BBF5-410A-9D74-9E6094BFE839";
paths = (
{
closed = 1;
nodes = (
"790 1076 LINE",
"719 1104 LINE",
"217 -91 LINE",
"289 -119 LINE"
);
}
);
width = 1024;
},
{
layerId = "D42B5605-DB46-4B3B-8EA0-4CE7066523CE";
width = 600;
}
);
unicode = 00F8;
userData = {
com.fontlab.hintData = {
hhints = (
{
position = -10;
width = 106;
},
{
position = 895;
width = 105;
}
);
vhints = (
{
position = 108;
width = 128;
},
{
position = 748;
width = 128;
}
);
};
};
},
{
glyphname = oe;
layers = (
{
anchors = (
{
name = bottom;
position = "{806, 0}";
},
{
name = top;
position = "{806, 985}";
}
);
layerId = "1D628CB9-BBF5-410A-9D74-9E6094BFE839";
paths = (
{
closed = 1;
nodes = (
"654 -10 OFFCURVE",
"759 73 OFFCURVE",
"819 192 CURVE",
"891 62 OFFCURVE",
"1016 -10 OFFCURVE",
"1176 -10 CURVE SMOOTH",
"1271 -10 OFFCURVE",
"1392 16 OFFCURVE",
"1488 75 CURVE",
"1449 176 LINE",
"1356 117 OFFCURVE",
"1269 96 OFFCURVE",
"1169 96 CURVE SMOOTH",
"1023 96 OFFCURVE",
"884 162 OFFCURVE",
"880 469 CURVE",
"1498 469 LINE",
"1503 528 OFFCURVE",
"1506 574 OFFCURVE",
"1506 604 CURVE SMOOTH",
"1506 841 OFFCURVE",
"1373 1000 OFFCURVE",
"1151 1000 CURVE SMOOTH",
"1009 1000 OFFCURVE",
"892 931 OFFCURVE",
"822 806 CURVE",
"763 927 OFFCURVE",
"657 1000 OFFCURVE",
"496 1000 CURVE SMOOTH",
"227 1000 OFFCURVE",
"112 826 OFFCURVE",
"112 495 CURVE SMOOTH",
"112 182 OFFCURVE",
"229 -10 OFFCURVE",
"496 -10 CURVE SMOOTH"
);
},
{
closed = 1;
nodes = (
"296 96 OFFCURVE",
"240 257 OFFCURVE",
"240 495 CURVE SMOOTH",
"240 730 OFFCURVE",
"299 895 OFFCURVE",
"496 895 CURVE SMOOTH",
"693 895 OFFCURVE",
"752 730 OFFCURVE",
"752 495 CURVE SMOOTH",
"752 257 OFFCURVE",
"696 96 OFFCURVE",
"496 96 CURVE SMOOTH"
);
},
{
closed = 1;
nodes = (
"895 766 OFFCURVE",
"979 895 OFFCURVE",
"1152 895 CURVE SMOOTH",
"1297 895 OFFCURVE",
"1387 783 OFFCURVE",
"1387 609 CURVE SMOOTH",
"1387 559 LINE",
"880 559 LINE"
);
}
);
width = 1612;
},
{
layerId = "D42B5605-DB46-4B3B-8EA0-4CE7066523CE";
width = 600;
}
);
unicode = 0153;
},
{
glyphname = p;
layers = (
{
anchors = (
{
name = bottom;
position = "{497, 0}";
},
{
name = top;
position = "{497, 985}";
}
);
layerId = "1D628CB9-BBF5-410A-9D74-9E6094BFE839";
paths = (
{
closed = 1;
nodes = (
"274 -389 LINE",
"274 43 LINE",
"353 4 OFFCURVE",
"443 -10 OFFCURVE",
"514 -10 CURVE SMOOTH",
"751 -10 OFFCURVE",
"882 116 OFFCURVE",
"882 493 CURVE SMOOTH",
"882 852 OFFCURVE",
"746 1000 OFFCURVE",
"546 1000 CURVE SMOOTH",
"463 1000 OFFCURVE",
"369 978 OFFCURVE",
"263 911 CURVE",
"242 985 LINE",
"146 985 LINE",
"146 -389 LINE"
);
},
{
closed = 1;
nodes = (
"390 95 OFFCURVE",
"335 108 OFFCURVE",
"244 156 CURVE",
"274 92 LINE",
"274 854 LINE",
"237 787 LINE",
"366 867 OFFCURVE",
"455 895 OFFCURVE",
"530 895 CURVE SMOOTH",
"687 895 OFFCURVE",
"754 767 OFFCURVE",
"754 491 CURVE SMOOTH",
"754 191 OFFCURVE",
"676 95 OFFCURVE",
"496 95 CURVE SMOOTH"
);
}
);
width = 994;
},
{
anchors = (
{
name = bottom;
position = "{474, 0}";
},
{
name = top;
position = "{574, 1035}";
}
);
guideLines = (
{
position = "{433, 923}";
}
);
layerId = "D42B5605-DB46-4B3B-8EA0-4CE7066523CE";
paths = (
{
closed = 1;
nodes = (
"544 995 OFFCURVE",
"458 952 OFFCURVE",
"397 921 CURVE",
"377 985 LINE",
"83 985 LINE",
"83 -389 LINE",
"411 -389 LINE",
"411 39 LINE",
"475 12 OFFCURVE",
"530 -15 OFFCURVE",
"642 -15 CURVE SMOOTH",
"846 -15 OFFCURVE",
"1065 68 OFFCURVE",
"1065 492 CURVE SMOOTH",
"1065 921 OFFCURVE",
"843 995 OFFCURVE",
"658 995 CURVE SMOOTH"
);
},
{
closed = 1;
nodes = (
"683 713 OFFCURVE",
"737 655 OFFCURVE",
"737 489 CURVE SMOOTH",
"737 327 OFFCURVE",
"683 272 OFFCURVE",
"577 272 CURVE SMOOTH",
"503 272 OFFCURVE",
"421 290 OFFCURVE",
"271 396 CURVE",
"411 131 LINE",
"411 843 LINE",
"272 581 LINE",
"421 680 OFFCURVE",
"503 713 OFFCURVE",
"577 713 CURVE SMOOTH"
);
}
);
width = 1121;
}
);
unicode = 0070;
},
{
glyphname = thorn;
layers = (
{
layerId = "1D628CB9-BBF5-410A-9D74-9E6094BFE839";
paths = (
{
closed = 1;
nodes = (
"272 -389 LINE",
"272 43 LINE",
"351 4 OFFCURVE",
"443 -10 OFFCURVE",
"514 -10 CURVE SMOOTH",
"751 -10 OFFCURVE",
"880 126 OFFCURVE",
"880 493 CURVE SMOOTH",
"880 852 OFFCURVE",
"744 1000 OFFCURVE",
"544 1000 CURVE SMOOTH",
"464 1000 OFFCURVE",
"374 985 OFFCURVE",
"272 916 CURVE",
"272 1301 LINE",
"144 1301 LINE",
"144 -389 LINE"
);
},
{
closed = 1;
nodes = (
"412 96 OFFCURVE",
"354 99 OFFCURVE",
"272 137 CURVE",
"272 809 LINE",
"381 872 OFFCURVE",
"460 895 OFFCURVE",
"528 895 CURVE SMOOTH",
"685 895 OFFCURVE",
"752 767 OFFCURVE",
"752 491 CURVE SMOOTH",
"752 206 OFFCURVE",
"676 96 OFFCURVE",
"496 96 CURVE SMOOTH",
"467 96 LINE SMOOTH"
);
}
);
width = 990;
},
{
layerId = "D42B5605-DB46-4B3B-8EA0-4CE7066523CE";
width = 600;
}
);
unicode = 00FE;
},
{
glyphname = q;
layers = (
{
anchors = (
{
name = bottom;
position = "{496, 0}";
},
{
name = top;
position = "{496, 985}";
}
);
layerId = "1D628CB9-BBF5-410A-9D74-9E6094BFE839";
paths = (
{
closed = 1;
nodes = (
"848 -389 LINE",
"848 985 LINE",
"752 985 LINE",
"721 923 LINE",
"620 985 OFFCURVE",
"550 1000 OFFCURVE",
"466 1000 CURVE SMOOTH",
"261 1000 OFFCURVE",
"112 866 OFFCURVE",
"112 493 CURVE SMOOTH",
"112 126 OFFCURVE",
"250 -10 OFFCURVE",
"487 -10 CURVE SMOOTH",
"536 -10 OFFCURVE",
"621 -8 OFFCURVE",
"720 41 CURVE",
"720 -389 LINE"
);
},
{
closed = 1;
nodes = (
"311 95 OFFCURVE",
"240 206 OFFCURVE",
"240 491 CURVE SMOOTH",
"240 767 OFFCURVE",
"321 895 OFFCURVE",
"478 895 CURVE SMOOTH",
"554 895 OFFCURVE",
"626 881 OFFCURVE",
"760 797 CURVE",
"720 866 LINE",
"720 92 LINE",
"754 158 LINE",
"663 110 OFFCURVE",
"604 95 OFFCURVE",
"491 95 CURVE SMOOTH"
);
}
);
width = 992;
},
{
anchors = (
{
name = bottom;
position = "{441, 0}";
},
{
name = top;
position = "{441, 985}";
}
);
layerId = "D42B5605-DB46-4B3B-8EA0-4CE7066523CE";
paths = (
{
closed = 1;
nodes = (
"278 995 OFFCURVE",
"56 921 OFFCURVE",
"56 492 CURVE SMOOTH",
"56 68 OFFCURVE",
"275 -15 OFFCURVE",
"479 -15 CURVE SMOOTH",
"591 -15 OFFCURVE",
"646 12 OFFCURVE",
"710 39 CURVE",
"710 -389 LINE",
"1038 -389 LINE",
"1038 985 LINE",
"744 985 LINE",
"724 921 LINE",
"663 952 OFFCURVE",
"577 995 OFFCURVE",
"463 995 CURVE SMOOTH"
);
},
{
closed = 1;
nodes = (
"618 708 OFFCURVE",
"700 675 OFFCURVE",
"849 576 CURVE",
"710 843 LINE",
"710 131 LINE",
"850 396 LINE",
"700 290 OFFCURVE",
"618 272 OFFCURVE",
"544 272 CURVE SMOOTH",
"438 272 OFFCURVE",
"384 327 OFFCURVE",
"384 489 CURVE SMOOTH",
"384 655 OFFCURVE",
"438 708 OFFCURVE",
"544 708 CURVE SMOOTH"
);
}
);
width = 1121;
}
);
unicode = 0071;
},
{
glyphname = r;
layers = (
{
anchors = (
{
name = bottom;
position = "{214, 0}";
},
{
name = top;
position = "{367, 985}";
}
);
layerId = "1D628CB9-BBF5-410A-9D74-9E6094BFE839";
paths = (
{
closed = 1;
nodes = (
"278 0 LINE",
"278 834 LINE",
"263 777 LINE",
"316 826 OFFCURVE",
"460 878 OFFCURVE",
"598 878 CURVE",
"598 1000 LINE",
"491 996 OFFCURVE",
"346 934 OFFCURVE",
"268 881 CURVE",
"246 985 LINE",
"150 985 LINE",
"150 0 LINE"
);
}
);
width = 664;
},
{
anchors = (
{
name = bottom;
position = "{233, 0}";
},
{
name = top;
position = "{449, 985}";
}
);
layerId = "D42B5605-DB46-4B3B-8EA0-4CE7066523CE";
paths = (
{
closed = 1;
nodes = (
"411 0 LINE",
"411 719 LINE",
"346 572 LINE",
"433 665 OFFCURVE",
"664 683 OFFCURVE",
"741 683 CURVE",
"741 1000 LINE",
"639 996 OFFCURVE",
"484 937 OFFCURVE",
"401 874 CURVE",
"369 985 LINE",
"83 985 LINE",
"83 0 LINE"
);
}
);
width = 778;
}
);
unicode = 0072;
},
{
glyphname = s;
layers = (
{
anchors = (
{
name = bottom;
position = "{423, 0}";
},
{
name = cedilla;
position = "{416, 0}";
},
{
name = top;
position = "{423, 985}";
}
);
guideLines = (
{
angle = 68.2748;
position = "{719, 889}";
},
{
angle = 68.2748;
position = "{316, 520}";
}
);
layerId = "1D628CB9-BBF5-410A-9D74-9E6094BFE839";
paths = (
{
closed = 1;
nodes = (
"613 -10 OFFCURVE",
"766 63 OFFCURVE",
"766 271 CURVE SMOOTH",
"766 432 OFFCURVE",
"683 496 OFFCURVE",
"545 540 CURVE SMOOTH",
"398 587 LINE SMOOTH",
"296 620 OFFCURVE",
"249 634 OFFCURVE",
"249 730 CURVE SMOOTH",
"249 852 OFFCURVE",
"328 895 OFFCURVE",
"458 895 CURVE SMOOTH",
"530 895 OFFCURVE",
"618 870 OFFCURVE",
"679 844 CURVE",
"717 942 LINE",
"639 978 OFFCURVE",
"543 1000 OFFCURVE",
"451 1000 CURVE SMOOTH",
"281 1000 OFFCURVE",
"127 926 OFFCURVE",
"127 735 CURVE SMOOTH",
"127 568 OFFCURVE",
"215 518 OFFCURVE",
"360 472 CURVE SMOOTH",
"510 425 LINE SMOOTH",
"610 394 OFFCURVE",
"641 364 OFFCURVE",
"641 265 CURVE SMOOTH",
"641 137 OFFCURVE",
"565 96 OFFCURVE",
"436 96 CURVE SMOOTH",
"336 96 OFFCURVE",
"218 137 OFFCURVE",
"153 168 CURVE",
"113 69 LINE",
"206 21 OFFCURVE",
"331 -10 OFFCURVE",
"442 -10 CURVE SMOOTH"
);
}
);
width = 846;
},
{
anchors = (
{
name = bottom;
position = "{459, -50}";
},
{
name = cedilla;
position = "{422, 0}";
},
{
name = top;
position = "{459, 1035}";
}
);
guideLines = (
{
angle = 68.2748;
position = "{4317, 1169}";
},
{
angle = 68.2748;
position = "{3751, 570}";
},
{
angle = 163.6996;
position = "{3814, 646}";
},
{
angle = 163.6996;
position = "{3646, 469}";
}
);
layerId = "D42B5605-DB46-4B3B-8EA0-4CE7066523CE";
paths = (
{
closed = 1;
nodes = (
"736 -10 OFFCURVE",
"852 126 OFFCURVE",
"852 304 CURVE SMOOTH",
"852 497 OFFCURVE",
"723 549 OFFCURVE",
"610 587 CURVE SMOOTH",
"489 628 LINE SMOOTH",
"370 668 OFFCURVE",
"360 671 OFFCURVE",
"360 698 CURVE SMOOTH",
"360 723 OFFCURVE",
"374 738 OFFCURVE",
"448 738 CURVE SMOOTH",
"533 738 OFFCURVE",
"615 727 OFFCURVE",
"727 691 CURVE",
"820 935 LINE",
"707 982 OFFCURVE",
"579 1000 OFFCURVE",
"457 1000 CURVE SMOOTH",
"173 1000 OFFCURVE",
"68 881 OFFCURVE",
"68 690 CURVE SMOOTH",
"68 523 OFFCURVE",
"152 456 OFFCURVE",
"278 415 CURVE SMOOTH",
"458 357 LINE SMOOTH",
"546 329 OFFCURVE",
"560 321 OFFCURVE",
"560 293 CURVE SMOOTH",
"560 263 OFFCURVE",
"533 255 OFFCURVE",
"485 255 CURVE SMOOTH",
"410 255 OFFCURVE",
"269 269 OFFCURVE",
"139 334 CURVE",
"45 90 LINE",
"197 10 OFFCURVE",
"317 -10 OFFCURVE",
"458 -10 CURVE SMOOTH"
);
}
);
width = 891;
}
);
unicode = 0073;
},
{
glyphname = germandbls;
layers = (
{
layerId = "1D628CB9-BBF5-410A-9D74-9E6094BFE839";
paths = (
{
closed = 1;
nodes = (
"792 -10 OFFCURVE",
"937 77 OFFCURVE",
"937 270 CURVE SMOOTH",
"937 558 OFFCURVE",
"541 557 OFFCURVE",
"541 674 CURVE SMOOTH",
"541 733 OFFCURVE",
"648 795 OFFCURVE",
"834 855 CURVE",
"834 1151 OFFCURVE",
"766 1301 OFFCURVE",
"485 1301 CURVE SMOOTH",
"249 1301 OFFCURVE",
"137 1172 OFFCURVE",
"137 912 CURVE SMOOTH",
"137 0 LINE",
"265 0 LINE",
"265 901 LINE SMOOTH",
"265 1100 OFFCURVE",
"326 1195 OFFCURVE",
"481 1195 CURVE SMOOTH",
"653 1195 OFFCURVE",
"697 1122 OFFCURVE",
"697 922 CURVE",
"548 850 OFFCURVE",
"415 784 OFFCURVE",
"415 664 CURVE SMOOTH",
"415 464 OFFCURVE",
"806 514 OFFCURVE",
"806 279 CURVE SMOOTH",
"806 150 OFFCURVE",
"720 95 OFFCURVE",
"615 95 CURVE SMOOTH",
"553 95 OFFCURVE",
"484 117 OFFCURVE",
"422 156 CURVE",
"384 66 LINE",
"459 16 OFFCURVE",
"545 -10 OFFCURVE",
"626 -10 CURVE SMOOTH"
);
}
);
width = 1005;
},
{
layerId = "D42B5605-DB46-4B3B-8EA0-4CE7066523CE";
width = 600;
}
);
unicode = 00DF;
},
{
glyphname = t;
layers = (
{
anchors = (
{
name = bottom;
position = "{454, 0}";
},
{
name = cedilla;
position = "{471, 0}";
},
{
name = top;
position = "{490, 1267}";
},
{
name = topright;
position = "{477, 1428}";
}
);
guideLines = (
{
angle = 270;
position = "{649, 680}";
},
{
position = "{159, 1267}";
}
);
layerId = "1D628CB9-BBF5-410A-9D74-9E6094BFE839";
paths = (
{
closed = 1;
nodes = (
"537 -10 OFFCURVE",
"601 -8 OFFCURVE",
"665 0 CURVE",
"650 100 LINE",
"623 98 OFFCURVE",
"572 95 OFFCURVE",
"510 95 CURVE SMOOTH",
"404 95 OFFCURVE",
"341 123 OFFCURVE",
"341 346 CURVE SMOOTH",
"341 934 LINE",
"296 889 LINE",
"649 889 LINE",
"649 985 LINE",
"296 985 LINE",
"341 940 LINE",
"341 1267 LINE",
"242 1267 LINE",
"213 940 LINE",
"262 985 LINE",
"60 985 LINE",
"60 889 LINE",
"258 889 LINE",
"213 934 LINE",
"213 348 LINE SMOOTH",
"213 119 OFFCURVE",
"262 -4 OFFCURVE",
"476 -10 CURVE"
);
}
);
width = 750;
},
{
anchors = (
{
name = bottom;
position = "{574, -50}";
},
{
name = cedilla;
position = "{637, 0}";
},
{
name = top;
position = "{760, 1267}";
},
{
name = topright;
position = "{747, 1428}";
}
);
guideLines = (
{
angle = 270;
position = "{870, 541}";
}
);
layerId = "D42B5605-DB46-4B3B-8EA0-4CE7066523CE";
paths = (
{
closed = 1;
nodes = (
"688 -10 OFFCURVE",
"810 -6 OFFCURVE",
"886 2 CURVE",
"861 280 LINE",
"834 278 OFFCURVE",
"771 275 OFFCURVE",
"731 275 CURVE SMOOTH",
"599 275 OFFCURVE",
"561 296 OFFCURVE",
"561 406 CURVE SMOOTH",
"561 834 LINE",
"416 689 LINE",
"870 689 LINE",
"870 985 LINE",
"416 985 LINE",
"561 840 LINE",
"561 1262 LINE",
"282 1262 LINE",
"233 840 LINE",
"382 985 LINE",
"40 985 LINE",
"40 689 LINE",
"378 689 LINE",
"233 834 LINE",
"233 406 LINE SMOOTH",
"233 213 OFFCURVE",
"283 -10 OFFCURVE",
"617 -10 CURVE SMOOTH"
);
}
);
width = 955;
}
);
unicode = 0074;
},
{
glyphname = tbar;
layers = (
{
layerId = "1D628CB9-BBF5-410A-9D74-9E6094BFE839";
paths = (
{
closed = 1;
nodes = (
"537 -10 OFFCURVE",
"601 -8 OFFCURVE",
"665 0 CURVE",
"660 103 LINE",
"633 99 OFFCURVE",
"572 96 OFFCURVE",
"510 96 CURVE SMOOTH",
"404 96 OFFCURVE",
"341 123 OFFCURVE",
"341 386 CURVE SMOOTH",
"341 551 LINE",
"564 551 LINE",
"564 641 LINE",
"341 641 LINE",
"341 895 LINE",
"649 895 LINE",
"649 985 LINE",
"341 985 LINE",
"341 1267 LINE",
"242 1267 LINE",
"217 985 LINE",
"60 985 LINE",
"60 895 LINE",
"213 895 LINE",
"213 641 LINE",
"76 641 LINE",
"76 551 LINE",
"213 551 LINE",
"213 388 LINE SMOOTH",
"213 119 OFFCURVE",
"262 -4 OFFCURVE",
"476 -10 CURVE"
);
}
);
width = 750;
},
{
layerId = "D42B5605-DB46-4B3B-8EA0-4CE7066523CE";
width = 600;
}
);
unicode = 0167;
},
{
glyphname = u;
layers = (
{
anchors = (
{
name = bottom;
position = "{497, 0}";
},
{
name = ogonek;
position = "{799, 0}";
},
{
name = top;
position = "{497, 985}";
},
{
name = topright;
position = "{854, 664}";
}
);
layerId = "1D628CB9-BBF5-410A-9D74-9E6094BFE839";
paths = (
{
closed = 1;
nodes = (
"523 -10 OFFCURVE",
"600 0 OFFCURVE",
"735 64 CURVE",
"753 0 LINE",
"849 0 LINE",
"849 985 LINE",
"721 985 LINE",
"721 118 LINE",
"759 185 LINE",
"619 97 OFFCURVE",
"521 95 OFFCURVE",
"439 95 CURVE SMOOTH",
"303 95 OFFCURVE",
"260 159 OFFCURVE",
"260 316 CURVE SMOOTH",
"260 985 LINE",
"132 985 LINE",
"132 321 LINE SMOOTH",
"132 93 OFFCURVE",
"223 -10 OFFCURVE",
"426 -10 CURVE SMOOTH"
);
}
);
width = 994;
},
{
anchors = (
{
name = bottom;
position = "{533, -50}";
},
{
name = ogonek;
position = "{845, 0}";
},
{
name = top;
position = "{532, 1035}";
},
{
name = topright;
position = "{1006, 664}";
}
);
layerId = "D42B5605-DB46-4B3B-8EA0-4CE7066523CE";
paths = (
{
closed = 1;
nodes = (
"683 985 LINE",
"683 150 LINE",
"820 410 LINE",
"669 294 OFFCURVE",
"595 275 OFFCURVE",
"521 275 CURVE SMOOTH",
"437 275 OFFCURVE",
"402 307 OFFCURVE",
"402 457 CURVE SMOOTH",
"402 985 LINE",
"74 985 LINE",
"74 327 LINE SMOOTH",
"74 94 OFFCURVE",
"231 -10 OFFCURVE",
"385 -10 CURVE SMOOTH",
"482 -10 OFFCURVE",
"576 0 OFFCURVE",
"697 64 CURVE",
"725 0 LINE",
"1011 0 LINE",
"1011 985 LINE"
);
}
);
width = 1094;
}
);
unicode = 0075;
},
{
glyphname = uhorn;
layers = (
{
anchors = (
{
name = _topright;
position = "{854, 664}";
},
{
name = bottom;
position = "{497, 0}";
},
{
name = ogonek;
position = "{799, 0}";
},
{
name = top;
position = "{497, 985}";
},
{
name = topright;
position = "{854, 664}";
}
);
layerId = "1D628CB9-BBF5-410A-9D74-9E6094BFE839";
paths = (
{
closed = 1;
nodes = (
"132 93 OFFCURVE",
"223 -10 OFFCURVE",
"426 -10 CURVE SMOOTH",
"523 -10 OFFCURVE",
"600 0 OFFCURVE",
"735 64 CURVE",
"744 0 LINE",
"849 0 LINE",
"849 776 LINE",
"806 737 LINE",
"864 756 LINE SMOOTH",
"986 797 OFFCURVE",
"1092 856 OFFCURVE",
"1092 981 CURVE SMOOTH",
"1092 1021 OFFCURVE",
"1085 1053 OFFCURVE",
"1075 1079 CURVE",
"943 1079 LINE",
"956 1051 OFFCURVE",
"964 1020 OFFCURVE",
"964 989 CURVE SMOOTH",
"964 913 OFFCURVE",
"925 870 OFFCURVE",
"854 839 CURVE SMOOTH",
"808 819 LINE",
"849 814 LINE",
"849 985 LINE",
"721 985 LINE",
"721 163 LINE",
"601 97 OFFCURVE",
"513 96 OFFCURVE",
"439 96 CURVE SMOOTH",
"303 96 OFFCURVE",
"260 159 OFFCURVE",
"260 316 CURVE SMOOTH",
"260 985 LINE",
"132 985 LINE",
"132 321 LINE SMOOTH"
);
}
);
width = 1046;
},
{
anchors = (
{
name = _topright;
position = "{850, 664}";
},
{
name = bottom;
position = "{493, 0}";
},
{
name = ogonek;
position = "{795, 0}";
},
{
name = top;
position = "{493, 985}";
},
{
name = topright;
position = "{850, 664}";
}
);
associatedMasterId = "1D628CB9-BBF5-410A-9D74-9E6094BFE839";
layerId = "20967BB6-E54A-4AF0-99B3-39F9609A1E13";
name = "Regular Jul 25 16, 11:48";
paths = (
{
closed = 1;
nodes = (
"519 -10 OFFCURVE",
"596 0 OFFCURVE",
"731 64 CURVE",
"740 0 LINE",
"845 0 LINE",
"845 985 LINE",
"717 985 LINE",
"717 163 LINE",
"597 97 OFFCURVE",
"509 96 OFFCURVE",
"435 96 CURVE SMOOTH",
"299 96 OFFCURVE",
"256 159 OFFCURVE",
"256 316 CURVE SMOOTH",
"256 985 LINE",
"128 985 LINE",
"128 321 LINE SMOOTH",
"128 93 OFFCURVE",
"219 -10 OFFCURVE",
"422 -10 CURVE SMOOTH"
);
},
{
closed = 1;
nodes = (
"860 756 LINE SMOOTH",
"982 797 OFFCURVE",
"1088 856 OFFCURVE",
"1088 981 CURVE SMOOTH",
"1088 1021 OFFCURVE",
"1081 1053 OFFCURVE",
"1071 1079 CURVE",
"939 1079 LINE",
"952 1051 OFFCURVE",
"960 1020 OFFCURVE",
"960 989 CURVE SMOOTH",
"960 913 OFFCURVE",
"921 870 OFFCURVE",
"850 839 CURVE SMOOTH",
"815 824 LINE",
"815 741 LINE"
);
}
);
width = 986;
},
{
layerId = "D42B5605-DB46-4B3B-8EA0-4CE7066523CE";
width = 600;
}
);
unicode = 01B0;
userData = {
com.schriftgestaltung.Glyphs.ColorIndex = 7;
};
},
{
glyphname = v;
layers = (
{
anchors = (
{
name = bottom;
position = "{460, 0}";
},
{
name = top;
position = "{460, 985}";
}
);
layerId = "1D628CB9-BBF5-410A-9D74-9E6094BFE839";
paths = (
{
closed = 1;
nodes = (
"535 0 LINE",
"851 985 LINE",
"720 985 LINE",
"454 94 LINE",
"481 94 LINE",
"199 985 LINE",
"69 985 LINE",
"398 0 LINE"
);
}
);
width = 920;
},
{
anchors = (
{
name = bottom;
position = "{542, 0}";
},
{
name = top;
position = "{542, 985}";
}
);
layerId = "D42B5605-DB46-4B3B-8EA0-4CE7066523CE";
paths = (
{
closed = 1;
nodes = (
"711 0 LINE",
"1057 985 LINE",
"728 985 LINE",
"509 225 LINE",
"579 225 LINE",
"343 985 LINE",
"15 985 LINE",
"374 0 LINE"
);
}
);
width = 1072;
}
);
unicode = 0076;
},
{
glyphname = w;
layers = (
{
anchors = (
{
name = bottom;
position = "{653, 0}";
},
{
name = top;
position = "{653, 985}";
}
);
layerId = "1D628CB9-BBF5-410A-9D74-9E6094BFE839";
paths = (
{
closed = 1;
nodes = (
"450 0 LINE",
"675 670 LINE",
"647 670 LINE",
"873 0 LINE",
"1013 0 LINE",
"1237 985 LINE",
"1112 985 LINE",
"925 69 LINE",
"948 70 LINE",
"720 763 LINE",
"602 763 LINE",
"371 70 LINE",
"395 69 LINE",
"194 985 LINE",
"69 985 LINE",
"308 0 LINE"
);
}
);
width = 1306;
},
{
anchors = (
{
name = bottom;
position = "{709, 0}";
},
{
name = top;
position = "{709, 985}";
}
);
guideLines = (
{
position = "{1390, 353}";
},
{
angle = -76.3628;
position = "{-23, 1143}";
},
{
angle = -76.3628;
position = "{272, 1132}";
},
{
angle = 256.3628;
position = "{1410, 1096}";
},
{
angle = 256.3628;
position = "{1115, 1085}";
},
{
angle = 270;
position = "{699, 51}";
}
);
layerId = "D42B5605-DB46-4B3B-8EA0-4CE7066523CE";
paths = (
{
closed = 1;
nodes = (
"506 0 LINE",
"736 588 LINE",
"662 588 LINE",
"892 0 LINE",
"1144 0 LINE",
"1383 985 LINE",
"1071 985 LINE",
"917 269 LINE",
"1044 270 LINE",
"828 893 LINE",
"570 893 LINE",
"367 270 LINE",
"481 269 LINE",
"328 985 LINE",
"15 985 LINE",
"254 0 LINE"
);
}
);
width = 1398;
}
);
unicode = 0077;
},
{
glyphname = x;
layers = (
{
anchors = (
{
name = bottom;
position = "{426, 0}";
},
{
name = top;
position = "{426, 985}";
}
);
layerId = "1D628CB9-BBF5-410A-9D74-9E6094BFE839";
paths = (
{
closed = 1;
nodes = (
"192 0 LINE",
"454 462 LINE",
"410 462 LINE",
"668 0 LINE",
"797 0 LINE",
"490 542 LINE",
"490 464 LINE",
"778 985 LINE",
"643 985 LINE",
"410 539 LINE",
"453 540 LINE",
"200 985 LINE",
"67 985 LINE",
"375 465 LINE",
"375 543 LINE",
"55 0 LINE"
);
}
);
width = 852;
},
{
anchors = (
{
name = bottom;
position = "{628, 0}";
},
{
name = top;
position = "{628, 985}";
}
);
layerId = "D42B5605-DB46-4B3B-8EA0-4CE7066523CE";
paths = (
{
closed = 1;
nodes = (
"359 0 LINE",
"571 362 LINE",
"527 362 LINE",
"735 0 LINE",
"1071 0 LINE",
"737 542 LINE",
"737 464 LINE",
"1052 985 LINE",
"710 985 LINE",
"527 639 LINE",
"570 640 LINE",
"367 985 LINE",
"27 985 LINE",
"362 465 LINE",
"362 543 LINE",
"15 0 LINE"
);
}
);
width = 1086;
}
);
unicode = 0078;
},
{
glyphname = y;
layers = (
{
anchors = (
{
name = bottom;
position = "{716, 0}";
},
{
name = top;
position = "{486, 985}";
}
);
layerId = "1D628CB9-BBF5-410A-9D74-9E6094BFE839";
paths = (
{
closed = 1;
nodes = (
"436 -390 OFFCURVE",
"490 -254 OFFCURVE",
"572 -16 CURVE SMOOTH",
"918 985 LINE",
"782 985 LINE",
"503 123 LINE",
"534 126 LINE",
"193 985 LINE",
"56 985 LINE",
"461 26 LINE",
"434 -55 LINE SMOOTH",
"396 -169 OFFCURVE",
"371 -279 OFFCURVE",
"280 -279 CURVE SMOOTH",
"250 -279 OFFCURVE",
"205 -270 OFFCURVE",
"145 -252 CURVE",
"144 -253 LINE",
"124 -355 LINE",
"184 -378 OFFCURVE",
"238 -390 OFFCURVE",
"289 -390 CURVE SMOOTH"
);
}
);
width = 971;
},
{
anchors = (
{
name = bottom;
position = "{940, 50}";
},
{
name = top;
position = "{550, 985}";
}
);
guideLines = (
{
angle = 253.4527;
position = "{649, 657}";
}
);
layerId = "D42B5605-DB46-4B3B-8EA0-4CE7066523CE";
paths = (
{
closed = 1;
nodes = (
"568 -390 OFFCURVE",
"642 -253 OFFCURVE",
"726 -16 CURVE SMOOTH",
"1082 985 LINE",
"746 985 LINE",
"514 202 LINE",
"631 202 LINE",
"346 985 LINE",
"10 985 LINE",
"414 24 LINE",
"397 -28 LINE SMOOTH",
"383 -72 OFFCURVE",
"345 -105 OFFCURVE",
"274 -105 CURVE SMOOTH",
"244 -105 OFFCURVE",
"159 -96 OFFCURVE",
"99 -78 CURVE",
"98 -79 LINE",
"78 -355 LINE",
"138 -378 OFFCURVE",
"248 -390 OFFCURVE",
"299 -390 CURVE SMOOTH"
);
}
);
width = 1107;
}
);
unicode = 0079;
},
{
glyphname = z;
layers = (
{
anchors = (
{
name = bottom;
position = "{424, 0}";
},
{
name = top;
position = "{438, 985}";
}
);
guideLines = (
{
angle = 90;
position = "{144, 940}";
},
{
angle = 270;
position = "{729, 45}";
},
{
angle = 98.2971;
position = "{88, 339}";
}
);
layerId = "1D628CB9-BBF5-410A-9D74-9E6094BFE839";
paths = (
{
closed = 1;
nodes = (
"729 0 LINE",
"729 90 LINE",
"219 90 LINE",
"238 51 LINE",
"714 900 LINE",
"704 985 LINE",
"144 985 LINE",
"144 895 LINE",
"620 895 LINE",
"601 934 LINE",
"123 96 LINE",
"137 0 LINE"
);
}
);
width = 807;
},
{
anchors = (
{
name = bottom;
position = "{480, -50}";
},
{
name = top;
position = "{487, 1035}";
}
);
guideLines = (
{
angle = -85.8095;
position = "{830, 890}";
},
{
angle = 180;
position = "{356, 700}";
},
{
position = "{568, 285}";
},
{
angle = 270;
position = "{883, 143}";
},
{
angle = 90;
position = "{73, 843}";
},
{
angle = -83.9217;
position = "{828, 1057}";
},
{
angle = -83.9217;
position = "{26, 470}";
}
);
layerId = "D42B5605-DB46-4B3B-8EA0-4CE7066523CE";
paths = (
{
closed = 1;
nodes = (
"883 0 LINE",
"883 285 LINE",
"268 285 LINE",
"346 147 LINE",
"859 740 LINE",
"836 985 LINE",
"73 985 LINE",
"73 700 LINE",
"639 700 LINE",
"577 855 LINE",
"53 245 LINE",
"76 0 LINE"
);
}
);
width = 928;
}
);
unicode = 007A;
},
{
glyphname = g.001;
layers = (
{
anchors = (
{
name = bottom;
position = "{550, 0}";
},
{
name = top;
position = "{543, 985}";
}
);
layerId = "1D628CB9-BBF5-410A-9D74-9E6094BFE839";
paths = (
{
closed = 1;
nodes = (
"873 -340 OFFCURVE",
"969 -168 OFFCURVE",
"969 -41 CURVE SMOOTH",
"969 97 OFFCURVE",
"904 165 OFFCURVE",
"686 165 CURVE SMOOTH",
"307 165 LINE",
"307 165 OFFCURVE",
"276 200 OFFCURVE",
"276 254 CURVE SMOOTH",
"276 301 OFFCURVE",
"310 362 OFFCURVE",
"342 414 CURVE",
"402 390 OFFCURVE",
"481 377 OFFCURVE",
"548 377 CURVE SMOOTH",
"767 377 OFFCURVE",
"918 491 OFFCURVE",
"918 674 CURVE SMOOTH",
"918 746 OFFCURVE",
"881 829 OFFCURVE",
"810 883 CURVE",
"1033 883 LINE",
"1033 977 LINE",
"746 977 LINE SMOOTH",
"667 977 OFFCURVE",
"630 1000 OFFCURVE",
"543 1000 CURVE SMOOTH",
"329 1000 OFFCURVE",
"154 909 OFFCURVE",
"154 688 CURVE SMOOTH",
"154 589 OFFCURVE",
"204 516 OFFCURVE",
"265 465 CURVE",
"197 369 OFFCURVE",
"162 313 OFFCURVE",
"162 237 CURVE SMOOTH",
"162 187 OFFCURVE",
"188 126 OFFCURVE",
"233 96 CURVE",
"193 73 OFFCURVE",
"122 -10 OFFCURVE",
"122 -93 CURVE SMOOTH",
"122 -184 OFFCURVE",
"186 -340 OFFCURVE",
"519 -340 CURVE SMOOTH"
);
},
{
closed = 1;
nodes = (
"262 -235 OFFCURVE",
"250 -145 OFFCURVE",
"250 -79 CURVE SMOOTH",
"250 -18 OFFCURVE",
"284 28 OFFCURVE",
"323 65 CURVE",
"702 65 LINE SMOOTH",
"829 65 OFFCURVE",
"849 18 OFFCURVE",
"849 -49 CURVE SMOOTH",
"849 -139 OFFCURVE",
"757 -235 OFFCURVE",
"525 -235 CURVE SMOOTH"
);
},
{
closed = 1;
nodes = (
"380 475 OFFCURVE",
"282 548 OFFCURVE",
"282 689 CURVE SMOOTH",
"282 811 OFFCURVE",
"355 905 OFFCURVE",
"549 905 CURVE SMOOTH",
"724 905 OFFCURVE",
"801 800 OFFCURVE",
"801 678 CURVE SMOOTH",
"801 542 OFFCURVE",
"708 475 OFFCURVE",
"539 475 CURVE SMOOTH"
);
}
);
width = 1100;
},
{
layerId = "D42B5605-DB46-4B3B-8EA0-4CE7066523CE";
width = 600;
}
);
userData = {
com.fontlab.hintData = {
hhints = (
{
position = -309;
width = 105;
},
{
position = 96;
width = 100;
},
{
position = 363;
width = 98;
},
{
position = 883;
width = 94;
},
{
position = 905;
width = 95;
}
);
vhints = (
{
position = 118;
width = 128;
},
{
position = 158;
width = 114;
},
{
position = 797;
width = 117;
},
{
position = 837;
width = 128;
}
);
};
};
},
{
glyphname = k.001;
layers = (
{
anchors = (
{
name = bottom;
position = "{503, 0}";
},
{
name = top;
position = "{473, 985}";
}
);
layerId = "1D628CB9-BBF5-410A-9D74-9E6094BFE839";
paths = (
{
closed = 1;
nodes = (
"272 0 LINE",
"272 377 LINE",
"363 458 LINE",
"764 0 LINE",
"912 0 LINE",
"460 522 LINE",
"876 985 LINE",
"723 985 LINE",
"524 760 OFFCURVE",
"374 603 OFFCURVE",
"272 494 CURVE",
"272 1358 LINE",
"144 1358 LINE",
"144 0 LINE"
);
}
);
width = 945;
},
{
layerId = "D42B5605-DB46-4B3B-8EA0-4CE7066523CE";
width = 600;
}
);
userData = {
com.fontlab.hintData = {
hhints = (
{
position = 0;
width = 21;
},
{
position = 965;
width = 20;
},
{
position = 1338;
width = 20;
}
);
vhints = (
{
position = 140;
width = 128;
}
);
};
};
},
{
glyphname = r.001;
layers = (
{
anchors = (
{
name = bottom;
position = "{214, 0}";
},
{
name = top;
position = "{367, 985}";
}
);
layerId = "1D628CB9-BBF5-410A-9D74-9E6094BFE839";
paths = (
{
closed = 1;
nodes = (
"278 0 LINE",
"278 804 LINE",
"319 834 OFFCURVE",
"408 910 OFFCURVE",
"495 910 CURVE SMOOTH",
"547 910 OFFCURVE",
"596 881 OFFCURVE",
"621 863 CURVE",
"678 949 LINE",
"603 997 OFFCURVE",
"561 1004 OFFCURVE",
"506 1004 CURVE",
"409 1004 OFFCURVE",
"311 925 OFFCURVE",
"268 896 CURVE",
"255 985 LINE",
"150 985 LINE",
"150 0 LINE"
);
}
);
width = 659;
},
{
layerId = "D42B5605-DB46-4B3B-8EA0-4CE7066523CE";
width = 600;
}
);
},
{
glyphname = f_f;
layers = (
{
layerId = "1D628CB9-BBF5-410A-9D74-9E6094BFE839";
paths = (
{
closed = 1;
nodes = (
"386 0 LINE",
"386 887 LINE",
"844 887 LINE",
"844 0 LINE",
"972 0 LINE",
"972 887 LINE",
"1206 887 LINE",
"1206 985 LINE",
"972 985 LINE",
"972 1250 OFFCURVE",
"1015 1289 OFFCURVE",
"1131 1289 CURVE SMOOTH",
"1169 1289 OFFCURVE",
"1250 1274 OFFCURVE",
"1272 1268 CURVE",
"1288 1368 LINE",
"1221 1391 OFFCURVE",
"1159 1394 OFFCURVE",
"1103 1394 CURVE",
"890 1387 OFFCURVE",
"844 1271 OFFCURVE",
"844 985 CURVE",
"386 985 LINE",
"386 1250 OFFCURVE",
"429 1289 OFFCURVE",
"545 1289 CURVE SMOOTH",
"583 1289 OFFCURVE",
"664 1274 OFFCURVE",
"686 1268 CURVE",
"702 1368 LINE",
"635 1391 OFFCURVE",
"573 1394 OFFCURVE",
"517 1394 CURVE",
"304 1387 OFFCURVE",
"258 1271 OFFCURVE",
"258 985 CURVE",
"91 985 LINE",
"91 887 LINE",
"258 887 LINE",
"258 0 LINE"
);
}
);
width = 1280;
},
{
layerId = "D42B5605-DB46-4B3B-8EA0-4CE7066523CE";
width = 600;
}
);
},
{
glyphname = f_f_i;
layers = (
{
layerId = "1D628CB9-BBF5-410A-9D74-9E6094BFE839";
paths = (
{
closed = 1;
nodes = (
"386 0 LINE",
"386 887 LINE",
"901 889 LINE",
"901 0 LINE",
"1029 0 LINE",
"1029 889 LINE",
"1578 889 LINE",
"1578 90 LINE",
"1386 90 LINE",
"1386 0 LINE",
"1898 0 LINE",
"1898 90 LINE",
"1706 90 LINE",
"1706 985 LINE",
"1029 985 LINE",
"1029 1250 OFFCURVE",
"1072 1289 OFFCURVE",
"1188 1289 CURVE SMOOTH",
"1226 1289 OFFCURVE",
"1307 1274 OFFCURVE",
"1329 1268 CURVE",
"1345 1368 LINE",
"1278 1391 OFFCURVE",
"1216 1394 OFFCURVE",
"1160 1394 CURVE",
"947 1387 OFFCURVE",
"901 1271 OFFCURVE",
"901 985 CURVE",
"386 985 LINE",
"386 1250 OFFCURVE",
"428 1289 OFFCURVE",
"544 1289 CURVE SMOOTH",
"582 1289 OFFCURVE",
"664 1274 OFFCURVE",
"686 1268 CURVE",
"702 1368 LINE",
"635 1391 OFFCURVE",
"572 1394 OFFCURVE",
"516 1394 CURVE",
"303 1387 OFFCURVE",
"258 1271 OFFCURVE",
"258 985 CURVE",
"91 985 LINE",
"91 887 LINE",
"258 887 LINE",
"258 0 LINE"
);
},
{
closed = 1;
nodes = (
"1695 1176 OFFCURVE",
"1732 1206 OFFCURVE",
"1732 1266 CURVE SMOOTH",
"1732 1326 OFFCURVE",
"1695 1356 OFFCURVE",
"1642 1356 CURVE SMOOTH",
"1591 1356 OFFCURVE",
"1551 1321 OFFCURVE",
"1551 1264 CURVE SMOOTH",
"1551 1208 OFFCURVE",
"1591 1176 OFFCURVE",
"1642 1176 CURVE SMOOTH"
);
}
);
width = 1952;
},
{
layerId = "D42B5605-DB46-4B3B-8EA0-4CE7066523CE";
width = 600;
}
);
},
{
glyphname = f_f_ij;
layers = (
{
layerId = "1D628CB9-BBF5-410A-9D74-9E6094BFE839";
paths = (
{
closed = 1;
nodes = (
"386 0 LINE",
"386 887 LINE",
"901 889 LINE",
"901 0 LINE",
"1029 0 LINE",
"1029 889 LINE",
"1578 889 LINE",
"1578 90 LINE",
"1386 90 LINE",
"1386 0 LINE",
"1898 0 LINE",
"1898 90 LINE",
"1706 90 LINE",
"1706 985 LINE",
"1029 985 LINE",
"1029 1250 OFFCURVE",
"1072 1289 OFFCURVE",
"1188 1289 CURVE SMOOTH",
"1226 1289 OFFCURVE",
"1307 1274 OFFCURVE",
"1329 1268 CURVE",
"1345 1368 LINE",
"1278 1391 OFFCURVE",
"1216 1394 OFFCURVE",
"1160 1394 CURVE",
"947 1387 OFFCURVE",
"901 1271 OFFCURVE",
"901 985 CURVE",
"386 985 LINE",
"386 1250 OFFCURVE",
"428 1289 OFFCURVE",
"544 1289 CURVE SMOOTH",
"582 1289 OFFCURVE",
"664 1274 OFFCURVE",
"686 1268 CURVE",
"702 1368 LINE",
"635 1391 OFFCURVE",
"572 1394 OFFCURVE",
"516 1394 CURVE",
"303 1387 OFFCURVE",
"258 1271 OFFCURVE",
"258 985 CURVE",
"91 985 LINE",
"91 887 LINE",
"258 887 LINE",
"258 0 LINE"
);
},
{
closed = 1;
nodes = (
"2324 -295 OFFCURVE",
"2413 -203 OFFCURVE",
"2413 18 CURVE SMOOTH",
"2413 985 LINE",
"2061 985 LINE",
"2061 895 LINE",
"2285 895 LINE",
"2285 28 LINE SMOOTH",
"2285 -123 OFFCURVE",
"2261 -182 OFFCURVE",
"2148 -182 CURVE SMOOTH",
"2085 -182 OFFCURVE",
"2045 -177 OFFCURVE",
"2000 -166 CURVE",
"1984 -275 LINE",
"2039 -291 OFFCURVE",
"2095 -295 OFFCURVE",
"2152 -295 CURVE SMOOTH"
);
},
{
closed = 1;
nodes = (
"1695 1176 OFFCURVE",
"1732 1206 OFFCURVE",
"1732 1266 CURVE SMOOTH",
"1732 1326 OFFCURVE",
"1695 1356 OFFCURVE",
"1642 1356 CURVE SMOOTH",
"1591 1356 OFFCURVE",
"1551 1321 OFFCURVE",
"1551 1264 CURVE SMOOTH",
"1551 1208 OFFCURVE",
"1591 1176 OFFCURVE",
"1642 1176 CURVE SMOOTH"
);
},
{
closed = 1;
nodes = (
"2395 1176 OFFCURVE",
"2432 1206 OFFCURVE",
"2432 1266 CURVE SMOOTH",
"2432 1326 OFFCURVE",
"2395 1356 OFFCURVE",
"2342 1356 CURVE SMOOTH",
"2291 1356 OFFCURVE",
"2251 1321 OFFCURVE",
"2251 1264 CURVE SMOOTH",
"2251 1208 OFFCURVE",
"2291 1176 OFFCURVE",
"2342 1176 CURVE SMOOTH"
);
}
);
width = 2576;
},
{
layerId = "D42B5605-DB46-4B3B-8EA0-4CE7066523CE";
width = 600;
}
);
userData = {
com.schriftgestaltung.Glyphs.leftMetricsKey = f;
com.schriftgestaltung.Glyphs.rightMetricsKey = "=j";
};
},
{
glyphname = f_f_l;
layers = (
{
layerId = "1D628CB9-BBF5-410A-9D74-9E6094BFE839";
paths = (
{
closed = 1;
nodes = (
"386 0 LINE",
"386 887 LINE",
"846 887 LINE",
"846 0 LINE",
"974 0 LINE",
"974 887 LINE",
"1208 887 LINE",
"1208 985 LINE",
"974 985 LINE",
"974 1229 OFFCURVE",
"1039 1262 OFFCURVE",
"1223 1262 CURVE SMOOTH",
"1536 1262 LINE",
"1536 90 LINE",
"1313 90 LINE",
"1313 0 LINE",
"1875 0 LINE",
"1875 90 LINE",
"1664 90 LINE",
"1664 1358 LINE",
"1195 1358 LINE SMOOTH",
"908 1358 OFFCURVE",
"846 1246 OFFCURVE",
"846 985 CURVE",
"386 985 LINE",
"386 1250 OFFCURVE",
"429 1289 OFFCURVE",
"545 1289 CURVE SMOOTH",
"583 1289 OFFCURVE",
"664 1274 OFFCURVE",
"686 1268 CURVE",
"702 1368 LINE",
"635 1391 OFFCURVE",
"573 1394 OFFCURVE",
"517 1394 CURVE",
"304 1387 OFFCURVE",
"258 1271 OFFCURVE",
"258 985 CURVE",
"91 985 LINE",
"91 887 LINE",
"258 887 LINE",
"258 0 LINE"
);
}
);
width = 1929;
},
{
layerId = "D42B5605-DB46-4B3B-8EA0-4CE7066523CE";
width = 600;
}
);
},
{
glyphname = f_ij;
layers = (
{
layerId = "1D628CB9-BBF5-410A-9D74-9E6094BFE839";
paths = (
{
closed = 1;
nodes = (
"386 0 LINE",
"386 887 LINE",
"951 887 LINE",
"951 90 LINE",
"759 90 LINE",
"759 0 LINE",
"1271 0 LINE",
"1271 90 LINE",
"1079 90 LINE",
"1079 985 LINE",
"386 985 LINE",
"386 1250 OFFCURVE",
"429 1289 OFFCURVE",
"545 1289 CURVE SMOOTH",
"583 1289 OFFCURVE",
"664 1274 OFFCURVE",
"686 1268 CURVE",
"702 1368 LINE",
"635 1391 OFFCURVE",
"573 1394 OFFCURVE",
"517 1394 CURVE",
"304 1387 OFFCURVE",
"258 1271 OFFCURVE",
"258 985 CURVE",
"91 985 LINE",
"91 887 LINE",
"258 887 LINE",
"258 0 LINE"
);
},
{
closed = 1;
nodes = (
"1697 -295 OFFCURVE",
"1786 -203 OFFCURVE",
"1786 18 CURVE SMOOTH",
"1786 985 LINE",
"1434 985 LINE",
"1434 895 LINE",
"1658 895 LINE",
"1658 28 LINE SMOOTH",
"1658 -123 OFFCURVE",
"1634 -182 OFFCURVE",
"1521 -182 CURVE SMOOTH",
"1458 -182 OFFCURVE",
"1418 -177 OFFCURVE",
"1373 -166 CURVE",
"1357 -275 LINE",
"1412 -291 OFFCURVE",
"1468 -295 OFFCURVE",
"1525 -295 CURVE SMOOTH"
);
},
{
closed = 1;
nodes = (
"1068 1176 OFFCURVE",
"1105 1206 OFFCURVE",
"1105 1266 CURVE SMOOTH",
"1105 1326 OFFCURVE",
"1068 1356 OFFCURVE",
"1015 1356 CURVE SMOOTH",
"964 1356 OFFCURVE",
"924 1321 OFFCURVE",
"924 1264 CURVE SMOOTH",
"924 1208 OFFCURVE",
"964 1176 OFFCURVE",
"1015 1176 CURVE SMOOTH"
);
},
{
closed = 1;
nodes = (
"1768 1176 OFFCURVE",
"1805 1206 OFFCURVE",
"1805 1266 CURVE SMOOTH",
"1805 1326 OFFCURVE",
"1768 1356 OFFCURVE",
"1715 1356 CURVE SMOOTH",
"1664 1356 OFFCURVE",
"1624 1321 OFFCURVE",
"1624 1264 CURVE SMOOTH",
"1624 1208 OFFCURVE",
"1664 1176 OFFCURVE",
"1715 1176 CURVE SMOOTH"
);
}
);
width = 1949;
},
{
layerId = "D42B5605-DB46-4B3B-8EA0-4CE7066523CE";
width = 600;
}
);
userData = {
com.schriftgestaltung.Glyphs.leftMetricsKey = f;
com.schriftgestaltung.Glyphs.rightMetricsKey = "=j";
};
},
{
glyphname = fi;
layers = (
{
layerId = "1D628CB9-BBF5-410A-9D74-9E6094BFE839";
paths = (
{
closed = 1;
nodes = (
"386 0 LINE",
"386 887 LINE",
"951 887 LINE",
"951 90 LINE",
"759 90 LINE",
"759 0 LINE",
"1271 0 LINE",
"1271 90 LINE",
"1079 90 LINE",
"1079 985 LINE",
"386 985 LINE",
"386 1250 OFFCURVE",
"429 1289 OFFCURVE",
"545 1289 CURVE SMOOTH",
"583 1289 OFFCURVE",
"664 1274 OFFCURVE",
"686 1268 CURVE",
"702 1368 LINE",
"635 1391 OFFCURVE",
"573 1394 OFFCURVE",
"517 1394 CURVE",
"304 1387 OFFCURVE",
"258 1271 OFFCURVE",
"258 985 CURVE",
"91 985 LINE",
"91 887 LINE",
"258 887 LINE",
"258 0 LINE"
);
},
{
closed = 1;
nodes = (
"1068 1176 OFFCURVE",
"1105 1206 OFFCURVE",
"1105 1266 CURVE SMOOTH",
"1105 1326 OFFCURVE",
"1068 1356 OFFCURVE",
"1015 1356 CURVE SMOOTH",
"964 1356 OFFCURVE",
"924 1321 OFFCURVE",
"924 1264 CURVE SMOOTH",
"924 1208 OFFCURVE",
"964 1176 OFFCURVE",
"1015 1176 CURVE SMOOTH"
);
}
);
width = 1325;
},
{
layerId = "D42B5605-DB46-4B3B-8EA0-4CE7066523CE";
width = 600;
}
);
unicode = FB01;
},
{
glyphname = fl;
layers = (
{
layerId = "1D628CB9-BBF5-410A-9D74-9E6094BFE839";
paths = (
{
closed = 1;
nodes = (
"386 0 LINE",
"386 887 LINE",
"620 887 LINE",
"620 985 LINE",
"386 985 LINE",
"386 1231 OFFCURVE",
"453 1262 OFFCURVE",
"635 1262 CURVE SMOOTH",
"983 1262 LINE",
"983 90 LINE",
"760 90 LINE",
"760 0 LINE",
"1322 0 LINE",
"1322 90 LINE",
"1111 90 LINE",
"1111 1358 LINE",
"607 1358 LINE SMOOTH",
"320 1358 OFFCURVE",
"258 1246 OFFCURVE",
"258 985 CURVE",
"91 985 LINE",
"91 887 LINE",
"258 887 LINE",
"258 0 LINE"
);
}
);
width = 1376;
},
{
layerId = "D42B5605-DB46-4B3B-8EA0-4CE7066523CE";
width = 600;
}
);
unicode = FB02;
},
{
glyphname = ordfeminine;
layers = (
{
layerId = "1D628CB9-BBF5-410A-9D74-9E6094BFE839";
paths = (
{
closed = 1;
nodes = (
"414 681 OFFCURVE",
"481 712 OFFCURVE",
"511 737 CURVE",
"524 687 LINE",
"599 687 LINE",
"599 1105 LINE SMOOTH",
"599 1292 OFFCURVE",
"505 1353 OFFCURVE",
"380 1353 CURVE SMOOTH",
"315 1353 OFFCURVE",
"239 1338 OFFCURVE",
"170 1314 CURVE",
"187 1235 LINE",
"252 1252 OFFCURVE",
"321 1270 OFFCURVE",
"376 1270 CURVE SMOOTH",
"460 1270 OFFCURVE",
"503 1245 OFFCURVE",
"503 1093 CURVE SMOOTH",
"503 1055 LINE",
"430 1069 OFFCURVE",
"411 1072 OFFCURVE",
"378 1072 CURVE SMOOTH",
"198 1072 OFFCURVE",
"132 955 OFFCURVE",
"132 866 CURVE SMOOTH",
"132 743 OFFCURVE",
"220 681 OFFCURVE",
"342 681 CURVE SMOOTH"
);
},
{
closed = 1;
nodes = (
"268 761 OFFCURVE",
"225 792 OFFCURVE",
"225 872 CURVE SMOOTH",
"225 967 OFFCURVE",
"305 997 OFFCURVE",
"407 997 CURVE SMOOTH",
"436 997 OFFCURVE",
"461 994 OFFCURVE",
"503 980 CURVE",
"503 804 LINE",
"466 780 OFFCURVE",
"415 761 OFFCURVE",
"356 761 CURVE SMOOTH"
);
}
);
width = 738;
},
{
layerId = "D42B5605-DB46-4B3B-8EA0-4CE7066523CE";
width = 600;
}
);
unicode = 00AA;
},
{
glyphname = ordmasculine;
layers = (
{
layerId = "1D628CB9-BBF5-410A-9D74-9E6094BFE839";
paths = (
{
closed = 1;
nodes = (
"560 679 OFFCURVE",
"630 806 OFFCURVE",
"630 1017 CURVE SMOOTH",
"630 1237 OFFCURVE",
"557 1349 OFFCURVE",
"377 1349 CURVE",
"377 1350 LINE",
"197 1350 OFFCURVE",
"127 1224 OFFCURVE",
"127 1015 CURVE SMOOTH",
"127 778 OFFCURVE",
"220 679 OFFCURVE",
"377 679 CURVE SMOOTH"
);
},
{
closed = 1;
nodes = (
"248 768 OFFCURVE",
"219 857 OFFCURVE",
"219 1016 CURVE SMOOTH",
"219 1190 OFFCURVE",
"250 1264 OFFCURVE",
"377 1264 CURVE SMOOTH",
"505 1264 OFFCURVE",
"538 1185 OFFCURVE",
"538 1016 CURVE SMOOTH",
"538 843 OFFCURVE",
"508 768 OFFCURVE",
"377 768 CURVE SMOOTH"
);
}
);
width = 762;
},
{
layerId = "D42B5605-DB46-4B3B-8EA0-4CE7066523CE";
width = 600;
}
);
unicode = 00BA;
},
{
glyphname = Delta;
layers = (
{
layerId = "1D628CB9-BBF5-410A-9D74-9E6094BFE839";
paths = (
{
closed = 1;
nodes = (
"974 0 LINE",
"644 1339 LINE",
"468 1339 LINE",
"117 0 LINE"
);
},
{
closed = 1;
nodes = (
"543 1245 LINE",
"567 1245 LINE",
"842 102 LINE",
"250 102 LINE"
);
}
);
width = 1090;
},
{
layerId = "D42B5605-DB46-4B3B-8EA0-4CE7066523CE";
width = 600;
}
);
unicode = 0394;
},
{
glyphname = Omega;
layers = (
{
guideLines = (
{
position = "{483, 102}";
},
{
position = "{483, 93}";
}
);
layerId = "1D628CB9-BBF5-410A-9D74-9E6094BFE839";
paths = (
{
closed = 1;
nodes = (
"903 0 LINE",
"903 93 LINE",
"720 93 LINE",
"720 102 LINE",
"867 214 OFFCURVE",
"917 396 OFFCURVE",
"917 710 CURVE SMOOTH",
"917 1085 OFFCURVE",
"850 1363 OFFCURVE",
"530 1363 CURVE SMOOTH",
"198 1363 OFFCURVE",
"143 1071 OFFCURVE",
"143 675 CURVE SMOOTH",
"143 391 OFFCURVE",
"197 210 OFFCURVE",
"340 102 CURVE",
"340 93 LINE",
"169 93 LINE",
"169 1 LINE",
"477 1 LINE",
"477 103 LINE",
"314 166 OFFCURVE",
"250 413 OFFCURVE",
"250 660 CURVE",
"250 1025 OFFCURVE",
"300 1249 OFFCURVE",
"530 1256 CURVE",
"776 1245 OFFCURVE",
"808 1025 OFFCURVE",
"808 660 CURVE",
"809 659 LINE",
"809 413 OFFCURVE",
"734 158 OFFCURVE",
"584 102 CURVE",
"584 0 LINE"
);
}
);
width = 1063;
},
{
layerId = "D42B5605-DB46-4B3B-8EA0-4CE7066523CE";
width = 600;
}
);
unicode = 03A9;
},
{
glyphname = mu;
layers = (
{
layerId = "1D628CB9-BBF5-410A-9D74-9E6094BFE839";
paths = (
{
closed = 1;
nodes = (
"255 -262 OFFCURVE",
"266 -183 OFFCURVE",
"266 -68 CURVE",
"266 55 LINE",
"302 8 OFFCURVE",
"370 -23 OFFCURVE",
"445 -23 CURVE SMOOTH",
"524 -23 OFFCURVE",
"589 4 OFFCURVE",
"652 43 CURVE",
"737 100 LINE",
"737 0 LINE",
"843 0 LINE",
"843 985 LINE",
"734 985 LINE",
"734 414 LINE SMOOTH",
"734 352 OFFCURVE",
"728 274 OFFCURVE",
"715 180 CURVE",
"619 120 OFFCURVE",
"559 92 OFFCURVE",
"458 92 CURVE SMOOTH",
"325 92 OFFCURVE",
"275 177 OFFCURVE",
"275 344 CURVE SMOOTH",
"275 985 LINE",
"164 985 LINE",
"164 -66 LINE SMOOTH",
"164 -162 OFFCURVE",
"155 -243 OFFCURVE",
"136 -309 CURVE",
"137 -309 LINE",
"235 -328 LINE"
);
}
);
width = 993;
},
{
layerId = "D42B5605-DB46-4B3B-8EA0-4CE7066523CE";
width = 600;
}
);
unicode = 03BC;
},
{
glyphname = pi;
layers = (
{
layerId = "1D628CB9-BBF5-410A-9D74-9E6094BFE839";
paths = (
{
closed = 1;
nodes = (
"386 0 LINE",
"417 297 OFFCURVE",
"434 600 OFFCURVE",
"439 909 CURVE",
"797 909 LINE",
"797 270 LINE SMOOTH",
"797 178 OFFCURVE",
"801 88 OFFCURVE",
"808 0 CURVE",
"921 0 LINE",
"914 83 OFFCURVE",
"910 177 OFFCURVE",
"910 280 CURVE SMOOTH",
"910 910 LINE",
"1088 910 LINE",
"1088 1019 LINE",
"386 1019 LINE SMOOTH",
"278 1019 OFFCURVE",
"189 1013 OFFCURVE",
"118 1000 CURVE",
"117 999 LINE",
"126 897 LINE",
"183 905 OFFCURVE",
"250 909 OFFCURVE",
"327 909 CURVE",
"320 573 OFFCURVE",
"302 270 OFFCURVE",
"273 0 CURVE"
);
}
);
width = 1213;
},
{
layerId = "D42B5605-DB46-4B3B-8EA0-4CE7066523CE";
paths = (
{
closed = 1;
nodes = (
"482 0 LINE",
"513 297 OFFCURVE",
"530 600 OFFCURVE",
"535 709 CURVE",
"693 709 LINE",
"693 270 LINE SMOOTH",
"693 178 OFFCURVE",
"697 88 OFFCURVE",
"704 0 CURVE",
"1017 0 LINE",
"1010 83 OFFCURVE",
"1006 177 OFFCURVE",
"1006 280 CURVE SMOOTH",
"1006 710 LINE",
"1184 710 LINE",
"1184 1019 LINE",
"382 1019 LINE SMOOTH",
"174 1019 OFFCURVE",
"85 1013 OFFCURVE",
"14 1000 CURVE",
"13 999 LINE",
"22 697 LINE",
"79 705 OFFCURVE",
"146 709 OFFCURVE",
"223 709 CURVE",
"216 573 OFFCURVE",
"198 270 OFFCURVE",
"169 0 CURVE"
);
}
);
width = 1205;
}
);
unicode = 03C0;
},
{
glyphname = zero;
layers = (
{
layerId = "1D628CB9-BBF5-410A-9D74-9E6094BFE839";
paths = (
{
closed = 1;
nodes = (
"842 -10 OFFCURVE",
"909 289 OFFCURVE",
"909 646 CURVE SMOOTH",
"909 1003 OFFCURVE",
"844 1301 OFFCURVE",
"511 1301 CURVE SMOOTH",
"184 1301 OFFCURVE",
"111 1030 OFFCURVE",
"111 646 CURVE SMOOTH",
"111 293 OFFCURVE",
"175 -10 OFFCURVE",
"511 -10 CURVE SMOOTH"
);
},
{
closed = 1;
nodes = (
"271 96 OFFCURVE",
"239 310 OFFCURVE",
"239 646 CURVE SMOOTH",
"239 938 OFFCURVE",
"259 1195 OFFCURVE",
"511 1195 CURVE SMOOTH",
"749 1195 OFFCURVE",
"781 983 OFFCURVE",
"781 646 CURVE SMOOTH",
"781 402 OFFCURVE",
"777 96 OFFCURVE",
"511 96 CURVE SMOOTH"
);
}
);
width = 1020;
},
{
layerId = "D42B5605-DB46-4B3B-8EA0-4CE7066523CE";
paths = (
{
closed = 1;
nodes = (
"942 -10 OFFCURVE",
"1059 239 OFFCURVE",
"1059 646 CURVE SMOOTH",
"1059 1053 OFFCURVE",
"944 1301 OFFCURVE",
"561 1301 CURVE SMOOTH",
"184 1301 OFFCURVE",
"61 1080 OFFCURVE",
"61 646 CURVE SMOOTH",
"61 243 OFFCURVE",
"175 -10 OFFCURVE",
"561 -10 CURVE SMOOTH"
);
},
{
closed = 1;
nodes = (
"421 296 OFFCURVE",
"389 410 OFFCURVE",
"389 646 CURVE SMOOTH",
"389 838 OFFCURVE",
"409 995 OFFCURVE",
"561 995 CURVE SMOOTH",
"699 995 OFFCURVE",
"731 883 OFFCURVE",
"731 646 CURVE SMOOTH",
"731 502 OFFCURVE",
"727 296 OFFCURVE",
"561 296 CURVE SMOOTH"
);
}
);
width = 1120;
}
);
unicode = 0030;
},
{
glyphname = one;
layers = (
{
guideLines = (
{
angle = 24.6948;
position = "{480, 1309}";
},
{
angle = 112.494;
position = "{148, 1209}";
},
{
angle = 270;
position = "{187, 743}";
}
);
layerId = "1D628CB9-BBF5-410A-9D74-9E6094BFE839";
paths = (
{
closed = 1;
nodes = (
"731 0 LINE",
"731 101 LINE",
"516 101 LINE",
"516 1284 LINE",
"403 1284 LINE",
"143 1165 LINE",
"181 1074 LINE",
"388 1167 LINE",
"388 101 LINE",
"164 101 LINE",
"164 0 LINE"
);
}
);
width = 830;
},
{
layerId = "D42B5605-DB46-4B3B-8EA0-4CE7066523CE";
paths = (
{
closed = 1;
nodes = (
"995 0 LINE",
"995 285 LINE",
"732 285 LINE",
"732 1284 LINE",
"419 1284 LINE",
"50 1107 LINE",
"166 844 LINE",
"404 957 LINE",
"404 285 LINE",
"112 285 LINE",
"112 0 LINE"
);
}
);
width = 1042;
}
);
unicode = 0031;
},
{
glyphname = two;
layers = (
{
layerId = "1D628CB9-BBF5-410A-9D74-9E6094BFE839";
paths = (
{
closed = 1;
nodes = (
"841 0 LINE",
"831 110 LINE",
"259 110 LINE",
"281 250 OFFCURVE",
"383 343 OFFCURVE",
"488 448 CURVE SMOOTH",
"652 612 OFFCURVE",
"828 748 OFFCURVE",
"828 956 CURVE SMOOTH",
"828 1144 OFFCURVE",
"732 1301 OFFCURVE",
"477 1301 CURVE SMOOTH",
"328 1301 OFFCURVE",
"230 1271 OFFCURVE",
"132 1226 CURVE",
"172 1115 LINE",
"195 1127 OFFCURVE",
"329 1185 OFFCURVE",
"464 1185 CURVE SMOOTH",
"636 1185 OFFCURVE",
"701 1100 OFFCURVE",
"701 952 CURVE SMOOTH",
"701 807 OFFCURVE",
"576 698 OFFCURVE",
"456 584 CURVE SMOOTH",
"293 429 OFFCURVE",
"117 269 OFFCURVE",
"115 0 CURVE"
);
}
);
width = 969;
},
{
layerId = "D42B5605-DB46-4B3B-8EA0-4CE7066523CE";
paths = (
{
closed = 1;
nodes = (
"937 0 LINE",
"897 285 LINE",
"455 285 LINE",
"473 347 OFFCURVE",
"526 382 OFFCURVE",
"631 487 CURVE SMOOTH",
"689 545 OFFCURVE",
"924 723 OFFCURVE",
"924 931 CURVE SMOOTH",
"924 1189 OFFCURVE",
"783 1301 OFFCURVE",
"443 1301 CURVE SMOOTH",
"246 1301 OFFCURVE",
"146 1261 OFFCURVE",
"48 1216 CURVE",
"138 953 LINE",
"161 965 OFFCURVE",
"295 1016 OFFCURVE",
"430 1016 CURVE SMOOTH",
"531 1016 OFFCURVE",
"596 993 OFFCURVE",
"596 901 CURVE SMOOTH",
"596 793 OFFCURVE",
"508 743 OFFCURVE",
"383 629 CURVE SMOOTH",
"217 477 OFFCURVE",
"11 292 OFFCURVE",
"11 0 CURVE"
);
}
);
width = 961;
}
);
unicode = 0032;
},
{
glyphname = three;
layers = (
{
guideLines = (
{
position = "{240, 732}";
},
{
position = "{725, 1301}";
},
{
position = "{361, -10}";
},
{
position = "{2218, 349}";
}
);
layerId = "1D628CB9-BBF5-410A-9D74-9E6094BFE839";
paths = (
{
closed = 1;
nodes = (
"668 -10 OFFCURVE",
"875 96 OFFCURVE",
"875 349 CURVE SMOOTH",
"875 550 OFFCURVE",
"757 665 OFFCURVE",
"593 685 CURVE",
"750 725 OFFCURVE",
"823 841 OFFCURVE",
"823 985 CURVE SMOOTH",
"823 1188 OFFCURVE",
"676 1301 OFFCURVE",
"452 1301 CURVE SMOOTH",
"355 1301 OFFCURVE",
"249 1282 OFFCURVE",
"136 1245 CURVE",
"163 1144 LINE",
"262 1178 OFFCURVE",
"360 1195 OFFCURVE",
"457 1195 CURVE SMOOTH",
"614 1195 OFFCURVE",
"695 1120 OFFCURVE",
"695 980 CURVE SMOOTH",
"695 845 OFFCURVE",
"616 732 OFFCURVE",
"445 732 CURVE SMOOTH",
"388 732 OFFCURVE",
"355 732 OFFCURVE",
"287 732 CURVE",
"289 626 LINE",
"338 627 OFFCURVE",
"411 627 OFFCURVE",
"464 627 CURVE SMOOTH",
"626 627 OFFCURVE",
"747 532 OFFCURVE",
"747 349 CURVE SMOOTH",
"747 180 OFFCURVE",
"616 96 OFFCURVE",
"450 96 CURVE SMOOTH",
"366 96 OFFCURVE",
"253 111 OFFCURVE",
"163 145 CURVE",
"136 40 LINE",
"235 3 OFFCURVE",
"338 -10 OFFCURVE",
"445 -10 CURVE SMOOTH"
);
}
);
width = 1010;
},
{
layerId = "D42B5605-DB46-4B3B-8EA0-4CE7066523CE";
paths = (
{
closed = 1;
nodes = (
"814 -10 OFFCURVE",
"959 131 OFFCURVE",
"959 374 CURVE SMOOTH",
"959 517 OFFCURVE",
"841 655 OFFCURVE",
"677 675 CURVE",
"834 715 OFFCURVE",
"907 794 OFFCURVE",
"907 975 CURVE SMOOTH",
"907 1188 OFFCURVE",
"727 1301 OFFCURVE",
"472 1301 CURVE SMOOTH",
"365 1301 OFFCURVE",
"230 1283 OFFCURVE",
"80 1230 CURVE",
"146 962 LINE",
"282 1003 OFFCURVE",
"400 1008 OFFCURVE",
"441 1008 CURVE SMOOTH",
"524 1008 OFFCURVE",
"579 977 OFFCURVE",
"579 910 CURVE SMOOTH",
"579 829 OFFCURVE",
"529 792 OFFCURVE",
"404 792 CURVE SMOOTH",
"251 792 LINE",
"253 536 LINE",
"408 537 LINE SMOOTH",
"574 538 OFFCURVE",
"631 478 OFFCURVE",
"631 405 CURVE SMOOTH",
"631 326 OFFCURVE",
"595 265 OFFCURVE",
"454 265 CURVE SMOOTH",
"350 265 OFFCURVE",
"227 297 OFFCURVE",
"140 322 CURVE",
"80 60 LINE",
"209 13 OFFCURVE",
"342 -10 OFFCURVE",
"489 -10 CURVE SMOOTH"
);
}
);
width = 1019;
}
);
unicode = 0033;
},
{
glyphname = four;
layers = (
{
layerId = "1D628CB9-BBF5-410A-9D74-9E6094BFE839";
paths = (
{
closed = 1;
nodes = (
"740 0 LINE",
"740 260 LINE",
"900 260 LINE",
"900 360 LINE",
"740 360 LINE",
"740 837 LINE",
"612 837 LINE",
"612 360 LINE",
"205 360 LINE",
"540 1284 LINE",
"415 1284 LINE",
"68 356 LINE",
"68 260 LINE",
"612 260 LINE",
"612 0 LINE"
);
}
);
width = 1010;
},
{
layerId = "D42B5605-DB46-4B3B-8EA0-4CE7066523CE";
paths = (
{
closed = 1;
nodes = (
"927 0 LINE",
"927 175 LINE",
"1062 175 LINE",
"1062 460 LINE",
"927 460 LINE",
"927 807 LINE",
"619 807 LINE",
"619 460 LINE",
"402 460 LINE",
"717 1284 LINE",
"377 1284 LINE",
"50 456 LINE",
"50 175 LINE",
"619 175 LINE",
"619 0 LINE"
);
}
);
width = 1107;
}
);
unicode = 0034;
},
{
glyphname = five;
layers = (
{
guideLines = (
{
angle = 76.5576;
position = "{221, 312}";
},
{
angle = 90;
position = "{183, 961}";
}
);
layerId = "1D628CB9-BBF5-410A-9D74-9E6094BFE839";
paths = (
{
closed = 1;
nodes = (
"696 -10 OFFCURVE",
"868 105 OFFCURVE",
"868 375 CURVE SMOOTH",
"868 644 OFFCURVE",
"717 789 OFFCURVE",
"508 789 CURVE SMOOTH",
"429 789 OFFCURVE",
"387 773 OFFCURVE",
"281 728 CURVE",
"296 1178 LINE",
"800 1178 LINE",
"800 1284 LINE",
"183 1284 LINE",
"183 637 LINE",
"254 608 LINE",
"373 667 OFFCURVE",
"422 683 OFFCURVE",
"507 683 CURVE SMOOTH",
"635 683 OFFCURVE",
"740 594 OFFCURVE",
"740 377 CURVE SMOOTH",
"740 182 OFFCURVE",
"638 96 OFFCURVE",
"454 96 CURVE SMOOTH",
"364 96 OFFCURVE",
"233 129 OFFCURVE",
"161 159 CURVE",
"135 54 LINE",
"204 24 OFFCURVE",
"351 -10 OFFCURVE",
"447 -10 CURVE SMOOTH"
);
}
);
width = 1007;
},
{
guideLines = (
{
angle = 76.5576;
position = "{174, 287}";
},
{
angle = 90;
position = "{132, 951}";
}
);
layerId = "D42B5605-DB46-4B3B-8EA0-4CE7066523CE";
paths = (
{
closed = 1;
nodes = (
"868 -10 OFFCURVE",
"1017 171 OFFCURVE",
"1017 431 CURVE SMOOTH",
"1017 699 OFFCURVE",
"858 859 OFFCURVE",
"627 859 CURVE SMOOTH",
"545 859 OFFCURVE",
"496 838 OFFCURVE",
"430 817 CURVE",
"445 999 LINE",
"949 999 LINE",
"949 1284 LINE",
"132 1284 LINE",
"132 617 LINE",
"363 522 LINE",
"445 555 OFFCURVE",
"476 574 OFFCURVE",
"546 574 CURVE SMOOTH",
"634 574 OFFCURVE",
"689 526 OFFCURVE",
"689 431 CURVE SMOOTH",
"689 304 OFFCURVE",
"605 275 OFFCURVE",
"490 275 CURVE SMOOTH",
"400 275 OFFCURVE",
"314 291 OFFCURVE",
"131 366 CURVE",
"49 98 LINE",
"213 24 OFFCURVE",
"355 -10 OFFCURVE",
"524 -10 CURVE SMOOTH"
);
}
);
width = 1064;
}
);
unicode = 0035;
},
{
glyphname = six;
layers = (
{
layerId = "1D628CB9-BBF5-410A-9D74-9E6094BFE839";
paths = (
{
closed = 1;
nodes = (
"715 -10 OFFCURVE",
"852 148 OFFCURVE",
"852 421 CURVE SMOOTH",
"852 698 OFFCURVE",
"706 821 OFFCURVE",
"518 821 CURVE SMOOTH",
"420 821 OFFCURVE",
"328 802 OFFCURVE",
"235 727 CURVE",
"246 996 OFFCURVE",
"377 1168 OFFCURVE",
"723 1193 CURVE",
"703 1301 LINE",
"315 1262 OFFCURVE",
"100 1106 OFFCURVE",
"100 551 CURVE SMOOTH",
"100 190 OFFCURVE",
"211 -10 OFFCURVE",
"483 -10 CURVE SMOOTH"
);
},
{
closed = 1;
nodes = (
"298 96 OFFCURVE",
"228 241 OFFCURVE",
"228 529 CURVE SMOOTH",
"228 613 LINE",
"336 692 OFFCURVE",
"416 715 OFFCURVE",
"503 715 CURVE SMOOTH",
"646 715 OFFCURVE",
"724 628 OFFCURVE",
"724 422 CURVE SMOOTH",
"724 197 OFFCURVE",
"646 96 OFFCURVE",
"478 96 CURVE SMOOTH"
);
}
);
width = 1006;
},
{
layerId = "D42B5605-DB46-4B3B-8EA0-4CE7066523CE";
paths = (
{
closed = 1;
nodes = (
"864 -10 OFFCURVE",
"1003 169 OFFCURVE",
"1003 461 CURVE SMOOTH",
"1003 691 OFFCURVE",
"871 853 OFFCURVE",
"625 853 CURVE SMOOTH",
"527 853 OFFCURVE",
"460 841 OFFCURVE",
"386 798 CURVE",
"415 932 OFFCURVE",
"513 1023 OFFCURVE",
"849 1049 CURVE",
"802 1308 LINE",
"280 1295 OFFCURVE",
"61 1073 OFFCURVE",
"61 558 CURVE SMOOTH",
"61 197 OFFCURVE",
"198 -10 OFFCURVE",
"544 -10 CURVE SMOOTH"
);
},
{
closed = 1;
nodes = (
"416 260 OFFCURVE",
"379 358 OFFCURVE",
"379 512 CURVE SMOOTH",
"379 531 LINE",
"410 556 OFFCURVE",
"457 597 OFFCURVE",
"544 597 CURVE SMOOTH",
"629 597 OFFCURVE",
"685 554 OFFCURVE",
"685 451 CURVE SMOOTH",
"685 328 OFFCURVE",
"647 260 OFFCURVE",
"539 260 CURVE SMOOTH"
);
}
);
width = 1067;
}
);
unicode = 0036;
},
{
glyphname = seven;
layers = (
{
layerId = "1D628CB9-BBF5-410A-9D74-9E6094BFE839";
paths = (
{
closed = 1;
nodes = (
"383 0 LINE",
"383 477 OFFCURVE",
"648 1011 OFFCURVE",
"793 1198 CURVE",
"783 1301 LINE",
"100 1301 LINE",
"100 1195 LINE",
"652 1195 LINE",
"425 853 OFFCURVE",
"257 373 OFFCURVE",
"247 0 CURVE"
);
}
);
width = 883;
},
{
guideLines = (
{
angle = -83.9217;
position = "{881, 1475}";
}
);
layerId = "D42B5605-DB46-4B3B-8EA0-4CE7066523CE";
paths = (
{
closed = 1;
nodes = (
"521 0 LINE",
"521 457 OFFCURVE",
"855 901 OFFCURVE",
"930 1018 CURVE",
"900 1301 LINE",
"17 1301 LINE",
"17 1016 LINE",
"589 1016 LINE",
"372 784 OFFCURVE",
"194 373 OFFCURVE",
"184 0 CURVE"
);
}
);
width = 947;
}
);
unicode = 0037;
},
{
glyphname = eight;
layers = (
{
layerId = "1D628CB9-BBF5-410A-9D74-9E6094BFE839";
paths = (
{
closed = 1;
nodes = (
"711 -10 OFFCURVE",
"900 89 OFFCURVE",
"900 306 CURVE SMOOTH",
"900 496 OFFCURVE",
"787 597 OFFCURVE",
"658 665 CURVE",
"804 727 OFFCURVE",
"900 863 OFFCURVE",
"900 998 CURVE SMOOTH",
"900 1197 OFFCURVE",
"727 1301 OFFCURVE",
"532 1301 CURVE SMOOTH",
"338 1301 OFFCURVE",
"164 1211 OFFCURVE",
"164 994 CURVE SMOOTH",
"164 825 OFFCURVE",
"270 736 OFFCURVE",
"387 675 CURVE",
"217 597 OFFCURVE",
"132 445 OFFCURVE",
"132 304 CURVE SMOOTH",
"132 93 OFFCURVE",
"307 -10 OFFCURVE",
"516 -10 CURVE SMOOTH"
);
},
{
closed = 1;
nodes = (
"373 96 OFFCURVE",
"260 157 OFFCURVE",
"260 317 CURVE SMOOTH",
"260 440 OFFCURVE",
"337 546 OFFCURVE",
"496 626 CURVE",
"629 568 OFFCURVE",
"772 487 OFFCURVE",
"772 321 CURVE SMOOTH",
"772 152 OFFCURVE",
"650 96 OFFCURVE",
"516 96 CURVE SMOOTH"
);
},
{
closed = 1;
nodes = (
"412 776 OFFCURVE",
"292 840 OFFCURVE",
"292 989 CURVE SMOOTH",
"292 1149 OFFCURVE",
"408 1195 OFFCURVE",
"534 1195 CURVE SMOOTH",
"700 1195 OFFCURVE",
"772 1107 OFFCURVE",
"772 987 CURVE SMOOTH",
"772 875 OFFCURVE",
"680 761 OFFCURVE",
"549 716 CURVE"
);
}
);
width = 1042;
},
{
guideLines = (
{
angle = 90;
position = "{555, 1200}";
}
);
layerId = "D42B5605-DB46-4B3B-8EA0-4CE7066523CE";
paths = (
{
closed = 1;
nodes = (
"862 -10 OFFCURVE",
"1023 126 OFFCURVE",
"1023 333 CURVE SMOOTH",
"1023 503 OFFCURVE",
"950 557 OFFCURVE",
"791 655 CURVE",
"937 742 OFFCURVE",
"1023 825 OFFCURVE",
"1023 974 CURVE SMOOTH",
"1023 1138 OFFCURVE",
"883 1301 OFFCURVE",
"555 1301 CURVE SMOOTH",
"182 1301 OFFCURVE",
"87 1138 OFFCURVE",
"87 971 CURVE SMOOTH",
"87 825 OFFCURVE",
"173 741 OFFCURVE",
"300 665 CURVE",
"130 557 OFFCURVE",
"55 501 OFFCURVE",
"55 331 CURVE SMOOTH",
"55 124 OFFCURVE",
"246 -10 OFFCURVE",
"555 -10 CURVE SMOOTH"
);
},
{
closed = 1;
nodes = (
"469 275 OFFCURVE",
"383 314 OFFCURVE",
"383 383 CURVE SMOOTH",
"383 412 OFFCURVE",
"393 453 OFFCURVE",
"519 516 CURVE",
"652 458 OFFCURVE",
"695 443 OFFCURVE",
"695 383 CURVE SMOOTH",
"695 323 OFFCURVE",
"641 275 OFFCURVE",
"555 275 CURVE SMOOTH"
);
},
{
closed = 1;
nodes = (
"506 835 OFFCURVE",
"415 864 OFFCURVE",
"415 934 CURVE SMOOTH",
"415 974 OFFCURVE",
"454 1016 OFFCURVE",
"555 1016 CURVE SMOOTH",
"656 1016 OFFCURVE",
"695 974 OFFCURVE",
"695 934 CURVE SMOOTH",
"695 885 OFFCURVE",
"662 854 OFFCURVE",
"572 806 CURVE"
);
}
);
width = 1078;
}
);
unicode = 0038;
},
{
glyphname = nine;
layers = (
{
layerId = "1D628CB9-BBF5-410A-9D74-9E6094BFE839";
paths = (
{
closed = 1;
nodes = (
"237 1301 OFFCURVE",
"100 1143 OFFCURVE",
"100 870 CURVE SMOOTH",
"100 593 OFFCURVE",
"244 467 OFFCURVE",
"434 467 CURVE SMOOTH",
"532 467 OFFCURVE",
"625 490 OFFCURVE",
"717 568 CURVE",
"706 299 OFFCURVE",
"575 123 OFFCURVE",
"229 98 CURVE",
"249 -10 LINE",
"637 29 OFFCURVE",
"852 185 OFFCURVE",
"852 740 CURVE SMOOTH",
"852 1101 OFFCURVE",
"741 1301 OFFCURVE",
"469 1301 CURVE SMOOTH"
);
},
{
closed = 1;
nodes = (
"654 1195 OFFCURVE",
"724 1050 OFFCURVE",
"724 762 CURVE SMOOTH",
"724 682 LINE",
"617 600 OFFCURVE",
"536 573 OFFCURVE",
"449 573 CURVE SMOOTH",
"304 573 OFFCURVE",
"228 663 OFFCURVE",
"228 869 CURVE SMOOTH",
"228 1094 OFFCURVE",
"306 1195 OFFCURVE",
"474 1195 CURVE SMOOTH"
);
}
);
width = 1010;
},
{
layerId = "D42B5605-DB46-4B3B-8EA0-4CE7066523CE";
paths = (
{
closed = 1;
nodes = (
"203 1308 OFFCURVE",
"64 1129 OFFCURVE",
"64 837 CURVE SMOOTH",
"64 607 OFFCURVE",
"196 445 OFFCURVE",
"442 445 CURVE SMOOTH",
"540 445 OFFCURVE",
"607 457 OFFCURVE",
"681 500 CURVE",
"652 366 OFFCURVE",
"554 275 OFFCURVE",
"218 249 CURVE",
"265 -10 LINE",
"787 3 OFFCURVE",
"1006 225 OFFCURVE",
"1006 740 CURVE SMOOTH",
"1006 1101 OFFCURVE",
"869 1308 OFFCURVE",
"523 1308 CURVE SMOOTH"
);
},
{
closed = 1;
nodes = (
"651 1038 OFFCURVE",
"688 940 OFFCURVE",
"688 786 CURVE SMOOTH",
"688 767 LINE",
"661 744 OFFCURVE",
"610 701 OFFCURVE",
"523 701 CURVE SMOOTH",
"438 701 OFFCURVE",
"382 744 OFFCURVE",
"382 847 CURVE SMOOTH",
"382 970 OFFCURVE",
"420 1038 OFFCURVE",
"528 1038 CURVE SMOOTH"
);
}
);
width = 1067;
}
);
unicode = 0039;
},
{
glyphname = four.001;
layers = (
{
layerId = "1D628CB9-BBF5-410A-9D74-9E6094BFE839";
paths = (
{
closed = 1;
nodes = (
"740 0 LINE",
"740 260 LINE",
"900 260 LINE",
"900 360 LINE",
"740 360 LINE",
"740 747 LINE",
"612 747 LINE",
"612 360 LINE",
"218 360 LINE",
"436 637 OFFCURVE",
"540 976 OFFCURVE",
"540 1284 CURVE",
"415 1284 LINE",
"415 975 OFFCURVE",
"290 634 OFFCURVE",
"68 356 CURVE",
"68 260 LINE",
"612 260 LINE",
"612 0 LINE"
);
}
);
width = 1010;
},
{
layerId = "D42B5605-DB46-4B3B-8EA0-4CE7066523CE";
paths = (
{
closed = 1;
nodes = (
"942 0 LINE",
"942 175 LINE",
"1062 175 LINE",
"1062 460 LINE",
"942 460 LINE",
"942 747 LINE",
"634 747 LINE",
"634 460 LINE",
"391 460 LINE",
"576 685 OFFCURVE",
"674 999 OFFCURVE",
"684 1284 CURVE",
"347 1284 LINE",
"347 998 OFFCURVE",
"249 682 OFFCURVE",
"50 456 CURVE",
"50 175 LINE",
"634 175 LINE",
"634 0 LINE"
);
}
);
width = 1107;
}
);
},
{
glyphname = five.001;
layers = (
{
guideLines = (
{
angle = 76.5576;
position = "{221, 312}";
},
{
angle = 90;
position = "{183, 961}";
}
);
layerId = "1D628CB9-BBF5-410A-9D74-9E6094BFE839";
paths = (
{
closed = 1;
nodes = (
"696 -10 OFFCURVE",
"868 125 OFFCURVE",
"868 375 CURVE SMOOTH",
"868 624 OFFCURVE",
"722 789 OFFCURVE",
"498 789 CURVE SMOOTH",
"419 789 OFFCURVE",
"347 773 OFFCURVE",
"281 728 CURVE",
"296 1178 LINE",
"800 1178 LINE",
"800 1284 LINE",
"183 1284 LINE",
"183 637 LINE",
"254 608 LINE",
"333 667 OFFCURVE",
"412 683 OFFCURVE",
"497 683 CURVE SMOOTH",
"650 683 OFFCURVE",
"740 574 OFFCURVE",
"740 377 CURVE SMOOTH",
"740 202 OFFCURVE",
"638 96 OFFCURVE",
"454 96 CURVE SMOOTH",
"364 96 OFFCURVE",
"231 126 OFFCURVE",
"161 159 CURVE",
"135 50 LINE",
"202 17 OFFCURVE",
"351 -10 OFFCURVE",
"447 -10 CURVE SMOOTH"
);
}
);
width = 1007;
},
{
guideLines = (
{
angle = 76.5576;
position = "{174, 287}";
},
{
angle = 90;
position = "{132, 951}";
}
);
layerId = "D42B5605-DB46-4B3B-8EA0-4CE7066523CE";
paths = (
{
closed = 1;
nodes = (
"858 -10 OFFCURVE",
"1017 181 OFFCURVE",
"1017 431 CURVE SMOOTH",
"1017 659 OFFCURVE",
"868 859 OFFCURVE",
"637 859 CURVE SMOOTH",
"555 859 OFFCURVE",
"496 852 OFFCURVE",
"430 817 CURVE",
"445 999 LINE",
"949 999 LINE",
"949 1284 LINE",
"132 1284 LINE",
"132 617 LINE",
"363 522 LINE",
"445 569 OFFCURVE",
"476 574 OFFCURVE",
"546 574 CURVE SMOOTH",
"634 574 OFFCURVE",
"689 506 OFFCURVE",
"689 431 CURVE SMOOTH",
"689 304 OFFCURVE",
"575 275 OFFCURVE",
"460 275 CURVE SMOOTH",
"370 275 OFFCURVE",
"315 295 OFFCURVE",
"132 380 CURVE",
"49 108 LINE",
"213 24 OFFCURVE",
"315 -10 OFFCURVE",
"524 -10 CURVE SMOOTH"
);
},
{
closed = 0;
nodes = (
"353 -45 LINE",
"414 -76 OFFCURVE",
"501 -110 OFFCURVE",
"615 -110 CURVE SMOOTH",
"790 -110 OFFCURVE",
"1020 -36 OFFCURVE",
"1020 393 CURVE SMOOTH",
"1020 817 OFFCURVE",
"813 900 OFFCURVE",
"619 900 CURVE SMOOTH",
"501 900 OFFCURVE",
"430 873 OFFCURVE",
"366 846 CURVE"
);
},
{
closed = 0;
nodes = (
"226 460 LINE",
"379 591 OFFCURVE",
"466 615 OFFCURVE",
"534 615 CURVE SMOOTH",
"634 615 OFFCURVE",
"692 569 OFFCURVE",
"692 396 CURVE SMOOTH",
"692 227 OFFCURVE",
"632 172 OFFCURVE",
"534 172 CURVE SMOOTH",
"460 172 OFFCURVE",
"376 190 OFFCURVE",
"227 294 CURVE"
);
}
);
width = 1064;
}
);
},
{
glyphname = zero.zero;
layers = (
{
layerId = "1D628CB9-BBF5-410A-9D74-9E6094BFE839";
paths = (
{
closed = 1;
nodes = (
"373 106 LINE",
"756 1164 LINE",
"654 1164 LINE",
"274 106 LINE"
);
},
{
closed = 1;
nodes = (
"842 -10 OFFCURVE",
"909 289 OFFCURVE",
"909 646 CURVE SMOOTH",
"909 1003 OFFCURVE",
"844 1301 OFFCURVE",
"511 1301 CURVE SMOOTH",
"184 1301 OFFCURVE",
"111 1030 OFFCURVE",
"111 646 CURVE SMOOTH",
"111 293 OFFCURVE",
"175 -10 OFFCURVE",
"511 -10 CURVE SMOOTH"
);
},
{
closed = 1;
nodes = (
"271 96 OFFCURVE",
"239 310 OFFCURVE",
"239 646 CURVE SMOOTH",
"239 938 OFFCURVE",
"259 1195 OFFCURVE",
"511 1195 CURVE SMOOTH",
"749 1195 OFFCURVE",
"781 983 OFFCURVE",
"781 646 CURVE SMOOTH",
"781 402 OFFCURVE",
"777 96 OFFCURVE",
"511 96 CURVE SMOOTH"
);
}
);
width = 1020;
},
{
layerId = "D42B5605-DB46-4B3B-8EA0-4CE7066523CE";
width = 600;
}
);
},
{
glyphname = onesuperior;
layers = (
{
layerId = "1D628CB9-BBF5-410A-9D74-9E6094BFE839";
paths = (
{
closed = 1;
nodes = (
"560 488 LINE",
"560 593 LINE",
"414 593 LINE",
"414 1404 LINE",
"320 1404 LINE",
"93 1307 LINE",
"137 1222 LINE",
"302 1293 LINE",
"302 593 LINE",
"133 593 LINE",
"133 488 LINE"
);
}
);
width = 661;
},
{
layerId = "D42B5605-DB46-4B3B-8EA0-4CE7066523CE";
width = 600;
}
);
unicode = 00B9;
},
{
glyphname = twosuperior;
layers = (
{
layerId = "1D628CB9-BBF5-410A-9D74-9E6094BFE839";
paths = (
{
closed = 1;
nodes = (
"650 489 LINE",
"643 593 LINE",
"258 593 LINE",
"274 693 OFFCURVE",
"337 735 OFFCURVE",
"412 810 CURVE SMOOTH",
"530 928 OFFCURVE",
"648 1025 OFFCURVE",
"648 1174 CURVE SMOOTH",
"648 1309 OFFCURVE",
"560 1421 OFFCURVE",
"377 1421 CURVE SMOOTH",
"271 1421 OFFCURVE",
"208 1389 OFFCURVE",
"137 1357 CURVE",
"173 1274 LINE",
"190 1282 OFFCURVE",
"272 1327 OFFCURVE",
"368 1327 CURVE SMOOTH",
"492 1327 OFFCURVE",
"543 1277 OFFCURVE",
"543 1171 CURVE SMOOTH",
"543 1067 OFFCURVE",
"455 989 OFFCURVE",
"370 907 CURVE SMOOTH",
"253 797 OFFCURVE",
"126 682 OFFCURVE",
"125 489 CURVE"
);
}
);
width = 783;
},
{
layerId = "D42B5605-DB46-4B3B-8EA0-4CE7066523CE";
width = 600;
}
);
unicode = 00B2;
},
{
glyphname = threesuperior;
layers = (
{
layerId = "1D628CB9-BBF5-410A-9D74-9E6094BFE839";
paths = (
{
closed = 1;
nodes = (
"489 485 OFFCURVE",
"647 554 OFFCURVE",
"647 746 CURVE SMOOTH",
"647 890 OFFCURVE",
"543 969 OFFCURVE",
"444 981 CURVE",
"543 1007 OFFCURVE",
"608 1088 OFFCURVE",
"608 1191 CURVE SMOOTH",
"608 1336 OFFCURVE",
"494 1421 OFFCURVE",
"334 1421 CURVE SMOOTH",
"264 1421 OFFCURVE",
"189 1407 OFFCURVE",
"109 1381 CURVE",
"133 1289 LINE",
"203 1313 OFFCURVE",
"269 1326 OFFCURVE",
"338 1326 CURVE SMOOTH",
"434 1326 OFFCURVE",
"498 1283 OFFCURVE",
"498 1187 CURVE SMOOTH",
"498 1091 OFFCURVE",
"434 1018 OFFCURVE",
"330 1018 CURVE SMOOTH",
"289 1018 OFFCURVE",
"267 1018 OFFCURVE",
"219 1018 CURVE",
"219 936 LINE",
"255 937 OFFCURVE",
"305 937 OFFCURVE",
"343 937 CURVE SMOOTH",
"458 937 OFFCURVE",
"537 875 OFFCURVE",
"537 745 CURVE SMOOTH",
"537 632 OFFCURVE",
"451 581 OFFCURVE",
"333 581 CURVE SMOOTH",
"273 581 OFFCURVE",
"196 590 OFFCURVE",
"133 615 CURVE",
"109 521 LINE",
"179 495 OFFCURVE",
"254 485 OFFCURVE",
"330 485 CURVE SMOOTH"
);
}
);
width = 744;
},
{
layerId = "D42B5605-DB46-4B3B-8EA0-4CE7066523CE";
width = 600;
}
);
unicode = 00B3;
},
{
glyphname = foursuperior;
layers = (
{
layerId = "1D628CB9-BBF5-410A-9D74-9E6094BFE839";
paths = (
{
closed = 1;
nodes = (
"548 488 LINE",
"548 670 LINE",
"663 670 LINE",
"663 765 LINE",
"548 765 LINE",
"548 1057 LINE",
"444 1057 LINE",
"444 765 LINE",
"167 765 LINE",
"406 1404 LINE",
"307 1404 LINE",
"59 762 LINE",
"59 670 LINE",
"444 670 LINE",
"444 488 LINE"
);
}
);
width = 717;
},
{
layerId = "D42B5605-DB46-4B3B-8EA0-4CE7066523CE";
width = 600;
}
);
unicode = 2074;
},
{
glyphname = fraction;
layers = (
{
layerId = "1D628CB9-BBF5-410A-9D74-9E6094BFE839";
paths = (
{
closed = 1;
nodes = (
"219 0 LINE",
"684 1284 LINE",
"577 1284 LINE",
"113 0 LINE"
);
}
);
width = 822;
},
{
layerId = "D42B5605-DB46-4B3B-8EA0-4CE7066523CE";
paths = (
{
closed = 1;
nodes = (
"415 0 LINE",
"880 1284 LINE",
"573 1284 LINE",
"109 0 LINE"
);
}
);
width = 1014;
}
);
unicode = 2044;
},
{
glyphname = asterisk;
layers = (
{
layerId = "1D628CB9-BBF5-410A-9D74-9E6094BFE839";
paths = (
{
closed = 1;
nodes = (
"464 989 LINE",
"639 753 LINE",
"712 807 LINE",
"538 1043 LINE",
"816 1138 LINE",
"790 1223 LINE",
"510 1130 LINE",
"510 1425 LINE",
"419 1425 LINE",
"419 1130 LINE",
"138 1223 LINE",
"112 1137 LINE",
"390 1043 LINE",
"217 807 LINE",
"290 753 LINE"
);
}
);
width = 931;
},
{
layerId = "D42B5605-DB46-4B3B-8EA0-4CE7066523CE";
width = 600;
}
);
unicode = 002A;
},
{
glyphname = backslash;
layers = (
{
guideLines = (
{
angle = 201.7852;
position = "{257, 1509}";
},
{
angle = 201.7852;
position = "{1080, 5}";
}
);
layerId = "1D628CB9-BBF5-410A-9D74-9E6094BFE839";
paths = (
{
closed = 1;
nodes = (
"721 -129 LINE",
"841 -81 LINE",
"206 1498 LINE",
"87 1450 LINE"
);
}
);
width = 945;
},
{
guideLines = (
{
angle = 201.7852;
position = "{210, 1421}";
},
{
angle = 201.7852;
position = "{536, -201}";
}
);
layerId = "D42B5605-DB46-4B3B-8EA0-4CE7066523CE";
paths = (
{
closed = 1;
nodes = (
"717 -129 LINE",
"1009 -12 LINE",
"402 1498 LINE",
"111 1381 LINE"
);
}
);
width = 1137;
}
);
unicode = 005C;
},
{
glyphname = periodcentered;
layers = (
{
guideLines = (
{
position = "{-979, 546}";
}
);
layerId = "1D628CB9-BBF5-410A-9D74-9E6094BFE839";
paths = (
{
closed = 1;
nodes = (
"379 546 LINE",
"379 738 LINE",
"219 738 LINE",
"219 546 LINE"
);
}
);
width = 460;
},
{
layerId = "D42B5605-DB46-4B3B-8EA0-4CE7066523CE";
paths = (
{
closed = 1;
nodes = (
"475 426 LINE",
"475 858 LINE",
"115 858 LINE",
"115 426 LINE"
);
}
);
width = 600;
}
);
unicode = 00B7;
},
{
glyphname = bullet;
layers = (
{
layerId = "1D628CB9-BBF5-410A-9D74-9E6094BFE839";
paths = (
{
closed = 1;
nodes = (
"472 374 OFFCURVE",
"565 467 OFFCURVE",
"565 582 CURVE SMOOTH",
"565 697 OFFCURVE",
"472 790 OFFCURVE",
"357 790 CURVE SMOOTH",
"242 790 OFFCURVE",
"149 697 OFFCURVE",
"149 582 CURVE SMOOTH",
"149 467 OFFCURVE",
"242 374 OFFCURVE",
"357 374 CURVE SMOOTH"
);
}
);
width = 715;
},
{
layerId = "D42B5605-DB46-4B3B-8EA0-4CE7066523CE";
paths = (
{
closed = 1;
nodes = (
"701 224 OFFCURVE",
"861 384 OFFCURVE",
"861 582 CURVE SMOOTH",
"861 780 OFFCURVE",
"701 940 OFFCURVE",
"503 940 CURVE SMOOTH",
"305 940 OFFCURVE",
"145 780 OFFCURVE",
"145 582 CURVE SMOOTH",
"145 384 OFFCURVE",
"305 224 OFFCURVE",
"503 224 CURVE SMOOTH"
);
}
);
width = 1007;
}
);
unicode = 2022;
},
{
glyphname = colon;
layers = (
{
guideLines = (
{
position = "{-979, 546}";
}
);
layerId = "1D628CB9-BBF5-410A-9D74-9E6094BFE839";
paths = (
{
closed = 1;
nodes = (
"312 546 LINE",
"312 748 LINE",
"149 748 LINE",
"149 546 LINE"
);
},
{
closed = 1;
nodes = (
"312 0 LINE",
"312 196 LINE",
"149 196 LINE",
"149 0 LINE"
);
}
);
width = 489;
},
{
guideLines = (
{
angle = 270;
position = "{47, 491}";
},
{
angle = 270;
position = "{407, 512}";
},
{
position = "{88, 551}";
},
{
position = "{88, 425}";
}
);
layerId = "D42B5605-DB46-4B3B-8EA0-4CE7066523CE";
paths = (
{
closed = 1;
nodes = (
"407 552 LINE",
"407 988 LINE",
"47 988 LINE",
"47 552 LINE"
);
},
{
closed = 1;
nodes = (
"407 4 LINE",
"407 426 LINE",
"47 426 LINE",
"47 4 LINE"
);
}
);
width = 600;
}
);
unicode = 003A;
},
{
glyphname = comma;
layers = (
{
guideLines = (
{
angle = -43.2797;
position = "{119, -182}";
}
);
layerId = "1D628CB9-BBF5-410A-9D74-9E6094BFE839";
paths = (
{
closed = 1;
nodes = (
"277 -176 OFFCURVE",
"321 -88 OFFCURVE",
"321 43 CURVE SMOOTH",
"321 216 LINE",
"158 216 LINE",
"158 0 LINE",
"236 0 LINE",
"236 -66 OFFCURVE",
"205 -153 OFFCURVE",
"153 -235 CURVE",
"192 -272 LINE"
);
}
);
width = 482;
},
{
guideLines = (
{
angle = -43.2797;
position = "{166, -243}";
}
);
layerId = "D42B5605-DB46-4B3B-8EA0-4CE7066523CE";
paths = (
{
closed = 1;
nodes = (
"421 -337 OFFCURVE",
"515 -189 OFFCURVE",
"515 92 CURVE SMOOTH",
"515 403 LINE",
"156 403 LINE",
"156 0 LINE",
"328 0 LINE",
"328 -141 OFFCURVE",
"266 -288 OFFCURVE",
"175 -414 CURVE",
"259 -493 LINE"
);
}
);
width = 688;
}
);
unicode = 002C;
},
{
glyphname = exclam;
layers = (
{
layerId = "1D628CB9-BBF5-410A-9D74-9E6094BFE839";
paths = (
{
closed = 1;
nodes = (
"265 341 LINE",
"294 1284 LINE",
"153 1284 LINE",
"184 341 LINE"
);
},
{
closed = 1;
nodes = (
"293 0 LINE",
"293 155 LINE",
"168 155 LINE",
"168 0 LINE"
);
}
);
width = 454;
},
{
layerId = "D42B5605-DB46-4B3B-8EA0-4CE7066523CE";
paths = (
{
closed = 1;
nodes = (
"461 572 LINE",
"490 1495 LINE",
"149 1495 LINE",
"180 572 LINE"
);
},
{
closed = 1;
nodes = (
"486 6 LINE",
"486 389 LINE",
"161 389 LINE",
"161 6 LINE"
);
}
);
width = 649;
}
);
unicode = 0021;
},
{
glyphname = numbersign;
layers = (
{
layerId = "1D628CB9-BBF5-410A-9D74-9E6094BFE839";
paths = (
{
closed = 1;
nodes = (
"363 92 LINE",
"403 449 LINE",
"619 449 LINE",
"577 92 LINE",
"683 92 LINE",
"724 449 LINE",
"922 449 LINE",
"922 553 LINE",
"737 553 LINE",
"778 928 LINE",
"957 928 LINE",
"957 1030 LINE",
"790 1030 LINE",
"827 1364 LINE",
"724 1364 LINE",
"685 1030 LINE",
"470 1030 LINE",
"508 1364 LINE",
"403 1364 LINE",
"364 1030 LINE",
"166 1030 LINE",
"166 928 LINE",
"354 928 LINE",
"311 553 LINE",
"130 553 LINE",
"130 449 LINE",
"298 449 LINE",
"256 92 LINE"
);
},
{
closed = 1;
nodes = (
"454 928 LINE",
"678 928 LINE",
"634 553 LINE",
"412 553 LINE"
);
}
);
width = 1090;
},
{
layerId = "D42B5605-DB46-4B3B-8EA0-4CE7066523CE";
width = 600;
}
);
unicode = 0023;
},
{
glyphname = period;
layers = (
{
layerId = "1D628CB9-BBF5-410A-9D74-9E6094BFE839";
paths = (
{
closed = 1;
nodes = (
"309 0 LINE",
"309 202 LINE",
"149 202 LINE",
"149 0 LINE"
);
}
);
width = 460;
},
{
layerId = "D42B5605-DB46-4B3B-8EA0-4CE7066523CE";
paths = (
{
closed = 1;
nodes = (
"514 0 LINE",
"514 402 LINE",
"154 402 LINE",
"154 0 LINE"
);
}
);
width = 670;
}
);
unicode = 002E;
},
{
glyphname = question;
layers = (
{
layerId = "1D628CB9-BBF5-410A-9D74-9E6094BFE839";
paths = (
{
closed = 1;
nodes = (
"453 293 LINE",
"447 335 OFFCURVE",
"441 389 OFFCURVE",
"441 412 CURVE SMOOTH",
"441 659 OFFCURVE",
"775 721 OFFCURVE",
"775 1005 CURVE SMOOTH",
"775 1184 OFFCURVE",
"635 1301 OFFCURVE",
"449 1301 CURVE SMOOTH",
"303 1301 OFFCURVE",
"174 1229 OFFCURVE",
"106 1151 CURVE",
"171 1073 LINE",
"258 1155 OFFCURVE",
"330 1195 OFFCURVE",
"458 1195 CURVE SMOOTH",
"584 1195 OFFCURVE",
"647 1107 OFFCURVE",
"647 998 CURVE SMOOTH",
"647 803 OFFCURVE",
"344 673 OFFCURVE",
"344 455 CURVE",
"344 455 OFFCURVE",
"345 377 OFFCURVE",
"361 293 CURVE"
);
},
{
closed = 1;
nodes = (
"474 0 LINE",
"474 155 LINE",
"349 155 LINE",
"349 0 LINE"
);
}
);
width = 889;
},
{
guideLines = (
{
angle = -71.7901;
position = "{-1205, 985}";
},
{
angle = -50.2095;
position = "{-1467, 873}";
}
);
layerId = "D42B5605-DB46-4B3B-8EA0-4CE7066523CE";
width = 879;
}
);
unicode = 003F;
},
{
glyphname = quotedbl;
layers = (
{
layerId = "1D628CB9-BBF5-410A-9D74-9E6094BFE839";
paths = (
{
closed = 1;
nodes = (
"507 950 LINE",
"507 1411 LINE",
"393 1411 LINE",
"393 950 LINE"
);
},
{
closed = 1;
nodes = (
"243 950 LINE",
"243 1411 LINE",
"129 1411 LINE",
"129 950 LINE"
);
}
);
width = 642;
},
{
layerId = "D42B5605-DB46-4B3B-8EA0-4CE7066523CE";
width = 600;
}
);
unicode = 0022;
},
{
glyphname = quotesingle;
layers = (
{
layerId = "1D628CB9-BBF5-410A-9D74-9E6094BFE839";
paths = (
{
closed = 1;
nodes = (
"243 950 LINE",
"243 1411 LINE",
"129 1411 LINE",
"129 950 LINE"
);
}
);
width = 379;
},
{
layerId = "D42B5605-DB46-4B3B-8EA0-4CE7066523CE";
width = 600;
}
);
unicode = 0027;
},
{
glyphname = semicolon;
layers = (
{
guideLines = (
{
position = "{-979, 546}";
},
{
angle = 270;
position = "{172, 390}";
},
{
angle = 270;
position = "{334, 390}";
}
);
layerId = "1D628CB9-BBF5-410A-9D74-9E6094BFE839";
paths = (
{
closed = 1;
nodes = (
"268 -176 OFFCURVE",
"312 -88 OFFCURVE",
"312 43 CURVE SMOOTH",
"312 216 LINE",
"149 216 LINE",
"149 0 LINE",
"227 0 LINE",
"227 -66 OFFCURVE",
"196 -153 OFFCURVE",
"144 -235 CURVE",
"183 -272 LINE"
);
},
{
closed = 1;
nodes = (
"311 546 LINE",
"311 756 LINE",
"149 756 LINE",
"149 546 LINE"
);
}
);
width = 470;
},
{
guideLines = (
{
angle = 270;
position = "{47, 491}";
},
{
angle = 270;
position = "{407, 512}";
},
{
position = "{88, 551}";
},
{
position = "{88, 425}";
}
);
layerId = "D42B5605-DB46-4B3B-8EA0-4CE7066523CE";
paths = (
{
closed = 1;
nodes = (
"311 -337 OFFCURVE",
"405 -189 OFFCURVE",
"405 92 CURVE SMOOTH",
"405 403 LINE",
"46 403 LINE",
"46 0 LINE",
"218 0 LINE",
"218 -141 OFFCURVE",
"156 -288 OFFCURVE",
"65 -414 CURVE",
"149 -493 LINE"
);
},
{
closed = 1;
nodes = (
"407 582 LINE",
"407 984 LINE",
"47 984 LINE",
"47 582 LINE"
);
}
);
width = 600;
}
);
unicode = 003B;
},
{
glyphname = slash;
layers = (
{
layerId = "1D628CB9-BBF5-410A-9D74-9E6094BFE839";
paths = (
{
closed = 1;
nodes = (
"727 1498 LINE",
"92 -81 LINE",
"212 -129 LINE",
"846 1450 LINE"
);
}
);
width = 896;
},
{
layerId = "D42B5605-DB46-4B3B-8EA0-4CE7066523CE";
width = 600;
}
);
unicode = 002F;
},
{
glyphname = underscore;
layers = (
{
layerId = "1D628CB9-BBF5-410A-9D74-9E6094BFE839";
paths = (
{
closed = 1;
nodes = (
"972 -225 LINE",
"972 -120 LINE",
"104 -120 LINE",
"104 -225 LINE"
);
}
);
width = 1074;
},
{
layerId = "D42B5605-DB46-4B3B-8EA0-4CE7066523CE";
width = 600;
}
);
unicode = 005F;
},
{
glyphname = periodcentered.loclCAT;
layers = (
{
anchors = (
{
name = _center;
position = "{234, 652}";
}
);
layerId = "1D628CB9-BBF5-410A-9D74-9E6094BFE839";
paths = (
{
closed = 1;
nodes = (
"319 544 LINE",
"319 756 LINE",
"149 756 LINE",
"149 544 LINE"
);
}
);
width = 468;
},
{
layerId = "D42B5605-DB46-4B3B-8EA0-4CE7066523CE";
width = 600;
}
);
},
{
glyphname = braceleft;
layers = (
{
layerId = "1D628CB9-BBF5-410A-9D74-9E6094BFE839";
paths = (
{
closed = 1;
nodes = (
"558 -50 LINE",
"531 -50 LINE SMOOTH",
"378 -50 OFFCURVE",
"347 -37 OFFCURVE",
"347 193 CURVE SMOOTH",
"347 579 LINE",
"202 664 LINE",
"347 749 LINE",
"347 1135 LINE SMOOTH",
"347 1365 OFFCURVE",
"382 1378 OFFCURVE",
"531 1378 CURVE SMOOTH",
"558 1378 LINE",
"548 1484 LINE",
"276 1484 OFFCURVE",
"219 1452 OFFCURVE",
"219 1146 CURVE",
"220 985 LINE SMOOTH",
"220 905 OFFCURVE",
"218 853 OFFCURVE",
"214 801 CURVE",
"68 712 LINE",
"68 616 LINE",
"214 525 LINE",
"218 473 OFFCURVE",
"220 423 OFFCURVE",
"220 343 CURVE SMOOTH",
"219 182 LINE",
"219 -124 OFFCURVE",
"266 -156 OFFCURVE",
"548 -156 CURVE"
);
}
);
width = 630;
},
{
layerId = "D42B5605-DB46-4B3B-8EA0-4CE7066523CE";
paths = (
{
closed = 1;
nodes = (
"574 -50 LINE",
"527 -50 LINE SMOOTH",
"374 -50 OFFCURVE",
"343 -30 OFFCURVE",
"343 200 CURVE SMOOTH",
"343 579 LINE",
"198 664 LINE",
"343 749 LINE",
"343 1139 LINE SMOOTH",
"343 1369 OFFCURVE",
"378 1378 OFFCURVE",
"527 1378 CURVE SMOOTH",
"574 1378 LINE",
"544 1684 LINE",
"272 1684 OFFCURVE",
"15 1652 OFFCURVE",
"15 1346 CURVE",
"15 1185 LINE SMOOTH",
"16 905 OFFCURVE",
"14 853 OFFCURVE",
"10 801 CURVE",
"-136 712 LINE",
"-136 616 LINE",
"10 525 LINE",
"14 473 OFFCURVE",
"16 223 OFFCURVE",
"16 143 CURVE SMOOTH",
"15 -18 LINE",
"15 -324 OFFCURVE",
"262 -356 OFFCURVE",
"544 -356 CURVE"
);
}
);
width = 622;
}
);
unicode = 007B;
},
{
glyphname = braceright;
layers = (
{
layerId = "1D628CB9-BBF5-410A-9D74-9E6094BFE839";
paths = (
{
closed = 1;
nodes = (
"364 -156 OFFCURVE",
"411 -124 OFFCURVE",
"411 182 CURVE",
"410 343 LINE SMOOTH",
"410 423 OFFCURVE",
"412 473 OFFCURVE",
"416 525 CURVE",
"562 616 LINE",
"562 712 LINE",
"416 801 LINE",
"412 853 OFFCURVE",
"410 905 OFFCURVE",
"410 985 CURVE SMOOTH",
"411 1146 LINE",
"411 1452 OFFCURVE",
"354 1484 OFFCURVE",
"82 1484 CURVE",
"72 1378 LINE",
"99 1378 LINE SMOOTH",
"248 1378 OFFCURVE",
"283 1365 OFFCURVE",
"283 1135 CURVE SMOOTH",
"283 749 LINE",
"428 664 LINE",
"283 579 LINE",
"283 193 LINE SMOOTH",
"283 -37 OFFCURVE",
"252 -50 OFFCURVE",
"99 -50 CURVE SMOOTH",
"72 -50 LINE",
"82 -156 LINE"
);
}
);
width = 630;
},
{
layerId = "D42B5605-DB46-4B3B-8EA0-4CE7066523CE";
paths = (
{
closed = 1;
nodes = (
"360 -356 OFFCURVE",
"607 -324 OFFCURVE",
"607 -18 CURVE",
"607 143 LINE SMOOTH",
"606 423 OFFCURVE",
"608 473 OFFCURVE",
"612 525 CURVE",
"758 616 LINE",
"758 712 LINE",
"612 801 LINE",
"608 853 OFFCURVE",
"606 905 OFFCURVE",
"606 985 CURVE SMOOTH",
"607 1346 LINE",
"607 1652 OFFCURVE",
"350 1684 OFFCURVE",
"78 1684 CURVE",
"48 1378 LINE",
"95 1378 LINE SMOOTH",
"244 1378 OFFCURVE",
"279 1369 OFFCURVE",
"279 1139 CURVE SMOOTH",
"279 749 LINE",
"424 664 LINE",
"279 579 LINE",
"279 200 LINE SMOOTH",
"279 -30 OFFCURVE",
"248 -50 OFFCURVE",
"95 -50 CURVE SMOOTH",
"48 -50 LINE",
"78 -356 LINE"
);
}
);
width = 822;
}
);
unicode = 007D;
},
{
glyphname = bracketleft;
layers = (
{
layerId = "1D628CB9-BBF5-410A-9D74-9E6094BFE839";
paths = (
{
closed = 1;
nodes = (
"548 -103 LINE",
"548 3 LINE",
"292 3 LINE",
"292 1252 LINE",
"548 1252 LINE",
"548 1358 LINE",
"164 1358 LINE",
"164 -103 LINE"
);
}
);
width = 612;
},
{
layerId = "D42B5605-DB46-4B3B-8EA0-4CE7066523CE";
paths = (
{
closed = 1;
nodes = (
"744 -303 LINE",
"744 3 LINE",
"488 3 LINE",
"488 1252 LINE",
"744 1252 LINE",
"744 1558 LINE",
"160 1558 LINE",
"160 -303 LINE"
);
}
);
width = 804;
}
);
unicode = 005B;
},
{
glyphname = bracketright;
layers = (
{
layerId = "1D628CB9-BBF5-410A-9D74-9E6094BFE839";
paths = (
{
closed = 1;
nodes = (
"548 1358 LINE",
"164 1358 LINE",
"164 1252 LINE",
"420 1252 LINE",
"420 3 LINE",
"164 3 LINE",
"164 -103 LINE",
"548 -103 LINE"
);
}
);
width = 612;
},
{
layerId = "D42B5605-DB46-4B3B-8EA0-4CE7066523CE";
paths = (
{
closed = 1;
nodes = (
"644 1558 LINE",
"60 1558 LINE",
"60 1252 LINE",
"316 1252 LINE",
"316 3 LINE",
"60 3 LINE",
"60 -303 LINE",
"644 -303 LINE"
);
}
);
width = 804;
}
);
unicode = 005D;
},
{
glyphname = parenleft;
layers = (
{
layerId = "1D628CB9-BBF5-410A-9D74-9E6094BFE839";
paths = (
{
closed = 1;
nodes = (
"294 25 OFFCURVE",
"207 335 OFFCURVE",
"207 645 CURVE SMOOTH",
"207 957 OFFCURVE",
"295 1270 OFFCURVE",
"465 1528 CURVE",
"374 1586 LINE",
"171 1313 OFFCURVE",
"79 991 OFFCURVE",
"79 650 CURVE SMOOTH",
"79 309 OFFCURVE",
"171 -19 OFFCURVE",
"375 -292 CURVE",
"465 -231 LINE"
);
}
);
width = 528;
},
{
layerId = "D42B5605-DB46-4B3B-8EA0-4CE7066523CE";
paths = (
{
closed = 1;
nodes = (
"490 25 OFFCURVE",
"403 335 OFFCURVE",
"403 645 CURVE SMOOTH",
"403 957 OFFCURVE",
"491 1270 OFFCURVE",
"661 1528 CURVE",
"449 1687 LINE",
"204 1387 OFFCURVE",
"75 991 OFFCURVE",
"75 650 CURVE SMOOTH",
"75 309 OFFCURVE",
"200 -82 OFFCURVE",
"429 -389 CURVE",
"661 -231 LINE"
);
}
);
width = 720;
}
);
unicode = 0028;
},
{
glyphname = parenright;
layers = (
{
layerId = "1D628CB9-BBF5-410A-9D74-9E6094BFE839";
paths = (
{
closed = 1;
nodes = (
"156 -292 LINE",
"360 -19 OFFCURVE",
"452 309 OFFCURVE",
"452 650 CURVE SMOOTH",
"452 991 OFFCURVE",
"360 1313 OFFCURVE",
"157 1586 CURVE",
"66 1528 LINE",
"236 1270 OFFCURVE",
"324 957 OFFCURVE",
"324 645 CURVE SMOOTH",
"324 335 OFFCURVE",
"237 25 OFFCURVE",
"66 -231 CURVE"
);
}
);
width = 528;
},
{
layerId = "D42B5605-DB46-4B3B-8EA0-4CE7066523CE";
paths = (
{
closed = 1;
nodes = (
"294 -389 LINE",
"523 -82 OFFCURVE",
"648 309 OFFCURVE",
"648 650 CURVE SMOOTH",
"648 991 OFFCURVE",
"519 1387 OFFCURVE",
"274 1687 CURVE",
"62 1528 LINE",
"232 1270 OFFCURVE",
"320 957 OFFCURVE",
"320 645 CURVE SMOOTH",
"320 335 OFFCURVE",
"233 25 OFFCURVE",
"62 -231 CURVE"
);
}
);
width = 720;
}
);
unicode = 0029;
},
{
glyphname = emdash;
layers = (
{
layerId = "1D628CB9-BBF5-410A-9D74-9E6094BFE839";
paths = (
{
closed = 1;
nodes = (
"1010 542 LINE",
"1010 647 LINE",
"120 647 LINE",
"120 542 LINE"
);
}
);
width = 1132;
},
{
layerId = "D42B5605-DB46-4B3B-8EA0-4CE7066523CE";
width = 600;
}
);
unicode = 2014;
},
{
glyphname = endash;
layers = (
{
layerId = "1D628CB9-BBF5-410A-9D74-9E6094BFE839";
paths = (
{
closed = 1;
nodes = (
"780 542 LINE",
"780 647 LINE",
"120 647 LINE",
"120 542 LINE"
);
}
);
width = 902;
},
{
layerId = "D42B5605-DB46-4B3B-8EA0-4CE7066523CE";
width = 600;
}
);
unicode = 2013;
},
{
glyphname = hyphen;
layers = (
{
layerId = "1D628CB9-BBF5-410A-9D74-9E6094BFE839";
paths = (
{
closed = 1;
nodes = (
"637 455 LINE",
"637 560 LINE",
"118 560 LINE",
"118 455 LINE"
);
}
);
width = 758;
},
{
layerId = "D42B5605-DB46-4B3B-8EA0-4CE7066523CE";
paths = (
{
closed = 1;
nodes = (
"1033 355 LINE",
"1033 660 LINE",
"114 660 LINE",
"114 355 LINE"
);
}
);
width = 1150;
}
);
unicode = 002D;
},
{
glyphname = softhyphen;
layers = (
{
layerId = "1D628CB9-BBF5-410A-9D74-9E6094BFE839";
paths = (
{
closed = 1;
nodes = (
"890 726 LINE",
"890 831 LINE",
"157 831 LINE",
"157 726 LINE"
);
}
);
width = 1048;
},
{
layerId = "D42B5605-DB46-4B3B-8EA0-4CE7066523CE";
width = 600;
}
);
unicode = 00AD;
},
{
glyphname = guillemetleft;
layers = (
{
guideLines = (
{
position = "{117, 545}";
}
);
layerId = "1D628CB9-BBF5-410A-9D74-9E6094BFE839";
paths = (
{
closed = 1;
nodes = (
"497 279 LINE",
"223 545 LINE",
"497 817 LINE",
"428 897 LINE",
"122 590 LINE",
"122 503 LINE",
"429 198 LINE"
);
},
{
closed = 1;
nodes = (
"841 279 LINE",
"567 545 LINE",
"841 817 LINE",
"772 897 LINE",
"466 590 LINE",
"466 503 LINE",
"773 198 LINE"
);
}
);
width = 975;
},
{
layerId = "D42B5605-DB46-4B3B-8EA0-4CE7066523CE";
width = 600;
}
);
unicode = 00AB;
},
{
glyphname = guillemetright;
layers = (
{
layerId = "1D628CB9-BBF5-410A-9D74-9E6094BFE839";
paths = (
{
closed = 1;
nodes = (
"832 503 LINE",
"832 590 LINE",
"526 897 LINE",
"457 817 LINE",
"731 545 LINE",
"457 279 LINE",
"525 198 LINE"
);
},
{
closed = 1;
nodes = (
"488 503 LINE",
"488 590 LINE",
"182 897 LINE",
"113 817 LINE",
"387 545 LINE",
"113 279 LINE",
"181 198 LINE"
);
}
);
width = 967;
},
{
layerId = "D42B5605-DB46-4B3B-8EA0-4CE7066523CE";
width = 600;
}
);
unicode = 00BB;
},
{
glyphname = guilsinglleft;
layers = (
{
layerId = "1D628CB9-BBF5-410A-9D74-9E6094BFE839";
paths = (
{
closed = 1;
nodes = (
"490 261 LINE",
"216 527 LINE",
"490 799 LINE",
"421 879 LINE",
"115 572 LINE",
"115 485 LINE",
"422 180 LINE"
);
}
);
width = 629;
},
{
layerId = "D42B5605-DB46-4B3B-8EA0-4CE7066523CE";
width = 600;
}
);
unicode = 2039;
},
{
glyphname = guilsinglright;
layers = (
{
layerId = "1D628CB9-BBF5-410A-9D74-9E6094BFE839";
paths = (
{
closed = 1;
nodes = (
"511 483 LINE",
"511 570 LINE",
"205 877 LINE",
"136 797 LINE",
"410 525 LINE",
"136 259 LINE",
"204 178 LINE"
);
}
);
width = 628;
},
{
layerId = "D42B5605-DB46-4B3B-8EA0-4CE7066523CE";
width = 600;
}
);
unicode = 203A;
},
{
glyphname = quotedblbase;
layers = (
{
layerId = "1D628CB9-BBF5-410A-9D74-9E6094BFE839";
paths = (
{
closed = 1;
nodes = (
"439 -15 OFFCURVE",
"418 -153 OFFCURVE",
"385 -279 CURVE",
"452 -312 LINE",
"502 -204 OFFCURVE",
"547 -64 OFFCURVE",
"584 98 CURVE",
"455 127 LINE"
);
},
{
closed = 1;
nodes = (
"172 -15 OFFCURVE",
"151 -153 OFFCURVE",
"118 -279 CURVE",
"184 -312 LINE",
"234 -204 OFFCURVE",
"279 -64 OFFCURVE",
"316 98 CURVE",
"188 127 LINE"
);
}
);
width = 699;
},
{
layerId = "D42B5605-DB46-4B3B-8EA0-4CE7066523CE";
width = 600;
}
);
unicode = 201E;
},
{
glyphname = quotedblleft;
layers = (
{
layerId = "1D628CB9-BBF5-410A-9D74-9E6094BFE839";
paths = (
{
closed = 1;
nodes = (
"261 1100 OFFCURVE",
"282 1238 OFFCURVE",
"315 1364 CURVE",
"248 1397 LINE",
"198 1289 OFFCURVE",
"153 1149 OFFCURVE",
"116 987 CURVE",
"245 958 LINE"
);
},
{
closed = 1;
nodes = (
"528 1100 OFFCURVE",
"549 1238 OFFCURVE",
"582 1364 CURVE",
"516 1397 LINE",
"466 1289 OFFCURVE",
"421 1149 OFFCURVE",
"384 987 CURVE",
"512 958 LINE"
);
}
);
width = 698;
},
{
layerId = "D42B5605-DB46-4B3B-8EA0-4CE7066523CE";
width = 600;
}
);
unicode = 201C;
},
{
glyphname = quotedblright;
layers = (
{
layerId = "1D628CB9-BBF5-410A-9D74-9E6094BFE839";
paths = (
{
closed = 1;
nodes = (
"444 1265 OFFCURVE",
"423 1127 OFFCURVE",
"390 1001 CURVE",
"457 968 LINE",
"507 1076 OFFCURVE",
"552 1216 OFFCURVE",
"589 1378 CURVE",
"460 1407 LINE"
);
},
{
closed = 1;
nodes = (
"177 1265 OFFCURVE",
"156 1127 OFFCURVE",
"123 1001 CURVE",
"189 968 LINE",
"239 1076 OFFCURVE",
"284 1216 OFFCURVE",
"321 1378 CURVE",
"193 1407 LINE"
);
}
);
width = 708;
},
{
layerId = "D42B5605-DB46-4B3B-8EA0-4CE7066523CE";
width = 600;
}
);
unicode = 201D;
},
{
glyphname = quoteleft;
layers = (
{
layerId = "1D628CB9-BBF5-410A-9D74-9E6094BFE839";
paths = (
{
closed = 1;
nodes = (
"261 1100 OFFCURVE",
"282 1238 OFFCURVE",
"315 1364 CURVE",
"248 1397 LINE",
"198 1289 OFFCURVE",
"153 1149 OFFCURVE",
"116 987 CURVE",
"245 958 LINE"
);
}
);
width = 431;
},
{
layerId = "D42B5605-DB46-4B3B-8EA0-4CE7066523CE";
width = 600;
}
);
unicode = 2018;
},
{
glyphname = quoteright;
layers = (
{
layerId = "1D628CB9-BBF5-410A-9D74-9E6094BFE839";
paths = (
{
closed = 1;
nodes = (
"175 1265 OFFCURVE",
"154 1127 OFFCURVE",
"121 1001 CURVE",
"188 968 LINE",
"238 1076 OFFCURVE",
"283 1216 OFFCURVE",
"320 1378 CURVE",
"191 1407 LINE"
);
}
);
width = 439;
},
{
layerId = "D42B5605-DB46-4B3B-8EA0-4CE7066523CE";
width = 600;
}
);
unicode = 2019;
},
{
glyphname = quotesinglbase;
layers = (
{
layerId = "1D628CB9-BBF5-410A-9D74-9E6094BFE839";
paths = (
{
closed = 1;
nodes = (
"175 -21 OFFCURVE",
"154 -159 OFFCURVE",
"121 -285 CURVE",
"188 -318 LINE",
"238 -210 OFFCURVE",
"283 -70 OFFCURVE",
"320 92 CURVE",
"191 121 LINE"
);
}
);
width = 439;
},
{
layerId = "D42B5605-DB46-4B3B-8EA0-4CE7066523CE";
width = 600;
}
);
unicode = 201A;
},
{
glyphname = cedi;
layers = (
{
components = (
{
name = C;
}
);
layerId = "1D628CB9-BBF5-410A-9D74-9E6094BFE839";
paths = (
{
closed = 1;
nodes = (
"624 -188 LINE",
"624 1465 LINE",
"523 1465 LINE",
"523 -188 LINE"
);
}
);
width = 1022;
},
{
layerId = "D42B5605-DB46-4B3B-8EA0-4CE7066523CE";
width = 600;
}
);
unicode = 20B5;
},
{
glyphname = cent;
layers = (
{
layerId = "1D628CB9-BBF5-410A-9D74-9E6094BFE839";
paths = (
{
closed = 1;
nodes = (
"617 -20 OFFCURVE",
"712 1 OFFCURVE",
"805 69 CURVE",
"757 160 LINE",
"673 103 OFFCURVE",
"601 84 OFFCURVE",
"528 84 CURVE SMOOTH",
"358 84 OFFCURVE",
"243 223 OFFCURVE",
"243 483 CURVE SMOOTH",
"243 722 OFFCURVE",
"299 888 OFFCURVE",
"501 888 CURVE SMOOTH",
"558 888 OFFCURVE",
"613 882 OFFCURVE",
"664 862 CURVE",
"664 662 LINE",
"766 672 LINE",
"766 930 LINE",
"681 970 OFFCURVE",
"594 990 OFFCURVE",
"503 990 CURVE SMOOTH",
"244 990 OFFCURVE",
"115 821 OFFCURVE",
"115 485 CURVE SMOOTH",
"115 148 OFFCURVE",
"292 -20 OFFCURVE",
"514 -20 CURVE SMOOTH"
);
},
{
closed = 1;
nodes = (
"443 970 LINE",
"478 970 OFFCURVE",
"510 970 OFFCURVE",
"545 970 CURVE",
"545 1125 LINE",
"443 1125 LINE"
);
},
{
closed = 1;
nodes = (
"443 -147 LINE",
"478 -147 OFFCURVE",
"510 -147 OFFCURVE",
"545 -147 CURVE",
"545 8 LINE",
"443 8 LINE"
);
}
);
width = 886;
},
{
layerId = "D42B5605-DB46-4B3B-8EA0-4CE7066523CE";
width = 600;
}
);
unicode = 00A2;
},
{
glyphname = colonsign;
layers = (
{
layerId = "1D628CB9-BBF5-410A-9D74-9E6094BFE839";
paths = (
{
closed = 1;
nodes = (
"706 -10 OFFCURVE",
"810 8 OFFCURVE",
"927 64 CURVE",
"887 161 LINE",
"784 112 OFFCURVE",
"697 96 OFFCURVE",
"610 96 CURVE SMOOTH",
"405 96 OFFCURVE",
"250 252 OFFCURVE",
"250 638 CURVE SMOOTH",
"250 1092 OFFCURVE",
"375 1195 OFFCURVE",
"601 1195 CURVE SMOOTH",
"702 1195 OFFCURVE",
"791 1168 OFFCURVE",
"873 1120 CURVE",
"920 1217 LINE",
"810 1277 OFFCURVE",
"713 1301 OFFCURVE",
"590 1301 CURVE SMOOTH",
"274 1301 OFFCURVE",
"122 1114 OFFCURVE",
"122 641 CURVE SMOOTH",
"122 189 OFFCURVE",
"333 -10 OFFCURVE",
"602 -10 CURVE SMOOTH"
);
},
{
closed = 1;
nodes = (
"355 -168 LINE",
"695 1465 LINE",
"591 1465 LINE",
"251 -168 LINE"
);
},
{
closed = 1;
nodes = (
"545 -168 LINE",
"885 1465 LINE",
"781 1465 LINE",
"441 -168 LINE"
);
}
);
width = 1022;
},
{
associatedMasterId = "1D628CB9-BBF5-410A-9D74-9E6094BFE839";
layerId = "13D1F5CD-0BC5-44CA-AD17-5A19246D723A";
name = "Regular Jul 6 16, 11:45";
paths = (
{
closed = 1;
nodes = (
"607 1465 LINE",
"691 1465 LINE",
"291 -188 LINE",
"207 -188 LINE"
);
},
{
closed = 1;
nodes = (
"797 1465 LINE",
"881 1465 LINE",
"481 -188 LINE",
"397 -188 LINE"
);
},
{
closed = 1;
nodes = (
"246 638 CURVE SMOOTH",
"246 252 OFFCURVE",
"401 96 OFFCURVE",
"606 96 CURVE SMOOTH",
"693 96 OFFCURVE",
"780 112 OFFCURVE",
"883 161 CURVE",
"923 64 LINE",
"806 8 OFFCURVE",
"702 -10 OFFCURVE",
"598 -10 CURVE SMOOTH",
"329 -10 OFFCURVE",
"118 189 OFFCURVE",
"118 641 CURVE SMOOTH",
"118 1114 OFFCURVE",
"270 1301 OFFCURVE",
"586 1301 CURVE SMOOTH",
"685 1301 OFFCURVE",
"786 1280 OFFCURVE",
"896 1226 CURVE",
"896 984 LINE",
"787 984 LINE",
"787 1157 LINE",
"735 1180 OFFCURVE",
"668 1195 OFFCURVE",
"597 1195 CURVE SMOOTH",
"371 1195 OFFCURVE",
"246 1092 OFFCURVE"
);
}
);
width = 1014;
},
{
layerId = "D42B5605-DB46-4B3B-8EA0-4CE7066523CE";
width = 600;
}
);
unicode = 20A1;
userData = {
com.typemytype.robofont.layerData = {
"Regular Jul 6 16, 11:45" = {
anchors = (
);
components = (
);
contours = (
{
points = (
{
segmentType = line;
smooth = 0;
x = 607;
y = 1465;
},
{
segmentType = line;
smooth = 0;
x = 691;
y = 1465;
},
{
segmentType = line;
smooth = 0;
x = 291;
y = -188;
},
{
segmentType = line;
smooth = 0;
x = 207;
y = -188;
}
);
},
{
points = (
{
segmentType = line;
smooth = 0;
x = 797;
y = 1465;
},
{
segmentType = line;
smooth = 0;
x = 881;
y = 1465;
},
{
segmentType = line;
smooth = 0;
x = 481;
y = -188;
},
{
segmentType = line;
smooth = 0;
x = 397;
y = -188;
}
);
},
{
points = (
{
segmentType = curve;
smooth = 1;
x = 246;
y = 638;
},
{
smooth = 0;
x = 246;
y = 252;
},
{
smooth = 0;
x = 401;
y = 96;
},
{
segmentType = curve;
smooth = 1;
x = 606;
y = 96;
},
{
smooth = 0;
x = 693;
y = 96;
},
{
smooth = 0;
x = 780;
y = 112;
},
{
segmentType = curve;
smooth = 0;
x = 883;
y = 161;
},
{
segmentType = line;
smooth = 0;
x = 923;
y = 64;
},
{
smooth = 0;
x = 806;
y = 8;
},
{
smooth = 0;
x = 702;
y = -10;
},
{
segmentType = curve;
smooth = 1;
x = 598;
y = -10;
},
{
smooth = 0;
x = 329;
y = -10;
},
{
smooth = 0;
x = 118;
y = 189;
},
{
segmentType = curve;
smooth = 1;
x = 118;
y = 641;
},
{
smooth = 0;
x = 118;
y = 1114;
},
{
smooth = 0;
x = 270;
y = 1301;
},
{
segmentType = curve;
smooth = 1;
x = 586;
y = 1301;
},
{
smooth = 0;
x = 685;
y = 1301;
},
{
smooth = 0;
x = 786;
y = 1280;
},
{
segmentType = curve;
smooth = 0;
x = 896;
y = 1226;
},
{
segmentType = line;
smooth = 0;
x = 896;
y = 984;
},
{
segmentType = line;
smooth = 0;
x = 787;
y = 984;
},
{
segmentType = line;
smooth = 0;
x = 787;
y = 1157;
},
{
smooth = 0;
x = 735;
y = 1180;
},
{
smooth = 0;
x = 668;
y = 1195;
},
{
segmentType = curve;
smooth = 1;
x = 597;
y = 1195;
},
{
smooth = 0;
x = 371;
y = 1195;
},
{
smooth = 0;
x = 246;
y = 1092;
}
);
}
);
lib = {
};
name = colonsign;
unicodes = (
);
width = 1014;
};
};
};
},
{
glyphname = currency;
layers = (
{
layerId = "1D628CB9-BBF5-410A-9D74-9E6094BFE839";
paths = (
{
closed = 1;
nodes = (
"333 454 LINE",
"388 410 OFFCURVE",
"458 388 OFFCURVE",
"528 388 CURVE SMOOTH",
"597 388 OFFCURVE",
"668 410 OFFCURVE",
"723 454 CURVE",
"842 333 LINE",
"920 412 LINE",
"805 526 LINE",
"847 579 OFFCURVE",
"868 649 OFFCURVE",
"868 720 CURVE SMOOTH",
"868 791 OFFCURVE",
"847 861 OFFCURVE",
"805 914 CURVE",
"920 1030 LINE",
"842 1109 LINE",
"723 986 LINE",
"667 1029 OFFCURVE",
"597 1051 OFFCURVE",
"528 1051 CURVE SMOOTH",
"459 1051 OFFCURVE",
"388 1029 OFFCURVE",
"333 986 CURVE",
"213 1109 LINE",
"136 1030 LINE",
"249 914 LINE",
"208 862 OFFCURVE",
"187 791 OFFCURVE",
"187 720 CURVE SMOOTH",
"187 649 OFFCURVE",
"208 578 OFFCURVE",
"249 526 CURVE",
"136 412 LINE",
"213 333 LINE"
);
},
{
closed = 1;
nodes = (
"406 473 OFFCURVE",
"284 556 OFFCURVE",
"284 719 CURVE SMOOTH",
"284 883 OFFCURVE",
"406 966 OFFCURVE",
"528 966 CURVE SMOOTH",
"650 966 OFFCURVE",
"771 884 OFFCURVE",
"771 720 CURVE SMOOTH",
"771 554 OFFCURVE",
"650 473 OFFCURVE",
"528 473 CURVE SMOOTH"
);
}
);
width = 1056;
},
{
layerId = "D42B5605-DB46-4B3B-8EA0-4CE7066523CE";
width = 600;
}
);
unicode = 00A4;
userData = {
com.fontlab.hintData = {
hhints = (
{
position = -2332;
width = 316;
},
{
position = -622;
width = 316;
}
);
vhints = (
{
position = -590;
width = 394;
},
{
position = 1041;
width = 394;
}
);
};
};
},
{
glyphname = dollar;
layers = (
{
layerId = "1D628CB9-BBF5-410A-9D74-9E6094BFE839";
paths = (
{
closed = 1;
nodes = (
"877 608 OFFCURVE",
"710 658 OFFCURVE",
"552 714 CURVE",
"552 1194 LINE",
"662 1190 OFFCURVE",
"746 1166 OFFCURVE",
"823 1137 CURVE",
"846 1239 LINE",
"753 1278 OFFCURVE",
"653 1296 OFFCURVE",
"552 1300 CURVE",
"552 1465 LINE",
"451 1465 LINE",
"451 1299 LINE",
"259 1286 OFFCURVE",
"109 1194 OFFCURVE",
"109 969 CURVE SMOOTH",
"109 786 OFFCURVE",
"213 700 OFFCURVE",
"380 644 CURVE SMOOTH",
"451 620 LINE",
"451 96 LINE",
"304 100 OFFCURVE",
"209 142 OFFCURVE",
"137 173 CURVE",
"109 68 LINE",
"205 15 OFFCURVE",
"332 -7 OFFCURVE",
"451 -10 CURVE",
"451 -188 LINE",
"552 -188 LINE",
"552 -5 LINE",
"750 19 OFFCURVE",
"877 143 OFFCURVE",
"877 353 CURVE SMOOTH"
);
},
{
closed = 1;
nodes = (
"269 816 OFFCURVE",
"237 867 OFFCURVE",
"237 972 CURVE SMOOTH",
"237 1118 OFFCURVE",
"328 1177 OFFCURVE",
"451 1191 CURVE",
"451 750 LINE",
"421 761 LINE SMOOTH"
);
},
{
closed = 1;
nodes = (
"552 586 LINE",
"681 540 OFFCURVE",
"749 495 OFFCURVE",
"749 355 CURVE SMOOTH",
"749 205 OFFCURVE",
"672 125 OFFCURVE",
"552 103 CURVE"
);
}
);
width = 955;
},
{
layerId = "D42B5605-DB46-4B3B-8EA0-4CE7066523CE";
width = 600;
}
);
unicode = 0024;
},
{
glyphname = dong;
layers = (
{
components = (
{
name = dcroat;
}
);
layerId = "1D628CB9-BBF5-410A-9D74-9E6094BFE839";
paths = (
{
closed = 1;
nodes = (
"874 -197 LINE",
"874 -91 LINE",
"131 -91 LINE",
"131 -197 LINE"
);
}
);
width = 1018;
},
{
layerId = "D42B5605-DB46-4B3B-8EA0-4CE7066523CE";
width = 600;
}
);
unicode = 20AB;
},
